<?xml version="1.0" encoding="UTF-8" standalone="no"?>
<!-- Created with Inkscape (http://www.inkscape.org/) -->

<svg
   xmlns:dc="http://purl.org/dc/elements/1.1/"
   xmlns:cc="http://creativecommons.org/ns#"
   xmlns:rdf="http://www.w3.org/1999/02/22-rdf-syntax-ns#"
   xmlns:svg="http://www.w3.org/2000/svg"
   xmlns="http://www.w3.org/2000/svg"
   xmlns:sodipodi="http://sodipodi.sourceforge.net/DTD/sodipodi-0.dtd"
   xmlns:inkscape="http://www.inkscape.org/namespaces/inkscape"
   width="210mm"
   height="297mm"
   viewBox="0 0 744.09448819 1052.3622047"
   id="svg2"
   version="1.1"
   inkscape:version="0.91 r13725"
   sodipodi:docname="logo.svg">
  <defs
     id="defs4" />
  <sodipodi:namedview
     id="base"
     pagecolor="#ffffff"
     bordercolor="#666666"
     borderopacity="1.0"
     inkscape:pageopacity="0.0"
     inkscape:pageshadow="2"
     inkscape:zoom="0.49497475"
     inkscape:cx="256.2229"
     inkscape:cy="382.88366"
     inkscape:document-units="px"
     inkscape:current-layer="layer1"
     showgrid="false"
     inkscape:window-width="1920"
     inkscape:window-height="1017"
     inkscape:window-x="-8"
     inkscape:window-y="-8"
     inkscape:window-maximized="1" />
  <metadata
     id="metadata7">
    <rdf:RDF>
      <cc:Work
         rdf:about="">
        <dc:format>image/svg+xml</dc:format>
        <dc:type
           rdf:resource="http://purl.org/dc/dcmitype/StillImage" />
        <dc:title></dc:title>
      </cc:Work>
    </rdf:RDF>
  </metadata>
  <g
     inkscape:label="Layer 1"
     inkscape:groupmode="layer"
     id="layer1">
    <rect
       style="opacity:1;fill:#ff0000;fill-opacity:0;stroke:#8cc538;stroke-width:0.89184666;stroke-linecap:square;stroke-opacity:1"
       id="rect4382"
       width="1248.5853"
       height="1248.5853"
       x="-268.75467"
       y="-30.575405" />
    <g
       id="g4381"
       transform="matrix(0.9916911,0,0,0.9916911,186.24216,33.902613)">
      <g
         id="g4306"
         transform="matrix(1.25,0,0,1.25,-453.93552,-36.46913)">
        <path
           id="path4308"
           d="m 563.04,212.03 c 6.04,-2.98 12.92,-2.98 19.48,-2.41 7.26,14.63 4.09,33.74 -8.09,44.77 -3.63,3.69 -8.9,4.66 -13.59,6.33 -4.27,1.55 -8.85,0.77 -13.26,0.58 -4.84,-7.43 -6.43,-16.66 -4.59,-25.32 1.76,-10.81 9.85,-20.15 20.05,-23.95 z"
           inkscape:connector-curvature="0"
           style="fill:#cedc4e" />
        <path
           id="path4310"
           d="m 592.02,223.33 c 4.21,-3.33 9.58,-5.13 14.97,-4.49 11.71,0.8 21.68,8.64 28.26,17.93 2.07,3.42 4.15,7.07 4.66,11.1 -1.67,1.86 -4.33,2.6 -6.67,3.29 -10.55,2.06 -21.51,-2.03 -29.59,-8.77 -5.05,-5.5 -10.03,-11.56 -11.63,-19.06 z"
           inkscape:connector-curvature="0"
           style="fill:#cedc4e" />
        <path
           id="path4312"
           d="m 395.54,225.43 c 9,-1.46 18.52,-0.86 26.8,3.21 9.3,4.39 17.7,11.58 21.82,21.17 1.34,4.22 1.76,8.68 2.43,13.05 0.74,4.68 -0.73,9.27 -1.97,13.72 -8.75,2.75 -18.43,2.56 -26.8,-1.35 -19.12,-7.06 -29.32,-30.9 -22.28,-49.8 z"
           inkscape:connector-curvature="0"
           style="fill:#cedc4e" />
        <path
           id="path4314"
           d="m 478.27,245.2 c 11.97,-2.28 23.21,5.32 30.02,14.56 3.75,4.69 4.77,10.72 6.48,16.31 1.09,3.54 0.63,7.28 0.47,10.91 -8.2,2.98 -17.09,-0.46 -23.45,-5.8 -9.66,-8.99 -15.45,-22.77 -13.52,-35.98 z"
           inkscape:connector-curvature="0"
           style="fill:#cedc4e" />
        <path
           id="path4316"
           d="m 577.6,260.53 c 9.98,-6.39 22.49,-9.95 34.25,-7.27 6.95,2.8 14.52,5.47 19.12,11.79 1.6,1.29 0.37,3.35 -0.16,4.87 -3.91,9.24 -12.58,15.46 -21.59,19.2 -15.75,5.65 -35.42,0.98 -45.61,-12.69 3.63,-6.13 7.93,-11.97 13.99,-15.9 z"
           inkscape:connector-curvature="0"
           style="fill:#cedc4e" />
        <path
           id="path4318"
           d="m 518.13,287.13 c -1.09,-12.47 5.9,-24.57 15.87,-31.72 7.48,3.14 14.34,7.93 19.02,14.63 5.18,7.99 7.97,17.76 6.29,27.26 -1.13,4.08 -3.4,7.7 -5.42,11.38 -2.12,3.94 -5.87,6.52 -9.12,9.44 -14.22,-3.19 -25.98,-16.26 -26.64,-30.99 z"
           inkscape:connector-curvature="0"
           style="fill:#cedc4e" />
        <path
           id="path4320"
           d="m 363.42,259.57 c 16.18,-7.94 38.32,3.89 40.62,21.76 -5.61,2.57 -11.72,4.72 -17.99,3.71 -7.43,-1.1 -15.36,-3.87 -19.99,-10.13 -2.92,-3.56 -6.06,-7.33 -6.45,-12.13 0.64,-1.6 2.42,-2.36 3.81,-3.21 z"
           inkscape:connector-curvature="0"
           style="fill:#cedc4e" />
        <path
           id="path4322"
           d="m 457.3,265.33 c 7.97,0.12 15.06,5.52 19.67,11.72 5.9,7.54 6.17,18.42 2.02,26.83 -2.2,5.45 -6.42,9.74 -11.05,13.22 -6.97,-2.29 -13.53,-6.26 -17.76,-12.39 -4.68,-6.4 -7.02,-14.8 -5.18,-22.62 2.67,-6.42 6.02,-13.16 12.3,-16.76 z"
           inkscape:connector-curvature="0"
           style="fill:#cedc4e" />
        <path
           id="path4324"
           d="m 319.45,268.14 c 13.73,-5.13 29.4,1 38.68,11.65 3.67,6.3 8.82,12.46 8.61,20.17 -4.94,4 -11.76,4.16 -17.7,2.8 -7.12,-1.17 -13.22,-5.51 -18.36,-10.35 -5.89,-6.76 -11.44,-14.94 -11.23,-24.27 z"
           inkscape:connector-curvature="0"
           style="fill:#cedc4e" />
        <path
           id="path4326"
           d="m 640.09,265.49 c 19.16,2.2 33.15,21.88 32.03,40.57 -0.38,3.2 -1.65,6.2 -2.92,9.14 -13.37,-3.19 -24.05,-13.64 -29.36,-26.08 -2.08,-4.39 -1.8,-9.39 -2.11,-14.12 -0.27,-3.36 1.23,-6.45 2.36,-9.51 z"
           inkscape:connector-curvature="0"
           style="fill:#cedc4e" />
        <path
           id="path4328"
           d="m 425.48,326.42 c -5.92,-10.88 -7.17,-24.61 -2.11,-36.05 13.68,1.81 22.94,14.84 25.38,27.61 0.54,7.25 0.63,14.86 -2.37,21.64 -8.98,0.52 -16.59,-5.86 -20.9,-13.2 z"
           inkscape:connector-curvature="0"
           style="fill:#cedc4e" />
        <path
           id="path4330"
           d="m 600.25,297.79 c 3.24,-3.96 8.85,-5.15 13.74,-5.54 14.77,-1.15 30.56,8.89 33.57,23.82 -8.14,4.2 -17.71,5.14 -26.46,2.4 -4.75,-1.64 -9.78,-3.54 -13.08,-7.52 -3.3,-3.88 -7.34,-7.76 -7.77,-13.16 z"
           inkscape:connector-curvature="0"
           style="fill:#cedc4e" />
        <path
           id="path4332"
           d="m 310.15,293.04 c 13.6,-0.39 26.88,8.6 33,20.71 2.17,4.69 4.05,9.93 3.01,15.16 -0.54,3.25 -0.99,6.52 -1.83,9.71 -1.1,3.4 -3.36,6.25 -5.28,9.22 -11.59,0.91 -23.05,-4.74 -30.11,-13.82 -8.7,-11.91 -8.1,-29.61 1.21,-40.98 z"
           inkscape:connector-curvature="0"
           style="fill:#cedc4e" />
        <path
           id="path4334"
           d="m 377.13,293 c 15.79,-2.64 32.75,5.61 40.08,19.9 3.09,4.78 2.47,10.7 2.64,16.12 0.23,4.71 -1.82,9.05 -3.35,13.38 -10.74,2.88 -22.79,0.58 -31.54,-6.32 -4.22,-3.56 -7.6,-8.15 -9.9,-13.16 -2.89,-8.08 -3.46,-17.15 -0.53,-25.3 0.66,-1.61 0.99,-3.66 2.6,-4.62 z"
           inkscape:connector-curvature="0"
           style="fill:#cedc4e" />
        <path
           id="path4336"
           d="m 492.94,293.39 c 13.42,1.23 22.4,13.93 25.39,26.11 0.91,7.67 1.01,15.77 -2.11,23.01 -8.87,0.55 -16.41,-5.7 -20.76,-12.89 -6.17,-10.88 -7.09,-24.6 -2.52,-36.23 z"
           inkscape:connector-curvature="0"
           style="fill:#cedc4e" />
        <path
           id="path4338"
           d="m 560.31,312.15 c 4.9,-9.54 14.32,-16.47 24.77,-18.72 5.7,10.23 0.78,22.93 -7.14,30.46 -4.89,3.88 -10.33,7.18 -16.46,8.65 -5,-5.64 -4.39,-14.03 -1.17,-20.39 z"
           inkscape:connector-curvature="0"
           style="fill:#cedc4e" />
        <path
           id="path4340"
           d="m 356.02,340.95 c -4.68,-8.91 -4.56,-20.2 0.43,-28.96 7.38,1.38 12.62,7.62 15.07,14.39 3.09,7.63 1.78,16.39 -1.68,23.66 -6.01,0.18 -11.01,-4.13 -13.82,-9.09 z"
           inkscape:connector-curvature="0"
           style="fill:#cedc4e" />
        <path
           id="path4342"
           d="m 588.73,318.26 c 5.58,-0.45 10.71,2.69 14.65,6.36 5.63,5.49 9.51,12.78 11.01,20.49 0.61,7.24 0.66,14.76 -2.21,21.58 -8.95,0.96 -16.64,-5.55 -20.95,-12.8 -5.88,-10.72 -7.39,-24.26 -2.5,-35.63 z"
           inkscape:connector-curvature="0"
           style="fill:#cedc4e" />
        <path
           id="path4344"
           d="m 531.19,321.13 c 4.21,-1.51 8.93,-0.3 12.57,2.08 4.6,3.1 7.94,7.72 10.59,12.52 2.54,4.49 3.11,9.69 4.24,14.63 0.9,3.77 0.59,7.66 0.31,11.48 -3.18,1.27 -6.85,2.15 -10.1,0.62 -8.17,-3.78 -13.26,-12.06 -15.71,-20.44 -2.13,-6.7 -3.34,-13.94 -1.9,-20.89 z"
           inkscape:connector-curvature="0"
           style="fill:#cedc4e" />
        <path
           id="path4346"
           d="m 464.27,331.32 c 3.91,-4.72 9.51,-7.43 14.98,-9.91 2.27,3.54 4.58,7.27 4.91,11.59 1.18,11.64 -3.29,24.11 -12.55,31.51 -3.49,3.86 -7.91,6.61 -12.79,8.34 -3.8,-3.61 -6.19,-8.57 -6.23,-13.86 -0.95,-10.48 4.38,-20.5 11.68,-27.67 z"
           inkscape:connector-curvature="0"
           style="fill:#cedc4e" />
        <path
           id="path4348"
           d="m 616.99,325.57 c 6.28,-3.94 14.24,-4.13 21.13,-1.75 7.1,2.46 13.83,6.79 17.86,13.27 3.13,3.96 5.23,8.56 6.64,13.39 -5.36,5.39 -13.71,5.17 -20.54,3.3 -12.38,-4.41 -21.77,-15.63 -25.09,-28.21 z"
           inkscape:connector-curvature="0"
           style="fill:#cedc4e" />
        <path
           id="path4350"
           d="m 673.74,343.29 c -3.8,-6.66 -4.2,-14.6 -2.98,-22.02 7.93,-0.31 14.6,5.22 18.42,11.72 3.97,6.28 4.03,14.11 3.07,21.24 -7.86,1.26 -15.07,-4.24 -18.51,-10.94 z"
           inkscape:connector-curvature="0"
           style="fill:#cedc4e" />
        <path
           id="path4352"
           d="m 294.35,374.67 c -7.61,-11.32 -9.16,-26.6 -3.8,-39.17 4.72,1.06 9.58,2.36 13.27,5.68 6.45,5.56 10.91,13.49 12.47,21.85 0.44,7.32 0.68,14.84 -1.86,21.84 -8.18,1.56 -15.47,-4.01 -20.08,-10.2 z"
           inkscape:connector-curvature="0"
           style="fill:#cedc4e" />
        <path
           id="path4354"
           d="m 381.86,345.04 c 13.52,1.28 22.54,14.11 25.44,26.42 0.77,7.53 0.99,15.48 -2.17,22.54 -8.77,0.74 -16.22,-5.39 -20.6,-12.43 -6.27,-10.96 -7.53,-24.8 -2.67,-36.53 z"
           inkscape:connector-curvature="0"
           style="fill:#cedc4e" />
        <path
           id="path4356"
           d="m 256.65,383.11 c -4.9,-11.84 -4.61,-26.2 2.08,-37.32 12.13,2.84 19.89,14.54 22.1,26.2 1.14,4.83 0.11,9.76 -0.36,14.6 -0.43,4.06 -1.55,8.3 -4.36,11.39 -8.98,0.09 -15.68,-7.49 -19.46,-14.87 z"
           inkscape:connector-curvature="0"
           style="fill:#cedc4e" />
        <path
           id="path4358"
           d="m 418.94,345.98 c 9.28,0.46 16.73,7.3 21.1,15.03 2.16,4.03 4.1,8.32 4.63,12.9 0.41,7.04 0.59,14.35 -2.32,20.94 -8.79,0.79 -16.36,-5.4 -20.68,-12.52 -6.28,-10.89 -7.27,-24.64 -2.73,-36.35 z"
           inkscape:connector-curvature="0"
           style="fill:#cedc4e" />
        <path
           id="path4360"
           d="m 328.5,355.55 c 8,-6.09 18.47,-9.33 28.49,-7.6 1.46,0.75 1.67,2.67 2.34,4.03 5.44,13.9 1.73,30.87 -9.15,41.13 -3.61,4.12 -9.21,5.15 -14.15,6.88 -4.46,1.67 -9.26,0.92 -13.88,0.66 -5.36,-8.41 -6.89,-19.08 -4.23,-28.68 1.66,-6.42 5.78,-11.96 10.58,-16.42 z"
           inkscape:connector-curvature="0"
           style="fill:#cedc4e" />
        <path
           id="path4362"
           d="m 557.7,377.7 c 4.05,-12.15 13.62,-22.68 25.87,-26.83 8.42,11.52 5.08,27.83 -3.18,38.48 -5.14,5.09 -10.32,10.65 -17.48,12.8 -6.81,-6.06 -7.42,-16.17 -5.21,-24.45 z"
           inkscape:connector-curvature="0"
           style="fill:#cedc4e" />
        <path
           id="path4364"
           d="m 478.25,386.08 c -2.9,-13.15 3.45,-27.96 15.38,-34.42 4.66,3.17 9.19,6.71 12.1,11.64 5.03,8.2 7.16,18.6 4.43,27.96 -3.07,6.63 -7.17,13.33 -14.03,16.59 -9,-3.95 -15.59,-12.27 -17.88,-21.77 z"
           inkscape:connector-curvature="0"
           style="fill:#cedc4e" />
        <path
           id="path4366"
           d="m 522.61,352.13 c 9.55,0.56 17.14,7.77 21.5,15.8 5.69,9.94 5.92,22.5 1.89,33.06 -8.8,0.84 -16.23,-5.38 -20.62,-12.41 -6.28,-10.93 -7.43,-24.7 -2.77,-36.45 z"
           inkscape:connector-curvature="0"
           style="fill:#cedc4e" />
        <path
           id="path4368"
           d="m 666.45,389.65 c -4.79,-12.18 -3.67,-26.62 3.29,-37.77 11.85,3.02 18.95,14.76 20.95,26.15 1.32,5.66 -0.29,11.36 -1.1,16.96 -0.47,3.62 -2.41,6.75 -4.09,9.91 -8.96,-0.3 -15.42,-7.75 -19.05,-15.25 z"
           inkscape:connector-curvature="0"
           style="fill:#cedc4e" />
        <path
           id="path4370"
           d="m 635.69,382.03 c 1.25,-9.58 6,-19.1 13.89,-24.89 8.91,6.68 9.58,19.66 5.71,29.29 -2.82,5.37 -5.64,10.96 -10.45,14.86 -7.55,-2.86 -10.11,-11.92 -9.15,-19.26 z"
           inkscape:connector-curvature="0"
           style="fill:#cedc4e" />
        <path
           id="path4372"
           d="m 617.44,368.66 c 4,-0.85 8.03,0.1 11.93,1.05 2.04,12.23 -3.47,24.96 -12.81,32.83 -8.2,7.27 -19.53,10.53 -30.37,9.02 2.1,-1.28 4.15,-2.63 6.19,-4.02 -3.05,-0.68 -6.15,-1.18 -9.28,-1.12 0.22,-13.66 8.9,-26.08 20.07,-33.38 4.15,-3 9.4,-3.4 14.27,-4.38 z"
           inkscape:connector-curvature="0"
           style="fill:#cedc4e" />
        <path
           id="path4374"
           d="m 717.63,369.67 c 3.47,-1.16 7.24,-2.03 10.9,-1.3 4.62,10.58 -0.89,22.21 -7.88,30.29 -4.2,5.68 -10.93,8.32 -17.17,11.06 -3,1.21 -6.27,1.38 -9.43,1.82 -2.65,-5.08 -3.38,-11.1 -1.4,-16.54 3.16,-12.17 13.84,-20.64 24.98,-25.33 z"
           inkscape:connector-curvature="0"
           style="fill:#cedc4e" />
        <path
           id="path4376"
           d="m 369.18,372.6 c 5.3,3.14 9.45,7.93 11.42,13.81 3.24,9.24 3.35,19.93 -1.36,28.71 -1.71,4.91 -4.56,9.26 -8.42,12.75 -8.33,-2.6 -12.66,-11.06 -14.34,-19.03 -1.77,-13.17 3,-27.11 12.7,-36.24 z"
           inkscape:connector-curvature="0"
           style="fill:#cedc4e" />
        <path
           id="path4378"
           d="m 282.39,391.32 c 13.98,-4.19 29.88,1 39.2,12.1 4.15,4.14 5.04,10.15 6.38,15.59 1,3.8 0.01,7.68 -0.56,11.46 -8.13,3.47 -17.6,3.13 -25.66,-0.38 -14.82,-5.79 -23.07,-23.56 -19.36,-38.77 z"
           inkscape:connector-curvature="0"
           style="fill:#cedc4e" />
        <path
           id="path4380"
           d="m 455.26,422.79 c -6.51,-10.01 -5.58,-23.88 1.54,-33.33 6.85,0.75 13.61,3.19 18.65,8.02 6.57,6.09 11.17,15.4 8.97,24.47 -0.4,4.68 -2.47,8.92 -5.05,12.76 -9.49,0.84 -18.77,-4.22 -24.11,-11.92 z"
           inkscape:connector-curvature="0"
           style="fill:#cedc4e" />
        <path
           id="path4382"
           d="m 718.83,407.84 c 13.47,-9.68 32.48,-11.57 47.32,-3.93 -0.59,9.33 -5.32,17.91 -12.19,24.12 -9.04,8.25 -21.44,13.93 -33.88,11.89 -5.51,0.23 -10.58,-1.85 -15.5,-4.04 -1.11,-11.2 5.8,-21.39 14.25,-28.04 z"
           inkscape:connector-curvature="0"
           style="fill:#cedc4e" />
        <path
           id="path4384"
           d="m 441.28,401.11 c 0.44,0.18 1.34,0.52 1.78,0.7 4.32,14.43 9.22,28.74 15.64,42.39 7.93,15.56 16.76,31.35 30.57,42.5 4.82,3.45 10.75,6.43 16.83,5.66 6.54,-2.5 10.21,-9.05 13.59,-14.78 8.77,-15.58 17.56,-31.23 28.28,-45.57 6.13,-6.6 11.69,-13.95 19.4,-18.83 4.55,-3.57 10.15,-5.5 15.73,-6.76 3.13,-0.06 6.23,0.44 9.28,1.12 -2.04,1.39 -4.09,2.74 -6.19,4.02 -13.52,8.28 -24.19,20.41 -33.56,33.04 -10.91,16 -19.61,33.64 -24.66,52.38 -3.21,12.09 -5.24,24.45 -6.79,36.85 -1.27,9.63 -0.84,19.38 -1.72,29.04 0.07,19.6 0.68,39.24 3.14,58.7 2.13,18.8 4.84,37.58 9.6,55.91 2.43,11.83 6.27,23.33 8.63,35.15 -3.6,0.1 -7.18,-1.4 -9.18,-4.46 -6.69,-9.39 -9.17,-20.94 -11.4,-32.05 -2.06,-7.45 -3.13,-15.11 -4.71,-22.66 -3.59,-0.08 -7.17,0.05 -10.76,0.13 -2.17,13.23 -3.94,26.88 -10.07,39 -2.64,4.74 -5.79,9.86 -11.12,11.88 -2.76,1.28 -5.85,1.13 -8.8,1.17 3.28,-10.5 7.31,-20.79 9.86,-31.52 9,-36.09 18.05,-72.71 18.04,-110.14 -0.39,-17.91 -4.06,-36.37 -14.28,-51.4 -4.73,-8.04 -11.24,-14.75 -16.81,-22.16 -7.74,-9.22 -14.6,-19.27 -19.78,-30.14 -5.6,-12.12 -8.37,-25.29 -10.02,-38.47 -0.23,-6.9 -1.53,-13.81 -0.52,-20.7 z"
           inkscape:connector-curvature="0"
           style="fill:#5d512e" />
        <path
           id="path4386"
           d="m 511.64,404.7 c 7.32,-3.19 15.56,-4.89 23.46,-3.05 2.08,5.51 4.78,11.21 3.79,17.26 -1.68,6.96 -5.01,13.7 -10.51,18.42 -3.66,3.45 -8.71,4.56 -13.37,5.99 -4.8,1.5 -10,1.66 -14.92,0.68 -6.17,-7.02 -7.29,-17.69 -3.04,-25.96 3.16,-5.91 8.28,-10.92 14.59,-13.34 z"
           inkscape:connector-curvature="0"
           style="fill:#cedc4e" />
        <path
           id="path4388"
           d="m 222.32,406.72 c 12.56,-7.32 28.49,-6.33 41.35,-0.32 4.88,2.1 8.3,6.29 11.78,10.13 2.28,2.48 3.23,5.79 4.42,8.87 -7.75,6.49 -18.52,7.22 -28.12,5.8 -12.95,-2.59 -25.68,-11.3 -29.43,-24.48 z"
           inkscape:connector-curvature="0"
           style="fill:#cedc4e" />
        <path
           id="path4390"
           d="m 400.52,437.4 c -6.55,-10.65 -5.08,-24.96 2.41,-34.75 7.9,0.72 15.72,3.47 21.6,8.94 7.03,6.4 12.26,16.25 9.81,25.93 -0.39,5.25 -2.79,9.93 -5.81,14.13 -10.99,0.77 -22.19,-4.91 -28.01,-14.25 z"
           inkscape:connector-curvature="0"
           style="fill:#cedc4e" />
        <path
           id="path4392"
           d="m 340.01,438.06 c -5.12,-10.35 -6.23,-22.96 -1.74,-33.72 8.09,1.14 14.51,7.06 18.25,14.04 5.66,9.66 5.55,21.75 2.41,32.22 -8.37,0.77 -15.26,-5.63 -18.92,-12.54 z"
           inkscape:connector-curvature="0"
           style="fill:#cedc4e" />
        <path
           id="path4394"
           d="m 606.9,419.81 c 6.64,-10.98 20.77,-15.6 33,-13.67 1.97,1.6 2.46,4.44 3.27,6.76 2.89,10.75 -2.77,22.54 -12.19,28.05 -6.92,3.11 -14.59,4.53 -22.15,3.58 -5.28,-6.96 -6.37,-17.08 -1.93,-24.72 z"
           inkscape:connector-curvature="0"
           style="fill:#cedc4e" />
        <path
           id="path4396"
           d="m 656.04,407.21 c 4.81,-1.7 10.04,-2.5 15.05,-1.13 10.1,2.51 19.6,9.1 24.12,18.67 2.73,4.29 4.46,9.13 4.73,14.24 -8.22,4.92 -18.83,2.66 -26.32,-2.57 -9.46,-6.73 -16.78,-17.41 -17.58,-29.21 z"
           inkscape:connector-curvature="0"
           style="fill:#cedc4e" />
        <path
           id="path4398"
           d="m 382.09,424.86 c 7.5,2.67 12.97,9.28 15.33,16.75 1.82,5.85 3.1,12.09 2.2,18.22 -1.55,7.03 -3.65,14.16 -8.34,19.79 -9.46,-1.83 -15.01,-10.94 -17.33,-19.58 -2.38,-12.06 -0.16,-25.74 8.14,-35.18 z"
           inkscape:connector-curvature="0"
           style="fill:#cedc4e" />
        <path
           id="path4400"
           d="m 582.66,432.73 c 4.85,-2.28 10.28,-2.59 15.55,-2.64 3.24,13.46 -5.4,26.73 -16.48,33.65 -6.54,3.19 -13.56,5.94 -20.97,5.72 -2.04,-5.05 -2.25,-10.82 -0.15,-15.89 3.61,-9.93 12.54,-16.92 22.05,-20.84 z"
           inkscape:connector-curvature="0"
           style="fill:#cedc4e" />
        <path
           id="path4402"
           d="m 637.36,450.01 c -0.56,-7.4 1.7,-14.89 6.23,-20.76 8.72,1.43 17.42,4.18 24.37,9.83 8.12,6.57 15.07,15.39 16.99,25.87 0.36,4.2 -0.41,8.41 -0.7,12.61 -0.32,4.43 -3.01,8.11 -5.13,11.84 -13.16,0.29 -25.76,-6.43 -33.96,-16.49 -4.67,-6.67 -8.18,-14.6 -7.8,-22.9 z"
           inkscape:connector-curvature="0"
           style="fill:#cedc4e" />
        <path
           id="path4404"
           d="m 285.77,436.25 c 12.05,-3.6 26.04,-2.09 36.33,5.44 -1.65,3.35 -2.96,7.02 -5.75,9.64 -6.9,6.8 -16.74,10.38 -26.36,10.33 -7.47,-1.04 -15.35,-1.98 -21.58,-6.64 0.95,-9.29 9.15,-15.76 17.36,-18.77 z"
           inkscape:connector-curvature="0"
           style="fill:#cedc4e" />
        <path
           id="path4406"
           d="m 468.56,441.89 c 7.23,-2.88 16.56,-2.47 22.26,3.35 3.92,3.84 4.89,9.71 3.5,14.89 -5.97,1.2 -12.53,1.87 -18,-1.38 -6.47,-2.52 -9.96,-10.34 -7.76,-16.86 z"
           inkscape:connector-curvature="0"
           style="fill:#cedc4e" />
        <path
           id="path4408"
           d="m 553.29,454.23 c 2.52,-4.45 5.42,-8.71 9.07,-12.33 0.1,0.37 0.29,1.12 0.38,1.49 l -0.8,0.17 c -3.06,6.24 -5.35,12.79 -8.15,19.15 -6.87,15.81 -11.68,32.43 -15.43,49.24 -1.5,9.86 -4.4,20 -1.78,29.93 2.02,-0.14 4.29,0.2 6,-1.16 6.58,-4.76 11.45,-11.38 16.83,-17.38 10.38,-12.56 21.85,-24.71 36.43,-32.41 3.49,-1.97 7.13,-3.78 11.1,-4.58 -11.21,13.16 -27.31,20.96 -38.15,34.48 -7.82,8.16 -13.5,18.14 -17.65,28.59 -1.1,2.89 -2.12,5.81 -3.05,8.76 -3.24,9.93 -4.34,20.38 -5.07,30.76 -0.96,11.33 -0.31,22.73 1.2,33.98 0.94,7.65 3.45,14.98 5.68,22.32 2.54,7.94 7.11,15.46 14.26,20.03 -3.31,0.57 -6.72,1.92 -10.07,1.17 -6.12,-6.75 -9.79,-15.51 -11.53,-24.38 -1.69,-8.37 -3.56,-16.72 -4.49,-25.21 -1.92,1.76 -3.86,3.5 -5.82,5.23 2.02,20.73 6.43,41.45 15.12,60.48 1.44,2.88 2.94,5.76 3.61,8.94 -0.51,0.02 -1.52,0.05 -2.03,0.07 -1.25,0.65 -2.55,1.21 -3.82,1.82 -0.76,0.01 -2.3,0.04 -3.06,0.05 -2.82,-10.12 -5.21,-20.36 -8.5,-30.34 -3.15,-10.82 -4.7,-21.99 -6.5,-33.08 -3.35,-18.17 -4.68,-36.63 -5.32,-55.07 -0.14,-7.35 -0.28,-14.72 0.7,-22.02 0.51,-16.26 3.42,-32.34 7.53,-48.04 5.58,-17.76 12.87,-35.18 23.31,-50.66 z"
           inkscape:connector-curvature="0"
           style="fill:#5d512e" />
        <path
           id="path4410"
           d="m 710,451.15 c 14.49,-9.41 37.81,-2.07 42.57,15.03 -8.01,3.83 -17.41,4.33 -25.77,1.33 -7.75,-2.3 -14.6,-8.49 -16.8,-16.36 z"
           inkscape:connector-curvature="0"
           style="fill:#cedc4e" />
        <path
           id="path4412"
           d="m 597.42,464.32 c 4.19,-6.42 10.13,-11.97 17.43,-14.59 1.29,2.57 2.85,5.31 2.32,8.31 -1.38,10.25 -9.04,18.62 -17.95,23.24 -2.17,1.46 -4.29,-0.82 -4.84,-2.82 -1.69,-4.85 0.62,-9.96 3.04,-14.14 z"
           inkscape:connector-curvature="0"
           style="fill:#cedc4e" />
        <path
           id="path4414"
           d="m 504.4,455.66 c 5.01,-1.54 11.69,-0.04 13.66,5.34 2.39,8.67 -3.85,17.82 -12.11,20.45 -7.12,2.79 -15.5,-4.03 -14.86,-11.51 0,-7.34 6.57,-12.84 13.31,-14.28 z"
           inkscape:connector-curvature="0"
           style="fill:#5d512e" />
        <path
           id="path4416"
           d="m 321.43,457.2 c 3.82,-1.08 7.83,-1.82 11.81,-1.42 1.78,3.51 1.33,7.8 1.24,11.65 -1.47,12.16 -8.59,23.35 -18.22,30.75 -7.15,3.54 -14.46,7.87 -22.77,7.18 -2.91,-6.63 -2.7,-14.29 -0.08,-20.98 4.3,-12.9 15.42,-22.68 28.02,-27.18 z"
           inkscape:connector-curvature="0"
           style="fill:#cedc4e" />
        <path
           id="path4418"
           d="m 352.54,462.4 c 4.7,-3.59 10.4,-5.59 16.21,-6.44 5.9,12.45 -0.46,27.06 -9.8,35.94 -5.94,4.21 -12.27,8.78 -19.78,9.32 -3.35,-4.29 -4.16,-10.1 -3.01,-15.33 1.58,-9.82 8.41,-17.96 16.38,-23.49 z"
           inkscape:connector-curvature="0"
           style="fill:#cedc4e" />
        <path
           id="path4420"
           d="m 408.19,465.11 c 4.03,-3.45 9.68,-4.13 14.77,-3.39 7.26,1.18 14.05,4.91 19.11,10.23 4.49,5.4 8.21,11.55 9.87,18.44 -5.78,6.16 -15.49,5.56 -22.58,2.2 -10.61,-5.41 -18.6,-15.88 -21.17,-27.48 z"
           inkscape:connector-curvature="0"
           style="fill:#cedc4e" />
        <path
           id="path4422"
           d="m 688.18,465.69 c 10.22,-6.23 23.26,-2.82 32.51,3.63 4.73,2.91 7.71,7.7 10.83,12.14 2.17,3 3.18,6.61 4.33,10.09 -6.05,5.52 -15.11,5.1 -22.42,2.75 -12.31,-4.79 -22.04,-15.78 -25.25,-28.61 z"
           inkscape:connector-curvature="0"
           style="fill:#cedc4e" />
        <path
           id="path4424"
           d="m 624.64,503.39 c -6.54,-11.03 -5.49,-25.5 1.36,-36.14 17.29,0.77 31.84,18.77 28.08,35.83 -0.37,4.9 -2.55,9.33 -5.08,13.45 -9.81,0.69 -19.26,-4.94 -24.36,-13.14 z"
           inkscape:connector-curvature="0"
           style="fill:#cedc4e" />
        <path
           id="path4426"
           d="m 448.04,468.77 c 12.29,18.15 30.9,31.41 41.08,51.07 3.7,8.31 7.28,16.9 8.22,26.04 2.37,12.87 2.75,26.1 1.36,39.11 -1.36,19.96 -5.24,39.66 -10.2,59.02 -3.28,12.44 -6.4,24.98 -11.47,36.85 -1.7,3.92 -3.14,8.1 -5.99,11.38 -2.2,-0.37 -4.36,-0.83 -6.53,-1.21 -0.09,-0.5 -0.26,-1.52 -0.34,-2.02 7.99,-10.77 13.14,-23.41 16.12,-36.43 1.95,-7.8 3.71,-15.69 4.48,-23.7 0.34,-1.79 -1.77,-2.3 -2.86,-3.14 -2.37,14.71 -4.85,30.6 -14.98,42.24 -2.33,3.14 -6.67,1.28 -9.9,1.23 10.34,-11.37 14.57,-26.58 18.19,-41.14 2.28,-11.8 4.24,-23.88 2.8,-35.91 -1.7,-8.36 -4.89,-16.44 -9.75,-23.48 -3.78,-6.9 -9.67,-12.22 -15.34,-17.53 -9.89,-7.25 -19.87,-14.41 -29.27,-22.29 -3.44,-2.83 -6.71,-5.84 -9.83,-9.01 -4.28,-4.68 -8.8,-9.42 -11.25,-15.37 -2.25,-5.12 -5.17,-10.02 -6.4,-15.53 2.66,3.07 4.72,6.57 7.08,9.86 0.21,0.27 0.63,0.81 0.84,1.08 5.27,6.33 10.77,12.56 17.35,17.57 9.49,7.21 19.23,14.09 28.75,21.27 5.47,3.9 10.7,8.19 16.53,11.57 2.17,1.46 4.84,1.3 7.34,1.18 1.91,-6.33 1.66,-12.97 2.12,-19.49 -0.51,-11.87 -4.42,-23.48 -10.69,-33.54 -5.01,-8.6 -11.2,-16.49 -15.8,-25.32 -0.48,-1.49 -1.17,-2.89 -1.66,-4.36 z"
           inkscape:connector-curvature="0"
           style="fill:#5d512e" />
        <path
           id="path4428"
           d="m 565.46,483.33 c 3.55,-10.1 14.97,-15.2 25.11,-15 2.18,5.87 0.95,12.51 -2.81,17.45 -4.71,7.04 -13.58,10.07 -21.75,9.7 -1.41,-3.89 -2.23,-8.19 -0.55,-12.15 z"
           inkscape:connector-curvature="0"
           style="fill:#cedc4e" />
        <path
           id="path4430"
           d="m 401.39,488.24 c 5.98,-4.02 15.24,-1.68 18.62,4.72 1.9,2.99 1.76,6.63 1.81,10.03 -5.9,2.38 -13.14,1.5 -17.72,-3.1 -0.21,-0.27 -0.63,-0.81 -0.84,-1.08 -1.86,-3.07 -3.2,-7.06 -1.87,-10.57 z"
           inkscape:connector-curvature="0"
           style="fill:#cedc4e" />
        <path
           id="path4432"
           d="m 607.77,516.32 c -4.4,-7.03 -5.85,-15.97 -3.46,-23.95 7.48,0.57 14.01,5.27 17.73,11.65 4.19,6.31 4.17,14.25 3.33,21.5 -7.23,1.38 -13.92,-3.32 -17.6,-9.2 z"
           inkscape:connector-curvature="0"
           style="fill:#cedc4e" />
        <path
           id="path4434"
           d="m 353.73,504.74 c 10.93,-8.45 26.45,-10.15 39.02,-4.52 3.85,1.83 6.94,4.84 9.94,7.8 -4.5,14.72 -16.72,26.37 -31.14,31.34 -5.13,1.58 -10.74,3.23 -16.02,1.33 -5.29,-1.85 -11.45,-2.32 -15.56,-6.53 -1.2,-1.27 -2.91,-2.34 -3.36,-4.1 1.58,-10.46 8.84,-19.18 17.12,-25.32 z"
           inkscape:connector-curvature="0"
           style="fill:#cedc4e" />
        <path
           id="path4436"
           d="m 658.21,510.22 c 7.13,-6.84 15.85,-12.37 25.76,-13.94 3.31,4.57 5.93,9.86 5.7,15.66 -0.12,9.53 -4.51,18.87 -11.46,25.34 -6.69,5.08 -13.99,9.67 -22.39,11.19 -4.68,-4.14 -7.68,-10.11 -7.33,-16.45 -0.3,-8.35 4.29,-15.84 9.72,-21.8 z"
           inkscape:connector-curvature="0"
           style="fill:#cedc4e" />
        <path
           id="path4438"
           d="m 430.34,501.2 c 8.11,-3.79 19.68,-2.38 24.54,5.84 2.41,3.59 2.33,8.06 1.45,12.14 -6.23,1.35 -13.11,1.8 -18.74,-1.75 -6.06,-2.65 -8.86,-10.02 -7.25,-16.23 z"
           inkscape:connector-curvature="0"
           style="fill:#cedc4e" />
        <path
           id="path4440"
           d="m 312.31,501.49 c 6.7,-3.1 15.29,-2.9 21,2.13 4.27,3.53 5.71,9.3 5.09,14.64 -7.54,2.8 -16.85,1.85 -22.64,-4.09 -3.33,-3.29 -3.71,-8.27 -3.45,-12.68 z"
           inkscape:connector-curvature="0"
           style="fill:#cedc4e" />
        <path
           id="path4442"
           d="m 708.27,503.45 c 10.25,-0.97 21.25,0.43 29.93,6.34 5.52,5.19 12.41,9.9 14,17.85 -7.18,7.04 -17.68,8.95 -27.38,8 -10.35,-1.43 -19.94,-6.81 -26.87,-14.57 -2.79,-3.17 -5.02,-6.84 -5.94,-10.99 4.93,-3.24 10.31,-5.95 16.26,-6.63 z"
           inkscape:connector-curvature="0"
           style="fill:#cedc4e" />
        <path
           id="path4444"
           d="m 546.33,510.24 c 2.73,-1.48 6.71,-0.98 8.54,1.72 3.07,4.17 1.75,9.91 -0.38,14.21 -1.92,4.23 -5.52,8.44 -10.5,8.66 -4.59,-0.47 -6.54,-5.84 -6.43,-9.85 0.48,-5.84 3.43,-11.9 8.77,-14.74 z"
           inkscape:connector-curvature="0"
           style="fill:#5d512e" />
        <path
           id="path4446"
           d="m 586.74,517.8 c 8.77,-2.79 19.38,0.25 25.05,7.56 -1.05,9.84 -10.11,17.44 -19.59,18.84 10.86,0.53 20.88,6.73 27.49,15.15 3.85,6.74 7.42,13.92 7.76,21.84 -7.18,4.61 -16.51,2.83 -23.5,-1.25 -11.68,-7.11 -19.39,-20.27 -20.15,-33.89 1.9,-0.4 3.81,-0.79 5.73,-1.15 -6.38,-1.44 -12.88,-3.79 -17.25,-8.9 1.1,-8.09 6.67,-15.51 14.46,-18.2 z"
           inkscape:connector-curvature="0"
           style="fill:#cedc4e" />
        <path
           id="path4448"
           d="m 395.55,529.5 c 4.49,-5.33 11.35,-7.53 17.48,-10.35 l 0.8,0.7 c 3.12,3.17 6.39,6.18 9.83,9.01 0.54,4.43 -1.31,8.85 -3,12.88 -6.91,12.09 -20.13,21.43 -34.39,21.15 -4.02,-11.83 1.24,-24.58 9.28,-33.39 z"
           inkscape:connector-curvature="0"
           style="fill:#cedc4e" />
        <path
           id="path4450"
           d="m 460.39,526.64 c 4.73,-2.78 11.11,-0.33 13.16,4.65 2.13,5.3 1.76,12.74 -3.45,16.18 -11.13,3.82 -19.48,-14.86 -9.71,-20.83 z"
           inkscape:connector-curvature="0"
           style="fill:#5d512e" />
        <path
           id="path4452"
           d="m 607.96,537.13 c 12.23,-8.14 29.82,-3.93 38.87,7.09 1.82,2.31 2.71,5.17 3.71,7.9 -8.07,3.79 -17.5,4.32 -25.89,1.27 -7.71,-2.29 -14.39,-8.5 -16.69,-16.26 z"
           inkscape:connector-curvature="0"
           style="fill:#cedc4e" />
        <path
           id="path4454"
           d="m 422.41,560.01 c 0.86,-6.87 2.34,-14.03 6.84,-19.53 9.14,2.72 15.31,11.14 18.22,19.85 3.32,11.24 2.61,24.79 -5.39,33.96 -12.81,-6.01 -19.51,-20.66 -19.67,-34.28 z"
           inkscape:connector-curvature="0"
           style="fill:#cedc4e" />
        <path
           id="path4456"
           d="m 551.14,549.42 c 10.48,-1.63 21.03,2.67 28.56,9.87 3.73,3.17 5.84,7.66 8.16,11.86 1.87,3.46 3.32,7.4 2.81,11.39 -6.29,4.44 -14.69,3.06 -21.32,0.16 -10.08,-4.84 -17.19,-14.31 -21.26,-24.52 0.93,-2.95 1.95,-5.87 3.05,-8.76 z"
           inkscape:connector-curvature="0"
           style="fill:#cedc4e" />
        <path
           style="fill:#cedc4e"
           inkscape:connector-curvature="0"
           id="path4458"
           d="m 432.04,727.58 c 6.65,-1.3 13.69,1.95 17.56,7.4 2.82,3.79 2.58,9.01 1.25,13.34 -0.63,2.68 -4.09,2.22 -6.2,2.21 -6,-0.14 -11.33,-4.23 -13.67,-9.63 -1.21,-4.32 -1.44,-9.41 1.06,-13.32 z" />
        <text
           sodipodi:linespacing="125%"
           id="text4460"
           y="683.41107"
           x="39.676071"
           style="font-style:normal;font-weight:normal;font-size:32px;line-height:125%;font-family:sans-serif;letter-spacing:0px;word-spacing:0px;fill:#5d512e;fill-opacity:1;stroke:none;stroke-width:1px;stroke-linecap:butt;stroke-linejoin:miter;stroke-opacity:1"
           xml:space="preserve"><tspan
             style="font-style:normal;font-variant:normal;font-weight:normal;font-stretch:normal;font-size:70px;font-family:Stentiga;-inkscape-font-specification:Stentiga;fill:#5d512e;fill-opacity:1"
             y="683.41107"
             x="39.676071"
             id="tspan4462"
             sodipodi:role="line">PLANTEAZA</tspan></text>
        <text
           sodipodi:linespacing="125%"
           id="text4464"
           y="684.85168"
           x="584.85596"
           style="font-style:normal;font-weight:normal;font-size:32px;line-height:125%;font-family:sans-serif;letter-spacing:0px;word-spacing:0px;fill:#5d512e;fill-opacity:1;stroke:none;stroke-width:1px;stroke-linecap:butt;stroke-linejoin:miter;stroke-opacity:1"
           xml:space="preserve"><tspan
             style="font-style:normal;font-variant:normal;font-weight:normal;font-stretch:normal;font-size:70px;font-family:Stentiga;-inkscape-font-specification:Stentiga;letter-spacing:8px;fill:#5d512e;fill-opacity:1"
             y="684.85168"
             x="584.85596"
             id="tspan4466"
             sodipodi:role="line">ROMANIA</tspan></text>
        <text
           sodipodi:linespacing="125%"
           id="text4468"
           y="747.75281"
           x="460.68216"
           style="font-style:normal;font-weight:normal;font-size:30px;line-height:125%;font-family:sans-serif;letter-spacing:0px;word-spacing:0px;fill:#cedc4e;fill-opacity:1;stroke:none;stroke-width:1px;stroke-linecap:butt;stroke-linejoin:miter;stroke-opacity:1"
           xml:space="preserve"><tspan
             style="font-style:normal;font-variant:normal;font-weight:normal;font-stretch:normal;font-size:32px;font-family:Stentiga;-inkscape-font-specification:Stentiga;fill:#cedc4e;fill-opacity:1"
             y="747.75281"
             x="460.68216"
             id="tspan4470"
             sodipodi:role="line">PENTRU</tspan></text>
      </g>
      <g
         id="g4472"
         transform="matrix(1.25,0,0,1.25,-453.93552,-36.46913)">
        <path
           id="path4474"
           d="m 563.04,212.03 c 6.04,-2.98 12.92,-2.98 19.48,-2.41 7.26,14.63 4.09,33.74 -8.09,44.77 -3.63,3.69 -8.9,4.66 -13.59,6.33 -4.27,1.55 -8.85,0.77 -13.26,0.58 -4.84,-7.43 -6.43,-16.66 -4.59,-25.32 1.76,-10.81 9.85,-20.15 20.05,-23.95 z"
           inkscape:connector-curvature="0"
           style="fill:#cedc4e" />
        <path
           id="path4476"
           d="m 592.02,223.33 c 4.21,-3.33 9.58,-5.13 14.97,-4.49 11.71,0.8 21.68,8.64 28.26,17.93 2.07,3.42 4.15,7.07 4.66,11.1 -1.67,1.86 -4.33,2.6 -6.67,3.29 -10.55,2.06 -21.51,-2.03 -29.59,-8.77 -5.05,-5.5 -10.03,-11.56 -11.63,-19.06 z"
           inkscape:connector-curvature="0"
           style="fill:#cedc4e" />
        <path
           id="path4478"
           d="m 395.54,225.43 c 9,-1.46 18.52,-0.86 26.8,3.21 9.3,4.39 17.7,11.58 21.82,21.17 1.34,4.22 1.76,8.68 2.43,13.05 0.74,4.68 -0.73,9.27 -1.97,13.72 -8.75,2.75 -18.43,2.56 -26.8,-1.35 -19.12,-7.06 -29.32,-30.9 -22.28,-49.8 z"
           inkscape:connector-curvature="0"
           style="fill:#cedc4e" />
        <path
           id="path4480"
           d="m 478.27,245.2 c 11.97,-2.28 23.21,5.32 30.02,14.56 3.75,4.69 4.77,10.72 6.48,16.31 1.09,3.54 0.63,7.28 0.47,10.91 -8.2,2.98 -17.09,-0.46 -23.45,-5.8 -9.66,-8.99 -15.45,-22.77 -13.52,-35.98 z"
           inkscape:connector-curvature="0"
           style="fill:#cedc4e" />
        <path
           id="path4482"
           d="m 577.6,260.53 c 9.98,-6.39 22.49,-9.95 34.25,-7.27 6.95,2.8 14.52,5.47 19.12,11.79 1.6,1.29 0.37,3.35 -0.16,4.87 -3.91,9.24 -12.58,15.46 -21.59,19.2 -15.75,5.65 -35.42,0.98 -45.61,-12.69 3.63,-6.13 7.93,-11.97 13.99,-15.9 z"
           inkscape:connector-curvature="0"
           style="fill:#cedc4e" />
        <path
           id="path4484"
           d="m 518.13,287.13 c -1.09,-12.47 5.9,-24.57 15.87,-31.72 7.48,3.14 14.34,7.93 19.02,14.63 5.18,7.99 7.97,17.76 6.29,27.26 -1.13,4.08 -3.4,7.7 -5.42,11.38 -2.12,3.94 -5.87,6.52 -9.12,9.44 -14.22,-3.19 -25.98,-16.26 -26.64,-30.99 z"
           inkscape:connector-curvature="0"
           style="fill:#cedc4e" />
        <path
           id="path4486"
           d="m 363.42,259.57 c 16.18,-7.94 38.32,3.89 40.62,21.76 -5.61,2.57 -11.72,4.72 -17.99,3.71 -7.43,-1.1 -15.36,-3.87 -19.99,-10.13 -2.92,-3.56 -6.06,-7.33 -6.45,-12.13 0.64,-1.6 2.42,-2.36 3.81,-3.21 z"
           inkscape:connector-curvature="0"
           style="fill:#cedc4e" />
        <path
           id="path4488"
           d="m 457.3,265.33 c 7.97,0.12 15.06,5.52 19.67,11.72 5.9,7.54 6.17,18.42 2.02,26.83 -2.2,5.45 -6.42,9.74 -11.05,13.22 -6.97,-2.29 -13.53,-6.26 -17.76,-12.39 -4.68,-6.4 -7.02,-14.8 -5.18,-22.62 2.67,-6.42 6.02,-13.16 12.3,-16.76 z"
           inkscape:connector-curvature="0"
           style="fill:#cedc4e" />
        <path
           id="path4490"
           d="m 319.45,268.14 c 13.73,-5.13 29.4,1 38.68,11.65 3.67,6.3 8.82,12.46 8.61,20.17 -4.94,4 -11.76,4.16 -17.7,2.8 -7.12,-1.17 -13.22,-5.51 -18.36,-10.35 -5.89,-6.76 -11.44,-14.94 -11.23,-24.27 z"
           inkscape:connector-curvature="0"
           style="fill:#cedc4e" />
        <path
           id="path4492"
           d="m 640.09,265.49 c 19.16,2.2 33.15,21.88 32.03,40.57 -0.38,3.2 -1.65,6.2 -2.92,9.14 -13.37,-3.19 -24.05,-13.64 -29.36,-26.08 -2.08,-4.39 -1.8,-9.39 -2.11,-14.12 -0.27,-3.36 1.23,-6.45 2.36,-9.51 z"
           inkscape:connector-curvature="0"
           style="fill:#cedc4e" />
        <path
           id="path4494"
           d="m 425.48,326.42 c -5.92,-10.88 -7.17,-24.61 -2.11,-36.05 13.68,1.81 22.94,14.84 25.38,27.61 0.54,7.25 0.63,14.86 -2.37,21.64 -8.98,0.52 -16.59,-5.86 -20.9,-13.2 z"
           inkscape:connector-curvature="0"
           style="fill:#cedc4e" />
        <path
           id="path4496"
           d="m 600.25,297.79 c 3.24,-3.96 8.85,-5.15 13.74,-5.54 14.77,-1.15 30.56,8.89 33.57,23.82 -8.14,4.2 -17.71,5.14 -26.46,2.4 -4.75,-1.64 -9.78,-3.54 -13.08,-7.52 -3.3,-3.88 -7.34,-7.76 -7.77,-13.16 z"
           inkscape:connector-curvature="0"
           style="fill:#cedc4e" />
        <path
           id="path4498"
           d="m 310.15,293.04 c 13.6,-0.39 26.88,8.6 33,20.71 2.17,4.69 4.05,9.93 3.01,15.16 -0.54,3.25 -0.99,6.52 -1.83,9.71 -1.1,3.4 -3.36,6.25 -5.28,9.22 -11.59,0.91 -23.05,-4.74 -30.11,-13.82 -8.7,-11.91 -8.1,-29.61 1.21,-40.98 z"
           inkscape:connector-curvature="0"
           style="fill:#cedc4e" />
        <path
           id="path4500"
           d="m 377.13,293 c 15.79,-2.64 32.75,5.61 40.08,19.9 3.09,4.78 2.47,10.7 2.64,16.12 0.23,4.71 -1.82,9.05 -3.35,13.38 -10.74,2.88 -22.79,0.58 -31.54,-6.32 -4.22,-3.56 -7.6,-8.15 -9.9,-13.16 -2.89,-8.08 -3.46,-17.15 -0.53,-25.3 0.66,-1.61 0.99,-3.66 2.6,-4.62 z"
           inkscape:connector-curvature="0"
           style="fill:#cedc4e" />
        <path
           id="path4502"
           d="m 492.94,293.39 c 13.42,1.23 22.4,13.93 25.39,26.11 0.91,7.67 1.01,15.77 -2.11,23.01 -8.87,0.55 -16.41,-5.7 -20.76,-12.89 -6.17,-10.88 -7.09,-24.6 -2.52,-36.23 z"
           inkscape:connector-curvature="0"
           style="fill:#cedc4e" />
        <path
           id="path4504"
           d="m 560.31,312.15 c 4.9,-9.54 14.32,-16.47 24.77,-18.72 5.7,10.23 0.78,22.93 -7.14,30.46 -4.89,3.88 -10.33,7.18 -16.46,8.65 -5,-5.64 -4.39,-14.03 -1.17,-20.39 z"
           inkscape:connector-curvature="0"
           style="fill:#cedc4e" />
        <path
           id="path4506"
           d="m 356.02,340.95 c -4.68,-8.91 -4.56,-20.2 0.43,-28.96 7.38,1.38 12.62,7.62 15.07,14.39 3.09,7.63 1.78,16.39 -1.68,23.66 -6.01,0.18 -11.01,-4.13 -13.82,-9.09 z"
           inkscape:connector-curvature="0"
           style="fill:#cedc4e" />
        <path
           id="path4508"
           d="m 588.73,318.26 c 5.58,-0.45 10.71,2.69 14.65,6.36 5.63,5.49 9.51,12.78 11.01,20.49 0.61,7.24 0.66,14.76 -2.21,21.58 -8.95,0.96 -16.64,-5.55 -20.95,-12.8 -5.88,-10.72 -7.39,-24.26 -2.5,-35.63 z"
           inkscape:connector-curvature="0"
           style="fill:#cedc4e" />
        <path
           id="path4510"
           d="m 531.19,321.13 c 4.21,-1.51 8.93,-0.3 12.57,2.08 4.6,3.1 7.94,7.72 10.59,12.52 2.54,4.49 3.11,9.69 4.24,14.63 0.9,3.77 0.59,7.66 0.31,11.48 -3.18,1.27 -6.85,2.15 -10.1,0.62 -8.17,-3.78 -13.26,-12.06 -15.71,-20.44 -2.13,-6.7 -3.34,-13.94 -1.9,-20.89 z"
           inkscape:connector-curvature="0"
           style="fill:#cedc4e" />
        <path
           id="path4512"
           d="m 464.27,331.32 c 3.91,-4.72 9.51,-7.43 14.98,-9.91 2.27,3.54 4.58,7.27 4.91,11.59 1.18,11.64 -3.29,24.11 -12.55,31.51 -3.49,3.86 -7.91,6.61 -12.79,8.34 -3.8,-3.61 -6.19,-8.57 -6.23,-13.86 -0.95,-10.48 4.38,-20.5 11.68,-27.67 z"
           inkscape:connector-curvature="0"
           style="fill:#cedc4e" />
        <path
           id="path4514"
           d="m 616.99,325.57 c 6.28,-3.94 14.24,-4.13 21.13,-1.75 7.1,2.46 13.83,6.79 17.86,13.27 3.13,3.96 5.23,8.56 6.64,13.39 -5.36,5.39 -13.71,5.17 -20.54,3.3 -12.38,-4.41 -21.77,-15.63 -25.09,-28.21 z"
           inkscape:connector-curvature="0"
           style="fill:#cedc4e" />
        <path
           id="path4516"
           d="m 673.74,343.29 c -3.8,-6.66 -4.2,-14.6 -2.98,-22.02 7.93,-0.31 14.6,5.22 18.42,11.72 3.97,6.28 4.03,14.11 3.07,21.24 -7.86,1.26 -15.07,-4.24 -18.51,-10.94 z"
           inkscape:connector-curvature="0"
           style="fill:#cedc4e" />
        <path
           id="path4518"
           d="m 294.35,374.67 c -7.61,-11.32 -9.16,-26.6 -3.8,-39.17 4.72,1.06 9.58,2.36 13.27,5.68 6.45,5.56 10.91,13.49 12.47,21.85 0.44,7.32 0.68,14.84 -1.86,21.84 -8.18,1.56 -15.47,-4.01 -20.08,-10.2 z"
           inkscape:connector-curvature="0"
           style="fill:#cedc4e" />
        <path
           id="path4520"
           d="m 381.86,345.04 c 13.52,1.28 22.54,14.11 25.44,26.42 0.77,7.53 0.99,15.48 -2.17,22.54 -8.77,0.74 -16.22,-5.39 -20.6,-12.43 -6.27,-10.96 -7.53,-24.8 -2.67,-36.53 z"
           inkscape:connector-curvature="0"
           style="fill:#cedc4e" />
        <path
           id="path4522"
           d="m 256.65,383.11 c -4.9,-11.84 -4.61,-26.2 2.08,-37.32 12.13,2.84 19.89,14.54 22.1,26.2 1.14,4.83 0.11,9.76 -0.36,14.6 -0.43,4.06 -1.55,8.3 -4.36,11.39 -8.98,0.09 -15.68,-7.49 -19.46,-14.87 z"
           inkscape:connector-curvature="0"
           style="fill:#cedc4e" />
        <path
           id="path4524"
           d="m 418.94,345.98 c 9.28,0.46 16.73,7.3 21.1,15.03 2.16,4.03 4.1,8.32 4.63,12.9 0.41,7.04 0.59,14.35 -2.32,20.94 -8.79,0.79 -16.36,-5.4 -20.68,-12.52 -6.28,-10.89 -7.27,-24.64 -2.73,-36.35 z"
           inkscape:connector-curvature="0"
           style="fill:#cedc4e" />
        <path
           id="path4526"
           d="m 328.5,355.55 c 8,-6.09 18.47,-9.33 28.49,-7.6 1.46,0.75 1.67,2.67 2.34,4.03 5.44,13.9 1.73,30.87 -9.15,41.13 -3.61,4.12 -9.21,5.15 -14.15,6.88 -4.46,1.67 -9.26,0.92 -13.88,0.66 -5.36,-8.41 -6.89,-19.08 -4.23,-28.68 1.66,-6.42 5.78,-11.96 10.58,-16.42 z"
           inkscape:connector-curvature="0"
           style="fill:#cedc4e" />
        <path
           id="path4528"
           d="m 557.7,377.7 c 4.05,-12.15 13.62,-22.68 25.87,-26.83 8.42,11.52 5.08,27.83 -3.18,38.48 -5.14,5.09 -10.32,10.65 -17.48,12.8 -6.81,-6.06 -7.42,-16.17 -5.21,-24.45 z"
           inkscape:connector-curvature="0"
           style="fill:#cedc4e" />
        <path
           id="path4530"
           d="m 478.25,386.08 c -2.9,-13.15 3.45,-27.96 15.38,-34.42 4.66,3.17 9.19,6.71 12.1,11.64 5.03,8.2 7.16,18.6 4.43,27.96 -3.07,6.63 -7.17,13.33 -14.03,16.59 -9,-3.95 -15.59,-12.27 -17.88,-21.77 z"
           inkscape:connector-curvature="0"
           style="fill:#cedc4e" />
        <path
           id="path4532"
           d="m 522.61,352.13 c 9.55,0.56 17.14,7.77 21.5,15.8 5.69,9.94 5.92,22.5 1.89,33.06 -8.8,0.84 -16.23,-5.38 -20.62,-12.41 -6.28,-10.93 -7.43,-24.7 -2.77,-36.45 z"
           inkscape:connector-curvature="0"
           style="fill:#cedc4e" />
        <path
           id="path4534"
           d="m 666.45,389.65 c -4.79,-12.18 -3.67,-26.62 3.29,-37.77 11.85,3.02 18.95,14.76 20.95,26.15 1.32,5.66 -0.29,11.36 -1.1,16.96 -0.47,3.62 -2.41,6.75 -4.09,9.91 -8.96,-0.3 -15.42,-7.75 -19.05,-15.25 z"
           inkscape:connector-curvature="0"
           style="fill:#cedc4e" />
        <path
           id="path4536"
           d="m 635.69,382.03 c 1.25,-9.58 6,-19.1 13.89,-24.89 8.91,6.68 9.58,19.66 5.71,29.29 -2.82,5.37 -5.64,10.96 -10.45,14.86 -7.55,-2.86 -10.11,-11.92 -9.15,-19.26 z"
           inkscape:connector-curvature="0"
           style="fill:#cedc4e" />
        <path
           id="path4538"
           d="m 617.44,368.66 c 4,-0.85 8.03,0.1 11.93,1.05 2.04,12.23 -3.47,24.96 -12.81,32.83 -8.2,7.27 -19.53,10.53 -30.37,9.02 2.1,-1.28 4.15,-2.63 6.19,-4.02 -3.05,-0.68 -6.15,-1.18 -9.28,-1.12 0.22,-13.66 8.9,-26.08 20.07,-33.38 4.15,-3 9.4,-3.4 14.27,-4.38 z"
           inkscape:connector-curvature="0"
           style="fill:#cedc4e" />
        <path
           id="path4540"
           d="m 717.63,369.67 c 3.47,-1.16 7.24,-2.03 10.9,-1.3 4.62,10.58 -0.89,22.21 -7.88,30.29 -4.2,5.68 -10.93,8.32 -17.17,11.06 -3,1.21 -6.27,1.38 -9.43,1.82 -2.65,-5.08 -3.38,-11.1 -1.4,-16.54 3.16,-12.17 13.84,-20.64 24.98,-25.33 z"
           inkscape:connector-curvature="0"
           style="fill:#cedc4e" />
        <path
           id="path4542"
           d="m 369.18,372.6 c 5.3,3.14 9.45,7.93 11.42,13.81 3.24,9.24 3.35,19.93 -1.36,28.71 -1.71,4.91 -4.56,9.26 -8.42,12.75 -8.33,-2.6 -12.66,-11.06 -14.34,-19.03 -1.77,-13.17 3,-27.11 12.7,-36.24 z"
           inkscape:connector-curvature="0"
           style="fill:#cedc4e" />
        <path
           id="path4544"
           d="m 282.39,391.32 c 13.98,-4.19 29.88,1 39.2,12.1 4.15,4.14 5.04,10.15 6.38,15.59 1,3.8 0.01,7.68 -0.56,11.46 -8.13,3.47 -17.6,3.13 -25.66,-0.38 -14.82,-5.79 -23.07,-23.56 -19.36,-38.77 z"
           inkscape:connector-curvature="0"
           style="fill:#cedc4e" />
        <path
           id="path4546"
           d="m 455.26,422.79 c -6.51,-10.01 -5.58,-23.88 1.54,-33.33 6.85,0.75 13.61,3.19 18.65,8.02 6.57,6.09 11.17,15.4 8.97,24.47 -0.4,4.68 -2.47,8.92 -5.05,12.76 -9.49,0.84 -18.77,-4.22 -24.11,-11.92 z"
           inkscape:connector-curvature="0"
           style="fill:#cedc4e" />
        <path
           id="path4548"
           d="m 718.83,407.84 c 13.47,-9.68 32.48,-11.57 47.32,-3.93 -0.59,9.33 -5.32,17.91 -12.19,24.12 -9.04,8.25 -21.44,13.93 -33.88,11.89 -5.51,0.23 -10.58,-1.85 -15.5,-4.04 -1.11,-11.2 5.8,-21.39 14.25,-28.04 z"
           inkscape:connector-curvature="0"
           style="fill:#cedc4e" />
        <path
           id="path4550"
           d="m 441.28,401.11 c 0.44,0.18 1.34,0.52 1.78,0.7 4.32,14.43 9.22,28.74 15.64,42.39 7.93,15.56 16.76,31.35 30.57,42.5 4.82,3.45 10.75,6.43 16.83,5.66 6.54,-2.5 10.21,-9.05 13.59,-14.78 8.77,-15.58 17.56,-31.23 28.28,-45.57 6.13,-6.6 11.69,-13.95 19.4,-18.83 4.55,-3.57 10.15,-5.5 15.73,-6.76 3.13,-0.06 6.23,0.44 9.28,1.12 -2.04,1.39 -4.09,2.74 -6.19,4.02 -13.52,8.28 -24.19,20.41 -33.56,33.04 -10.91,16 -19.61,33.64 -24.66,52.38 -3.21,12.09 -5.24,24.45 -6.79,36.85 -1.27,9.63 -0.84,19.38 -1.72,29.04 0.07,19.6 0.68,39.24 3.14,58.7 2.13,18.8 4.84,37.58 9.6,55.91 2.43,11.83 6.27,23.33 8.63,35.15 -3.6,0.1 -7.18,-1.4 -9.18,-4.46 -6.69,-9.39 -9.17,-20.94 -11.4,-32.05 -2.06,-7.45 -3.13,-15.11 -4.71,-22.66 -3.59,-0.08 -7.17,0.05 -10.76,0.13 -2.17,13.23 -3.94,26.88 -10.07,39 -2.64,4.74 -5.79,9.86 -11.12,11.88 -2.76,1.28 -5.85,1.13 -8.8,1.17 3.28,-10.5 7.31,-20.79 9.86,-31.52 9,-36.09 18.05,-72.71 18.04,-110.14 -0.39,-17.91 -4.06,-36.37 -14.28,-51.4 -4.73,-8.04 -11.24,-14.75 -16.81,-22.16 -7.74,-9.22 -14.6,-19.27 -19.78,-30.14 -5.6,-12.12 -8.37,-25.29 -10.02,-38.47 -0.23,-6.9 -1.53,-13.81 -0.52,-20.7 z"
           inkscape:connector-curvature="0"
           style="fill:#5d512e" />
        <path
           id="path4552"
           d="m 511.64,404.7 c 7.32,-3.19 15.56,-4.89 23.46,-3.05 2.08,5.51 4.78,11.21 3.79,17.26 -1.68,6.96 -5.01,13.7 -10.51,18.42 -3.66,3.45 -8.71,4.56 -13.37,5.99 -4.8,1.5 -10,1.66 -14.92,0.68 -6.17,-7.02 -7.29,-17.69 -3.04,-25.96 3.16,-5.91 8.28,-10.92 14.59,-13.34 z"
           inkscape:connector-curvature="0"
           style="fill:#cedc4e" />
        <path
           id="path4554"
           d="m 222.32,406.72 c 12.56,-7.32 28.49,-6.33 41.35,-0.32 4.88,2.1 8.3,6.29 11.78,10.13 2.28,2.48 3.23,5.79 4.42,8.87 -7.75,6.49 -18.52,7.22 -28.12,5.8 -12.95,-2.59 -25.68,-11.3 -29.43,-24.48 z"
           inkscape:connector-curvature="0"
           style="fill:#cedc4e" />
        <path
           id="path4556"
           d="m 400.52,437.4 c -6.55,-10.65 -5.08,-24.96 2.41,-34.75 7.9,0.72 15.72,3.47 21.6,8.94 7.03,6.4 12.26,16.25 9.81,25.93 -0.39,5.25 -2.79,9.93 -5.81,14.13 -10.99,0.77 -22.19,-4.91 -28.01,-14.25 z"
           inkscape:connector-curvature="0"
           style="fill:#cedc4e" />
        <path
           id="path4558"
           d="m 340.01,438.06 c -5.12,-10.35 -6.23,-22.96 -1.74,-33.72 8.09,1.14 14.51,7.06 18.25,14.04 5.66,9.66 5.55,21.75 2.41,32.22 -8.37,0.77 -15.26,-5.63 -18.92,-12.54 z"
           inkscape:connector-curvature="0"
           style="fill:#cedc4e" />
        <path
           id="path4560"
           d="m 606.9,419.81 c 6.64,-10.98 20.77,-15.6 33,-13.67 1.97,1.6 2.46,4.44 3.27,6.76 2.89,10.75 -2.77,22.54 -12.19,28.05 -6.92,3.11 -14.59,4.53 -22.15,3.58 -5.28,-6.96 -6.37,-17.08 -1.93,-24.72 z"
           inkscape:connector-curvature="0"
           style="fill:#cedc4e" />
        <path
           id="path4562"
           d="m 656.04,407.21 c 4.81,-1.7 10.04,-2.5 15.05,-1.13 10.1,2.51 19.6,9.1 24.12,18.67 2.73,4.29 4.46,9.13 4.73,14.24 -8.22,4.92 -18.83,2.66 -26.32,-2.57 -9.46,-6.73 -16.78,-17.41 -17.58,-29.21 z"
           inkscape:connector-curvature="0"
           style="fill:#cedc4e" />
        <path
           id="path4564"
           d="m 382.09,424.86 c 7.5,2.67 12.97,9.28 15.33,16.75 1.82,5.85 3.1,12.09 2.2,18.22 -1.55,7.03 -3.65,14.16 -8.34,19.79 -9.46,-1.83 -15.01,-10.94 -17.33,-19.58 -2.38,-12.06 -0.16,-25.74 8.14,-35.18 z"
           inkscape:connector-curvature="0"
           style="fill:#cedc4e" />
        <path
           id="path4566"
           d="m 582.66,432.73 c 4.85,-2.28 10.28,-2.59 15.55,-2.64 3.24,13.46 -5.4,26.73 -16.48,33.65 -6.54,3.19 -13.56,5.94 -20.97,5.72 -2.04,-5.05 -2.25,-10.82 -0.15,-15.89 3.61,-9.93 12.54,-16.92 22.05,-20.84 z"
           inkscape:connector-curvature="0"
           style="fill:#cedc4e" />
        <path
           id="path4568"
           d="m 637.36,450.01 c -0.56,-7.4 1.7,-14.89 6.23,-20.76 8.72,1.43 17.42,4.18 24.37,9.83 8.12,6.57 15.07,15.39 16.99,25.87 0.36,4.2 -0.41,8.41 -0.7,12.61 -0.32,4.43 -3.01,8.11 -5.13,11.84 -13.16,0.29 -25.76,-6.43 -33.96,-16.49 -4.67,-6.67 -8.18,-14.6 -7.8,-22.9 z"
           inkscape:connector-curvature="0"
           style="fill:#cedc4e" />
        <path
           id="path4570"
           d="m 285.77,436.25 c 12.05,-3.6 26.04,-2.09 36.33,5.44 -1.65,3.35 -2.96,7.02 -5.75,9.64 -6.9,6.8 -16.74,10.38 -26.36,10.33 -7.47,-1.04 -15.35,-1.98 -21.58,-6.64 0.95,-9.29 9.15,-15.76 17.36,-18.77 z"
           inkscape:connector-curvature="0"
           style="fill:#cedc4e" />
        <path
           id="path4572"
           d="m 468.56,441.89 c 7.23,-2.88 16.56,-2.47 22.26,3.35 3.92,3.84 4.89,9.71 3.5,14.89 -5.97,1.2 -12.53,1.87 -18,-1.38 -6.47,-2.52 -9.96,-10.34 -7.76,-16.86 z"
           inkscape:connector-curvature="0"
           style="fill:#cedc4e" />
        <path
           id="path4574"
           d="m 553.29,454.23 c 2.52,-4.45 5.42,-8.71 9.07,-12.33 0.1,0.37 0.29,1.12 0.38,1.49 l -0.8,0.17 c -3.06,6.24 -5.35,12.79 -8.15,19.15 -6.87,15.81 -11.68,32.43 -15.43,49.24 -1.5,9.86 -4.4,20 -1.78,29.93 2.02,-0.14 4.29,0.2 6,-1.16 6.58,-4.76 11.45,-11.38 16.83,-17.38 10.38,-12.56 21.85,-24.71 36.43,-32.41 3.49,-1.97 7.13,-3.78 11.1,-4.58 -11.21,13.16 -27.31,20.96 -38.15,34.48 -7.82,8.16 -13.5,18.14 -17.65,28.59 -1.1,2.89 -2.12,5.81 -3.05,8.76 -3.24,9.93 -4.34,20.38 -5.07,30.76 -0.96,11.33 -0.31,22.73 1.2,33.98 0.94,7.65 3.45,14.98 5.68,22.32 2.54,7.94 7.11,15.46 14.26,20.03 -3.31,0.57 -6.72,1.92 -10.07,1.17 -6.12,-6.75 -9.79,-15.51 -11.53,-24.38 -1.69,-8.37 -3.56,-16.72 -4.49,-25.21 -1.92,1.76 -3.86,3.5 -5.82,5.23 2.02,20.73 6.43,41.45 15.12,60.48 1.44,2.88 2.94,5.76 3.61,8.94 -0.51,0.02 -1.52,0.05 -2.03,0.07 -1.25,0.65 -2.55,1.21 -3.82,1.82 -0.76,0.01 -2.3,0.04 -3.06,0.05 -2.82,-10.12 -5.21,-20.36 -8.5,-30.34 -3.15,-10.82 -4.7,-21.99 -6.5,-33.08 -3.35,-18.17 -4.68,-36.63 -5.32,-55.07 -0.14,-7.35 -0.28,-14.72 0.7,-22.02 0.51,-16.26 3.42,-32.34 7.53,-48.04 5.58,-17.76 12.87,-35.18 23.31,-50.66 z"
           inkscape:connector-curvature="0"
           style="fill:#5d512e" />
        <path
           id="path4576"
           d="m 710,451.15 c 14.49,-9.41 37.81,-2.07 42.57,15.03 -8.01,3.83 -17.41,4.33 -25.77,1.33 -7.75,-2.3 -14.6,-8.49 -16.8,-16.36 z"
           inkscape:connector-curvature="0"
           style="fill:#cedc4e" />
        <path
           id="path4578"
           d="m 597.42,464.32 c 4.19,-6.42 10.13,-11.97 17.43,-14.59 1.29,2.57 2.85,5.31 2.32,8.31 -1.38,10.25 -9.04,18.62 -17.95,23.24 -2.17,1.46 -4.29,-0.82 -4.84,-2.82 -1.69,-4.85 0.62,-9.96 3.04,-14.14 z"
           inkscape:connector-curvature="0"
           style="fill:#cedc4e" />
        <path
           id="path4580"
           d="m 504.4,455.66 c 5.01,-1.54 11.69,-0.04 13.66,5.34 2.39,8.67 -3.85,17.82 -12.11,20.45 -7.12,2.79 -15.5,-4.03 -14.86,-11.51 0,-7.34 6.57,-12.84 13.31,-14.28 z"
           inkscape:connector-curvature="0"
           style="fill:#5d512e" />
        <path
           id="path4582"
           d="m 321.43,457.2 c 3.82,-1.08 7.83,-1.82 11.81,-1.42 1.78,3.51 1.33,7.8 1.24,11.65 -1.47,12.16 -8.59,23.35 -18.22,30.75 -7.15,3.54 -14.46,7.87 -22.77,7.18 -2.91,-6.63 -2.7,-14.29 -0.08,-20.98 4.3,-12.9 15.42,-22.68 28.02,-27.18 z"
           inkscape:connector-curvature="0"
           style="fill:#cedc4e" />
        <path
           id="path4584"
           d="m 352.54,462.4 c 4.7,-3.59 10.4,-5.59 16.21,-6.44 5.9,12.45 -0.46,27.06 -9.8,35.94 -5.94,4.21 -12.27,8.78 -19.78,9.32 -3.35,-4.29 -4.16,-10.1 -3.01,-15.33 1.58,-9.82 8.41,-17.96 16.38,-23.49 z"
           inkscape:connector-curvature="0"
           style="fill:#cedc4e" />
        <path
           id="path4586"
           d="m 408.19,465.11 c 4.03,-3.45 9.68,-4.13 14.77,-3.39 7.26,1.18 14.05,4.91 19.11,10.23 4.49,5.4 8.21,11.55 9.87,18.44 -5.78,6.16 -15.49,5.56 -22.58,2.2 -10.61,-5.41 -18.6,-15.88 -21.17,-27.48 z"
           inkscape:connector-curvature="0"
           style="fill:#cedc4e" />
        <path
           id="path4588"
           d="m 688.18,465.69 c 10.22,-6.23 23.26,-2.82 32.51,3.63 4.73,2.91 7.71,7.7 10.83,12.14 2.17,3 3.18,6.61 4.33,10.09 -6.05,5.52 -15.11,5.1 -22.42,2.75 -12.31,-4.79 -22.04,-15.78 -25.25,-28.61 z"
           inkscape:connector-curvature="0"
           style="fill:#cedc4e" />
        <path
           id="path4590"
           d="m 624.64,503.39 c -6.54,-11.03 -5.49,-25.5 1.36,-36.14 17.29,0.77 31.84,18.77 28.08,35.83 -0.37,4.9 -2.55,9.33 -5.08,13.45 -9.81,0.69 -19.26,-4.94 -24.36,-13.14 z"
           inkscape:connector-curvature="0"
           style="fill:#cedc4e" />
        <path
           id="path4592"
           d="m 448.04,468.77 c 12.29,18.15 30.9,31.41 41.08,51.07 3.7,8.31 7.28,16.9 8.22,26.04 2.37,12.87 2.75,26.1 1.36,39.11 -1.36,19.96 -5.24,39.66 -10.2,59.02 -3.28,12.44 -6.4,24.98 -11.47,36.85 -1.7,3.92 -3.14,8.1 -5.99,11.38 -2.2,-0.37 -4.36,-0.83 -6.53,-1.21 -0.09,-0.5 -0.26,-1.52 -0.34,-2.02 7.99,-10.77 13.14,-23.41 16.12,-36.43 1.95,-7.8 3.71,-15.69 4.48,-23.7 0.34,-1.79 -1.77,-2.3 -2.86,-3.14 -2.37,14.71 -4.85,30.6 -14.98,42.24 -2.33,3.14 -6.67,1.28 -9.9,1.23 10.34,-11.37 14.57,-26.58 18.19,-41.14 2.28,-11.8 4.24,-23.88 2.8,-35.91 -1.7,-8.36 -4.89,-16.44 -9.75,-23.48 -3.78,-6.9 -9.67,-12.22 -15.34,-17.53 -9.89,-7.25 -19.87,-14.41 -29.27,-22.29 -3.44,-2.83 -6.71,-5.84 -9.83,-9.01 -4.28,-4.68 -8.8,-9.42 -11.25,-15.37 -2.25,-5.12 -5.17,-10.02 -6.4,-15.53 2.66,3.07 4.72,6.57 7.08,9.86 0.21,0.27 0.63,0.81 0.84,1.08 5.27,6.33 10.77,12.56 17.35,17.57 9.49,7.21 19.23,14.09 28.75,21.27 5.47,3.9 10.7,8.19 16.53,11.57 2.17,1.46 4.84,1.3 7.34,1.18 1.91,-6.33 1.66,-12.97 2.12,-19.49 -0.51,-11.87 -4.42,-23.48 -10.69,-33.54 -5.01,-8.6 -11.2,-16.49 -15.8,-25.32 -0.48,-1.49 -1.17,-2.89 -1.66,-4.36 z"
           inkscape:connector-curvature="0"
           style="fill:#5d512e" />
        <path
           id="path4594"
           d="m 565.46,483.33 c 3.55,-10.1 14.97,-15.2 25.11,-15 2.18,5.87 0.95,12.51 -2.81,17.45 -4.71,7.04 -13.58,10.07 -21.75,9.7 -1.41,-3.89 -2.23,-8.19 -0.55,-12.15 z"
           inkscape:connector-curvature="0"
           style="fill:#cedc4e" />
        <path
           id="path4596"
           d="m 401.39,488.24 c 5.98,-4.02 15.24,-1.68 18.62,4.72 1.9,2.99 1.76,6.63 1.81,10.03 -5.9,2.38 -13.14,1.5 -17.72,-3.1 -0.21,-0.27 -0.63,-0.81 -0.84,-1.08 -1.86,-3.07 -3.2,-7.06 -1.87,-10.57 z"
           inkscape:connector-curvature="0"
           style="fill:#cedc4e" />
        <path
           id="path4598"
           d="m 607.77,516.32 c -4.4,-7.03 -5.85,-15.97 -3.46,-23.95 7.48,0.57 14.01,5.27 17.73,11.65 4.19,6.31 4.17,14.25 3.33,21.5 -7.23,1.38 -13.92,-3.32 -17.6,-9.2 z"
           inkscape:connector-curvature="0"
           style="fill:#cedc4e" />
        <path
           id="path4600"
           d="m 353.73,504.74 c 10.93,-8.45 26.45,-10.15 39.02,-4.52 3.85,1.83 6.94,4.84 9.94,7.8 -4.5,14.72 -16.72,26.37 -31.14,31.34 -5.13,1.58 -10.74,3.23 -16.02,1.33 -5.29,-1.85 -11.45,-2.32 -15.56,-6.53 -1.2,-1.27 -2.91,-2.34 -3.36,-4.1 1.58,-10.46 8.84,-19.18 17.12,-25.32 z"
           inkscape:connector-curvature="0"
           style="fill:#cedc4e" />
        <path
           id="path4602"
           d="m 658.21,510.22 c 7.13,-6.84 15.85,-12.37 25.76,-13.94 3.31,4.57 5.93,9.86 5.7,15.66 -0.12,9.53 -4.51,18.87 -11.46,25.34 -6.69,5.08 -13.99,9.67 -22.39,11.19 -4.68,-4.14 -7.68,-10.11 -7.33,-16.45 -0.3,-8.35 4.29,-15.84 9.72,-21.8 z"
           inkscape:connector-curvature="0"
           style="fill:#cedc4e" />
        <path
           id="path4604"
           d="m 430.34,501.2 c 8.11,-3.79 19.68,-2.38 24.54,5.84 2.41,3.59 2.33,8.06 1.45,12.14 -6.23,1.35 -13.11,1.8 -18.74,-1.75 -6.06,-2.65 -8.86,-10.02 -7.25,-16.23 z"
           inkscape:connector-curvature="0"
           style="fill:#cedc4e" />
        <path
           id="path4606"
           d="m 312.31,501.49 c 6.7,-3.1 15.29,-2.9 21,2.13 4.27,3.53 5.71,9.3 5.09,14.64 -7.54,2.8 -16.85,1.85 -22.64,-4.09 -3.33,-3.29 -3.71,-8.27 -3.45,-12.68 z"
           inkscape:connector-curvature="0"
           style="fill:#cedc4e" />
        <path
           id="path4608"
           d="m 708.27,503.45 c 10.25,-0.97 21.25,0.43 29.93,6.34 5.52,5.19 12.41,9.9 14,17.85 -7.18,7.04 -17.68,8.95 -27.38,8 -10.35,-1.43 -19.94,-6.81 -26.87,-14.57 -2.79,-3.17 -5.02,-6.84 -5.94,-10.99 4.93,-3.24 10.31,-5.95 16.26,-6.63 z"
           inkscape:connector-curvature="0"
           style="fill:#cedc4e" />
        <path
           id="path4610"
           d="m 546.33,510.24 c 2.73,-1.48 6.71,-0.98 8.54,1.72 3.07,4.17 1.75,9.91 -0.38,14.21 -1.92,4.23 -5.52,8.44 -10.5,8.66 -4.59,-0.47 -6.54,-5.84 -6.43,-9.85 0.48,-5.84 3.43,-11.9 8.77,-14.74 z"
           inkscape:connector-curvature="0"
           style="fill:#5d512e" />
        <path
           id="path4612"
           d="m 586.74,517.8 c 8.77,-2.79 19.38,0.25 25.05,7.56 -1.05,9.84 -10.11,17.44 -19.59,18.84 10.86,0.53 20.88,6.73 27.49,15.15 3.85,6.74 7.42,13.92 7.76,21.84 -7.18,4.61 -16.51,2.83 -23.5,-1.25 -11.68,-7.11 -19.39,-20.27 -20.15,-33.89 1.9,-0.4 3.81,-0.79 5.73,-1.15 -6.38,-1.44 -12.88,-3.79 -17.25,-8.9 1.1,-8.09 6.67,-15.51 14.46,-18.2 z"
           inkscape:connector-curvature="0"
           style="fill:#cedc4e" />
        <path
           id="path4614"
           d="m 395.55,529.5 c 4.49,-5.33 11.35,-7.53 17.48,-10.35 l 0.8,0.7 c 3.12,3.17 6.39,6.18 9.83,9.01 0.54,4.43 -1.31,8.85 -3,12.88 -6.91,12.09 -20.13,21.43 -34.39,21.15 -4.02,-11.83 1.24,-24.58 9.28,-33.39 z"
           inkscape:connector-curvature="0"
           style="fill:#cedc4e" />
        <path
           id="path4616"
           d="m 460.39,526.64 c 4.73,-2.78 11.11,-0.33 13.16,4.65 2.13,5.3 1.76,12.74 -3.45,16.18 -11.13,3.82 -19.48,-14.86 -9.71,-20.83 z"
           inkscape:connector-curvature="0"
           style="fill:#5d512e" />
        <path
           id="path4618"
           d="m 607.96,537.13 c 12.23,-8.14 29.82,-3.93 38.87,7.09 1.82,2.31 2.71,5.17 3.71,7.9 -8.07,3.79 -17.5,4.32 -25.89,1.27 -7.71,-2.29 -14.39,-8.5 -16.69,-16.26 z"
           inkscape:connector-curvature="0"
           style="fill:#cedc4e" />
        <path
           id="path4620"
           d="m 422.41,560.01 c 0.86,-6.87 2.34,-14.03 6.84,-19.53 9.14,2.72 15.31,11.14 18.22,19.85 3.32,11.24 2.61,24.79 -5.39,33.96 -12.81,-6.01 -19.51,-20.66 -19.67,-34.28 z"
           inkscape:connector-curvature="0"
           style="fill:#cedc4e" />
        <path
           id="path4622"
           d="m 551.14,549.42 c 10.48,-1.63 21.03,2.67 28.56,9.87 3.73,3.17 5.84,7.66 8.16,11.86 1.87,3.46 3.32,7.4 2.81,11.39 -6.29,4.44 -14.69,3.06 -21.32,0.16 -10.08,-4.84 -17.19,-14.31 -21.26,-24.52 0.93,-2.95 1.95,-5.87 3.05,-8.76 z"
           inkscape:connector-curvature="0"
           style="fill:#cedc4e" />
        <path
           style="fill:#cedc4e"
           inkscape:connector-curvature="0"
           id="path4624"
           d="m 432.04,727.58 c 6.65,-1.3 13.69,1.95 17.56,7.4 2.82,3.79 2.58,9.01 1.25,13.34 -0.63,2.68 -4.09,2.22 -6.2,2.21 -6,-0.14 -11.33,-4.23 -13.67,-9.63 -1.21,-4.32 -1.44,-9.41 1.06,-13.32 z" />
        <text
           sodipodi:linespacing="125%"
           id="text4626"
           y="683.41107"
           x="39.676071"
           style="font-style:normal;font-weight:normal;font-size:32px;line-height:125%;font-family:sans-serif;letter-spacing:0px;word-spacing:0px;fill:#5d512e;fill-opacity:1;stroke:none;stroke-width:1px;stroke-linecap:butt;stroke-linejoin:miter;stroke-opacity:1"
           xml:space="preserve"><tspan
             style="font-style:normal;font-variant:normal;font-weight:normal;font-stretch:normal;font-size:70px;font-family:Stentiga;-inkscape-font-specification:Stentiga;fill:#5d512e;fill-opacity:1"
             y="683.41107"
             x="39.676071"
             id="tspan4628"
             sodipodi:role="line">PLANTEAZA</tspan></text>
        <text
           sodipodi:linespacing="125%"
           id="text4630"
           y="684.85168"
           x="584.85596"
           style="font-style:normal;font-weight:normal;font-size:32px;line-height:125%;font-family:sans-serif;letter-spacing:0px;word-spacing:0px;fill:#5d512e;fill-opacity:1;stroke:none;stroke-width:1px;stroke-linecap:butt;stroke-linejoin:miter;stroke-opacity:1"
           xml:space="preserve"><tspan
             style="font-style:normal;font-variant:normal;font-weight:normal;font-stretch:normal;font-size:70px;font-family:Stentiga;-inkscape-font-specification:Stentiga;letter-spacing:8px;fill:#5d512e;fill-opacity:1"
             y="684.85168"
             x="584.85596"
             id="tspan4632"
             sodipodi:role="line">ROMANIA</tspan></text>
        <text
           sodipodi:linespacing="125%"
           id="text4634"
           y="747.75281"
           x="460.68216"
           style="font-style:normal;font-weight:normal;font-size:30px;line-height:125%;font-family:sans-serif;letter-spacing:0px;word-spacing:0px;fill:#cedc4e;fill-opacity:1;stroke:none;stroke-width:1px;stroke-linecap:butt;stroke-linejoin:miter;stroke-opacity:1"
           xml:space="preserve"><tspan
             style="font-style:normal;font-variant:normal;font-weight:normal;font-stretch:normal;font-size:32px;font-family:Stentiga;-inkscape-font-specification:Stentiga;fill:#cedc4e;fill-opacity:1"
             y="747.75281"
             x="460.68216"
             id="tspan4636"
             sodipodi:role="line">PENTRU</tspan></text>
      </g>
      <path
         style="fill:#ddef45;fill-opacity:1"
         inkscape:connector-curvature="0"
         d="m 249.86448,228.56837 c 7.55,-3.725 16.15,-3.725 24.35,-3.0125 9.075,18.2875 5.1125,42.175 -10.1125,55.9625 -4.5375,4.6125 -11.125,5.825 -16.9875,7.9125 -5.3375,1.9375 -11.0625,0.9625 -16.575,0.725 -6.05,-9.2875 -8.0375,-20.825 -5.7375,-31.65 2.2,-13.5125 12.3125,-25.1875 25.0625,-29.9375 z"
         id="path4640" />
      <path
         style="fill:#ddef45;fill-opacity:1"
         inkscape:connector-curvature="0"
         d="m 286.08948,242.69337 c 5.2625,-4.1625 11.975,-6.4125 18.7125,-5.6125 14.6375,1 27.1,10.8 35.325,22.4125 2.5875,4.275 5.1875,8.8375 5.825,13.875 -2.0875,2.325 -5.4125,3.25 -8.3375,4.1125 -13.1875,2.575 -26.8875,-2.5375 -36.9875,-10.9625 -6.3125,-6.875 -12.5375,-14.45 -14.5375,-23.825 z"
         id="path4642" />
      <path
         style="fill:#c3d237;fill-opacity:1"
         inkscape:connector-curvature="0"
         d="m 40.48948,245.31837 c 11.25,-1.825 23.15,-1.075 33.5,4.0125 11.625,5.4875 22.125,14.475 27.275,26.4625 1.675,5.275 2.2,10.85 3.0375,16.3125 0.925,5.85 -0.9125,11.5875 -2.4625,17.15 -10.9375,3.4375 -23.0375,3.2 -33.5,-1.6875 -23.9,-8.825 -36.65,-38.625 -27.85,-62.25 z"
         id="path4644" />
      <path
         style="fill:#c3d237;fill-opacity:1"
         inkscape:connector-curvature="0"
         d="m 143.90198,270.03087 c 14.9625,-2.85 29.0125,6.65 37.525,18.2 4.6875,5.8625 5.9625,13.4 8.1,20.3875 1.3625,4.425 0.7875,9.1 0.5875,13.6375 -10.25,3.725 -21.3625,-0.575 -29.3125,-7.25 -12.075,-11.2375 -19.3125,-28.4625 -16.9,-44.975 z"
         id="path4646" />
      <path
         style="fill:#c3d237;fill-opacity:1"
         inkscape:connector-curvature="0"
         d="m 268.06448,289.19337 c 12.475,-7.9875 28.1125,-12.4375 42.8125,-9.0875 8.6875,3.5 18.15,6.8375 23.9,14.7375 2,1.6125 0.4625,4.1875 -0.2,6.0875 -4.8875,11.55 -15.725,19.325 -26.9875,24 -19.6875,7.0625 -44.275,1.225 -57.0125,-15.8625 4.5375,-7.6625 9.9125,-14.9625 17.4875,-19.875 z"
         id="path4648" />
      <path
         style="fill:#c3d237;fill-opacity:1"
         inkscape:connector-curvature="0"
         d="m 193.72698,322.44337 c -1.3625,-15.5875 7.375,-30.7125 19.8375,-39.65 9.35,3.925 17.925,9.9125 23.775,18.2875 6.475,9.9875 9.9625,22.2 7.8625,34.075 -1.4125,5.1 -4.25,9.625 -6.775,14.225 -2.65,4.925 -7.3375,8.15 -11.4,11.8 -17.775,-3.9875 -32.475,-20.325 -33.3,-38.7375 z"
         id="path4650" />
      <path
         style="fill:#c3d237;fill-opacity:1"
         inkscape:connector-curvature="0"
         d="m 0.33948,287.99337 c 20.225,-9.925 47.9,4.8625 50.775,27.2 -7.0125,3.2125 -14.65,5.9 -22.4875,4.6375 -9.2875,-1.375 -19.2,-4.8375 -24.9875,-12.6625 -3.65,-4.45 -7.575,-9.1625 -8.0625,-15.1625 0.8,-2 3.025,-2.95 4.7625,-4.0125 z"
         id="path4652" />
      <path
         style="fill:#ddef45;fill-opacity:1"
         inkscape:connector-curvature="0"
         d="m 117.68948,295.19337 c 9.9625,0.15 18.825,6.9 24.5875,14.65 7.375,9.425 7.7125,23.025 2.525,33.5375 -2.75,6.8125 -8.025,12.175 -13.8125,16.525 -8.7125,-2.8625 -16.9125,-7.825 -22.2,-15.4875 -5.85,-8 -8.775,-18.5 -6.475,-28.275 3.3375,-8.025 7.525,-16.45 15.375,-20.95 z"
         id="path4654" />
      <path
         style="fill:#c3d237;fill-opacity:1"
         inkscape:connector-curvature="0"
         d="m -54.62302,298.70587 c 17.1625,-6.4125 36.75,1.25 48.35,14.5625 4.5875,7.875 11.025,15.575 10.7625,25.2125 -6.175,5 -14.7,5.2 -22.125,3.5 -8.9,-1.4625 -16.525,-6.8875 -22.95,-12.9375 -7.3625,-8.45 -14.3,-18.675 -14.0375,-30.3375 z"
         id="path4656" />
      <path
         style="fill:#c3d237;fill-opacity:1"
         inkscape:connector-curvature="0"
         d="m 346.17698,295.39337 c 23.95,2.75 41.4375,27.35 40.0375,50.7125 -0.475,4 -2.0625,7.75 -3.65,11.425 -16.7125,-3.9875 -30.0625,-17.05 -36.7,-32.6 -2.6,-5.4875 -2.25,-11.7375 -2.6375,-17.65 -0.3375,-4.2 1.5375,-8.0625 2.95,-11.8875 z"
         id="path4658" />
      <path
         style="fill:#ddef45;fill-opacity:1"
         inkscape:connector-curvature="0"
         d="m 77.91448,371.55587 c -7.4,-13.6 -8.9625,-30.7625 -2.6375,-45.0625 17.1,2.2625 28.675,18.55 31.725,34.5125 0.675,9.0625 0.7875,18.575 -2.9625,27.05 -11.225,0.65 -20.7375,-7.325 -26.125,-16.5 z"
         id="path4660" />
      <path
         style="fill:#c3d237;fill-opacity:1"
         inkscape:connector-curvature="0"
         d="m 296.37698,335.76837 c 4.05,-4.95 11.0625,-6.4375 17.175,-6.925 18.4625,-1.4375 38.2,11.1125 41.9625,29.775 -10.175,5.25 -22.1375,6.425 -33.075,3 -5.9375,-2.05 -12.225,-4.425 -16.35,-9.4 -4.125,-4.85 -9.175,-9.7 -9.7125,-16.45 z"
         id="path4662" />
      <path
         style="fill:#ddef45;fill-opacity:1"
         inkscape:connector-curvature="0"
         d="m -66.24802,329.83087 c 17,-0.4875 33.6,10.75 41.25,25.8875 2.7125,5.8625 5.0625,12.4125 3.7625,18.95 -0.675,4.0625 -1.2375,8.15 -2.2875,12.1375 -1.375,4.25 -4.2,7.8125 -6.6,11.525 -14.4875,1.1375 -28.8125,-5.925 -37.6375,-17.275 -10.875,-14.8875 -10.125,-37.0125 1.5125,-51.225 z"
         id="path4664" />
      <path
         style="fill:#c3d237;fill-opacity:1"
         inkscape:connector-curvature="0"
         d="m 17.47698,329.78087 c 19.7375,-3.3 40.9375,7.0125 50.1,24.875 3.8625,5.975 3.0875,13.375 3.3,20.15 0.2875,5.8875 -2.275,11.3125 -4.1875,16.725 -13.425,3.6 -28.4875,0.725 -39.425,-7.9 -5.275,-4.45 -9.5,-10.1875 -12.375,-16.45 -3.6125,-10.1 -4.325,-21.4375 -0.6625,-31.625 0.825,-2.0125 1.2375,-4.575 3.25,-5.775 z"
         id="path4666" />
      <path
         style="fill:#ddef45;fill-opacity:1"
         inkscape:connector-curvature="0"
         d="m 162.23948,330.26837 c 16.775,1.5375 28,17.4125 31.7375,32.6375 1.1375,9.5875 1.2625,19.7125 -2.6375,28.7625 -11.0875,0.6875 -20.5125,-7.125 -25.95,-16.1125 -7.7125,-13.6 -8.8625,-30.75 -3.15,-45.2875 z"
         id="path4668" />
      <path
         style="fill:#ddef45;fill-opacity:1"
         inkscape:connector-curvature="0"
         d="m 246.45198,353.71837 c 6.125,-11.925 17.9,-20.5875 30.9625,-23.4 7.125,12.7875 0.975,28.6625 -8.925,38.075 -6.1125,4.85 -12.9125,8.975 -20.575,10.8125 -6.25,-7.05 -5.4875,-17.5375 -1.4625,-25.4875 z"
         id="path4670" />
      <path
         style="fill:#c3d237;fill-opacity:1"
         inkscape:connector-curvature="0"
         d="m -8.91052,389.71837 c -5.85,-11.1375 -5.7,-25.25 0.5375,-36.2 9.225,1.725 15.775,9.525 18.8375,17.9875 3.8625,9.5375 2.225,20.4875 -2.1,29.575 -7.5125,0.225 -13.7625,-5.1625 -17.275,-11.3625 z"
         id="path4672" />
      <path
         style="fill:#ddef45;fill-opacity:1"
         inkscape:connector-curvature="0"
         d="m 281.97698,361.35587 c 6.975,-0.5625 13.3875,3.3625 18.3125,7.95 7.0375,6.8625 11.8875,15.975 13.7625,25.6125 0.7625,9.05 0.825,18.45 -2.7625,26.975 -11.1875,1.2 -20.8,-6.9375 -26.1875,-16 -7.35,-13.4 -9.2375,-30.325 -3.125,-44.5375 z"
         id="path4674" />
      <path
         style="fill:#c3d237;fill-opacity:1"
         inkscape:connector-curvature="0"
         d="m 210.05198,364.94337 c 5.2625,-1.8875 11.1625,-0.375 15.7125,2.6 5.75,3.875 9.925,9.65 13.2375,15.65 3.175,5.6125 3.8875,12.1125 5.3,18.2875 1.125,4.7125 0.7375,9.575 0.3875,14.35 -3.975,1.5875 -8.5625,2.6875 -12.625,0.775 -10.2125,-4.725 -16.575,-15.075 -19.6375,-25.55 -2.6625,-8.375 -4.175,-17.425 -2.375,-26.1125 z"
         id="path4676" />
      <path
         style="fill:#c3d237;fill-opacity:1"
         inkscape:connector-curvature="0"
         d="m 126.40198,377.68087 c 4.8875,-5.9 11.8875,-9.2875 18.725,-12.3875 2.8375,4.425 5.725,9.0875 6.1375,14.4875 1.475,14.55 -4.1125,30.1375 -15.6875,39.3875 -4.3625,4.825 -9.8875,8.2625 -15.9875,10.425 -4.75,-4.5125 -7.7375,-10.7125 -7.7875,-17.325 -1.1875,-13.1 5.475,-25.625 14.6,-34.5875 z"
         id="path4678" />
      <path
         style="fill:#ddef45;fill-opacity:1"
         inkscape:connector-curvature="0"
         d="m 317.30198,370.49337 c 7.85,-4.925 17.8,-5.1625 26.4125,-2.1875 8.875,3.075 17.2875,8.4875 22.325,16.5875 3.9125,4.95 6.5375,10.7 8.3,16.7375 -6.7,6.7375 -17.1375,6.4625 -25.675,4.125 -15.475,-5.5125 -27.2125,-19.5375 -31.3625,-35.2625 z"
         id="path4680" />
      <path
         style="fill:#ddef45;fill-opacity:1"
         inkscape:connector-curvature="0"
         d="m 388.23948,392.64337 c -4.75,-8.325 -5.25,-18.25 -3.725,-27.525 9.9125,-0.3875 18.25,6.525 23.025,14.65 4.9625,7.85 5.0375,17.6375 3.8375,26.55 -9.825,1.575 -18.8375,-5.3 -23.1375,-13.675 z"
         id="path4682" />
      <path
         style="fill:#cedc4e"
         inkscape:connector-curvature="0"
         d="m -85.99802,431.86837 c -9.5125,-14.15 -11.45,-33.25 -4.75,-48.9625 5.9,1.325 11.975,2.95 16.5875,7.1 8.0625,6.95 13.6375,16.8625 15.5875,27.3125 0.55,9.15 0.85,18.55 -2.325,27.3 -10.225,1.95 -19.3375,-5.0125 -25.1,-12.75 z"
         id="path4684" />
      <path
         style="fill:#ddef45;fill-opacity:1"
         inkscape:connector-curvature="0"
         d="m 23.38948,394.83087 c 16.9,1.6 28.175,17.6375 31.8,33.025 0.9625,9.4125 1.2375,19.35 -2.7125,28.175 -10.9625,0.925 -20.275,-6.7375 -25.75,-15.5375 -7.8375,-13.7 -9.4125,-31 -3.3375,-45.6625 z"
         id="path4686" />
      <path
         style="fill:#c3d237;fill-opacity:1"
         inkscape:connector-curvature="0"
         d="m -133.12302,442.41837 c -6.125,-14.8 -5.7625,-32.75 2.6,-46.65 15.1625,3.55 24.8625,18.175 27.625,32.75 1.425,6.0375 0.1375,12.2 -0.45,18.25 -0.5375,5.075 -1.9375,10.375 -5.45,14.2375 -11.225,0.1125 -19.6,-9.3625 -24.325,-18.5875 z"
         id="path4688" />
      <path
         style="fill:#ddef45;fill-opacity:1"
         inkscape:connector-curvature="0"
         d="m 69.73948,396.00587 c 11.6,0.575 20.9125,9.125 26.375,18.7875 2.7,5.0375 5.125,10.4 5.7875,16.125 0.5125,8.8 0.7375,17.9375 -2.9,26.175 -10.9875,0.9875 -20.45,-6.75 -25.85,-15.65 -7.85,-13.6125 -9.0875,-30.8 -3.4125,-45.4375 z"
         id="path4690" />
      <path
         style="fill:#c3d237;fill-opacity:1"
         inkscape:connector-curvature="0"
         d="m -43.31052,407.96837 c 10,-7.6125 23.0875,-11.6625 35.6125,-9.5 1.825,0.9375 2.0875,3.3375 2.925,5.0375 6.8,17.375 2.1625,38.5875 -11.4375,51.4125 -4.5125,5.15 -11.5125,6.4375 -17.6875,8.6 -5.575,2.0875 -11.575,1.15 -17.35,0.825 -6.7,-10.5125 -8.6125,-23.85 -5.2875,-35.85 2.075,-8.025 7.225,-14.95 13.225,-20.525 z"
         id="path4692" />
      <path
         style="fill:#c3d237;fill-opacity:1"
         inkscape:connector-curvature="0"
         d="m 243.18948,435.65587 c 5.0625,-15.1875 17.025,-28.35 32.3375,-33.5375 10.525,14.4 6.35,34.7875 -3.975,48.1 -6.425,6.3625 -12.9,13.3125 -21.85,16 -8.5125,-7.575 -9.275,-20.2125 -6.5125,-30.5625 z"
         id="path4694" />
      <path
         style="fill:#c3d237;fill-opacity:1"
         inkscape:connector-curvature="0"
         d="m 143.87698,446.13087 c -3.625,-16.4375 4.3125,-34.95 19.225,-43.025 5.825,3.9625 11.4875,8.3875 15.125,14.55 6.2875,10.25 8.95,23.25 5.5375,34.95 -3.8375,8.2875 -8.9625,16.6625 -17.5375,20.7375 -11.25,-4.9375 -19.4875,-15.3375 -22.35,-27.2125 z"
         id="path4696" />
      <path
         style="fill:#ddef45;fill-opacity:1"
         inkscape:connector-curvature="0"
         d="m 199.32698,403.69337 c 11.9375,0.7 21.425,9.7125 26.875,19.75 7.1125,12.425 7.4,28.125 2.3625,41.325 -11,1.05 -20.2875,-6.725 -25.775,-15.5125 -7.85,-13.6625 -9.2875,-30.875 -3.4625,-45.5625 z"
         id="path4698" />
      <path
         style="fill:#c3d237;fill-opacity:1"
         inkscape:connector-curvature="0"
         d="m 379.12698,450.59337 c -5.9875,-15.225 -4.5875,-33.275 4.1125,-47.2125 14.8125,3.775 23.6875,18.45 26.1875,32.6875 1.65,7.075 -0.3625,14.2 -1.375,21.2 -0.5875,4.525 -3.0125,8.4375 -5.1125,12.3875 -11.2,-0.375 -19.275,-9.6875 -23.8125,-19.0625 z"
         id="path4700" />
      <path
         style="fill:#c3d237;fill-opacity:1"
         inkscape:connector-curvature="0"
         d="m 340.67698,441.06837 c 1.5625,-11.975 7.5,-23.875 17.3625,-31.1125 11.1375,8.35 11.975,24.575 7.1375,36.6125 -3.525,6.7125 -7.05,13.7 -13.0625,18.575 -9.4375,-3.575 -12.6375,-14.9 -11.4375,-24.075 z"
         id="path4702" />
      <path
         style="fill:#ddef45;fill-opacity:1"
         inkscape:connector-curvature="0"
         d="m 317.86448,424.35587 c 5,-1.0625 10.0375,0.125 14.9125,1.3125 2.55,15.2875 -4.3375,31.2 -16.0125,41.0375 -10.25,9.0875 -24.4125,13.1625 -37.9625,11.275 2.625,-1.6 5.1875,-3.2875 7.7375,-5.025 -3.8125,-0.85 -7.6875,-1.475 -11.6,-1.4 0.275,-17.075 11.125,-32.6 25.0875,-41.725 5.1875,-3.75 11.75,-4.25 17.8375,-5.475 z"
         id="path4704" />
      <path
         style="fill:#c3d237;fill-opacity:1"
         inkscape:connector-curvature="0"
         d="m 443.10198,425.61837 c 4.3375,-1.45 9.05,-2.5375 13.625,-1.625 5.775,13.225 -1.1125,27.7625 -9.85,37.8625 -5.25,7.1 -13.6625,10.4 -21.4625,13.825 -3.75,1.5125 -7.8375,1.725 -11.7875,2.275 -3.3125,-6.35 -4.225,-13.875 -1.75,-20.675 3.95,-15.2125 17.3,-25.8 31.225,-31.6625 z"
         id="path4706" />
      <path
         style="fill:#c3d237;fill-opacity:1"
         inkscape:connector-curvature="0"
         d="m 7.53948,429.28087 c 6.625,3.925 11.8125,9.9125 14.275,17.2625 4.05,11.55 4.1875,24.9125 -1.7,35.8875 -2.1375,6.1375 -5.7,11.575 -10.525,15.9375 -10.4125,-3.25 -15.825,-13.825 -17.925,-23.7875 -2.2125,-16.4625 3.75,-33.8875 15.875,-45.3 z"
         id="path4708" />
      <path
         style="fill:#ddef45;fill-opacity:1"
         inkscape:connector-curvature="0"
         d="m -100.94802,452.68087 c 17.475,-5.2375 37.35,1.25 49,15.125 5.1875,5.175 6.3,12.6875 7.975,19.4875 1.25,4.75 0.0125,9.6 -0.7,14.325 -10.1625,4.3375 -22,3.9125 -32.075,-0.475 -18.525,-7.2375 -28.8375,-29.45 -24.2,-48.4625 z"
         id="path4710" />
      <path
         style="fill:#ddef45;fill-opacity:1"
         inkscape:connector-curvature="0"
         d="m 115.13948,492.01837 c -8.1375,-12.5125 -6.975,-29.85 1.925,-41.6625 8.5625,0.9375 17.0125,3.9875 23.3125,10.025 8.2125,7.6125 13.9625,19.25 11.2125,30.5875 -0.5,5.85 -3.0875,11.15 -6.3125,15.95 -11.8625,1.05 -23.4625,-5.275 -30.1375,-14.9 z"
         id="path4712" />
      <path
         style="fill:#ddef45;fill-opacity:1"
         inkscape:connector-curvature="0"
         d="m 444.60198,473.33087 c 16.8375,-12.1 40.6,-14.4625 59.15,-4.9125 -0.7375,11.6625 -6.65,22.3875 -15.2375,30.15 -11.3,10.3125 -26.8,17.4125 -42.35,14.8625 -6.8875,0.2875 -13.225,-2.3125 -19.375,-5.05 -1.3875,-14 7.25,-26.7375 17.8125,-35.05 z"
         id="path4714" />
      <path
         style="fill:#4a3f1f;fill-opacity:1"
         inkscape:connector-curvature="0"
         d="m 97.66448,464.91837 c 0.55,0.225 1.675,0.65 2.225,0.875 5.4,18.0375 11.525,35.925 19.55,52.9875 9.9125,19.45 20.95,39.1875 38.2125,53.125 6.025,4.3125 13.4375,8.0375 21.0375,7.075 8.175,-3.125 12.7625,-11.3125 16.9875,-18.475 10.9625,-19.475 21.95,-39.0375 35.35,-56.9625 7.6625,-8.25 14.6125,-17.4375 24.25,-23.5375 5.6875,-4.4625 12.6875,-6.875 19.6625,-8.45 3.9125,-0.075 7.7875,0.55 11.6,1.4 -2.55,1.7375 -5.1125,3.425 -7.7375,5.025 -16.9,10.35 -30.2375,25.5125 -41.95,41.3 -13.6375,20 -24.5125,42.05 -30.825,65.475 -4.0125,15.1125 -6.55,30.5625 -8.4875,46.0625 -1.5875,12.0375 -1.05,24.225 -2.15,36.3 0.0875,24.5 0.85,49.05 3.925,73.375 2.6625,23.5 6.05,46.975 12,69.8875 3.0375,14.7875 7.8375,29.1625 10.7875,43.9375 -4.5,0.125 -8.975,-1.75 -11.475,-5.575 -8.3625,-11.7375 -11.4625,-26.175 -14.25,-40.0625 -2.575,-9.3125 -3.9125,-18.8875 -5.8875,-28.325 -4.4875,-0.1 -8.9625,0.0625 -13.45,0.1625 -2.7125,16.5375 -4.925,33.6 -12.5875,48.75 -3.3,5.925 -7.2375,12.325 -13.9,14.85 -3.45,1.6 -7.3125,1.4125 -11,1.4625 4.1,-13.125 9.1375,-25.9875 12.325,-39.4 11.25,-45.1125 22.5625,-90.8875 22.55,-137.675 -0.4875,-22.3875 -5.075,-45.4625 -17.85,-64.25 -5.9125,-10.05 -14.05,-18.4375 -21.0125,-27.7 -9.675,-11.525 -18.25,-24.0875 -24.725,-37.675 -7,-15.15 -10.4625,-31.6125 -12.525,-48.0875 -0.2875,-8.625 -1.9125,-17.2625 -0.65,-25.875 z"
         id="path4716" />
      <path
         style="fill:#c3d237;fill-opacity:1"
         inkscape:connector-curvature="0"
         d="m 185.61448,469.40587 c 9.15,-3.9875 19.45,-6.1125 29.325,-3.8125 2.6,6.8875 5.975,14.0125 4.7375,21.575 -2.1,8.7 -6.2625,17.125 -13.1375,23.025 -4.575,4.3125 -10.8875,5.7 -16.7125,7.4875 -6,1.875 -12.5,2.075 -18.65,0.85 -7.7125,-8.775 -9.1125,-22.1125 -3.8,-32.45 3.95,-7.3875 10.35,-13.65 18.2375,-16.675 z"
         id="path4718" />
      <path
         style="fill:#c3d237;fill-opacity:1"
         inkscape:connector-curvature="0"
         d="m -176.03552,471.93087 c 15.7,-9.15 35.6125,-7.9125 51.6875,-0.4 6.1,2.625 10.375,7.8625 14.725,12.6625 2.85,3.1 4.0375,7.2375 5.525,11.0875 -9.6875,8.1125 -23.15,9.025 -35.15,7.25 -16.1875,-3.2375 -32.1,-14.125 -36.7875,-30.6 z"
         id="path4720" />
      <path
         style="fill:#ddef45;fill-opacity:1"
         inkscape:connector-curvature="0"
         d="m 46.71448,510.28087 c -8.1875,-13.3125 -6.35,-31.2 3.0125,-43.4375 9.875,0.9 19.65,4.3375 27,11.175 8.7875,8 15.325,20.3125 12.2625,32.4125 -0.4875,6.5625 -3.4875,12.4125 -7.2625,17.6625 -13.7375,0.9625 -27.7375,-6.1375 -35.0125,-17.8125 z"
         id="path4722" />
      <path
         style="fill:#ddef45;fill-opacity:1"
         inkscape:connector-curvature="0"
         d="m -28.92302,511.10587 c -6.4,-12.9375 -7.7875,-28.7 -2.175,-42.15 10.1125,1.425 18.1375,8.825 22.8125,17.55 7.075,12.075 6.9375,27.1875 3.0125,40.275 -10.4625,0.9625 -19.075,-7.0375 -23.65,-15.675 z"
         id="path4724" />
      <path
         style="fill:#c3d237;fill-opacity:1"
         inkscape:connector-curvature="0"
         d="m 304.68948,488.29337 c 8.3,-13.725 25.9625,-19.5 41.25,-17.0875 2.4625,2 3.075,5.55 4.0875,8.45 3.6125,13.4375 -3.4625,28.175 -15.2375,35.0625 -8.65,3.8875 -18.2375,5.6625 -27.6875,4.475 -6.6,-8.7 -7.9625,-21.35 -2.4125,-30.9 z"
         id="path4726" />
      <path
         style="fill:#ddef45;fill-opacity:1"
         inkscape:connector-curvature="0"
         d="m 366.11448,472.54337 c 6.0125,-2.125 12.55,-3.125 18.8125,-1.4125 12.625,3.1375 24.5,11.375 30.15,23.3375 3.4125,5.3625 5.575,11.4125 5.9125,17.8 -10.275,6.15 -23.5375,3.325 -32.9,-3.2125 -11.825,-8.4125 -20.975,-21.7625 -21.975,-36.5125 z"
         id="path4728" />
      <path
         style="fill:#c3d237;fill-opacity:1"
         inkscape:connector-curvature="0"
         d="m 23.67698,494.60587 c 9.375,3.3375 16.2125,11.6 19.1625,20.9375 2.275,7.3125 3.875,15.1125 2.75,22.775 -1.9375,8.7875 -4.5625,17.7 -10.425,24.7375 -11.825,-2.2875 -18.7625,-13.675 -21.6625,-24.475 -2.975,-15.075 -0.2,-32.175 10.175,-43.975 z"
         id="path4730" />
      <path
         style="fill:#ddef45;fill-opacity:1"
         inkscape:connector-curvature="0"
         d="m 274.38948,504.44337 c 6.0625,-2.85 12.85,-3.2375 19.4375,-3.3 4.05,16.825 -6.75,33.4125 -20.6,42.0625 -8.175,3.9875 -16.95,7.425 -26.2125,7.15 -2.55,-6.3125 -2.8125,-13.525 -0.1875,-19.8625 4.5125,-12.4125 15.675,-21.15 27.5625,-26.05 z"
         id="path4732" />
      <path
         style="fill:#c3d237;fill-opacity:1"
         inkscape:connector-curvature="0"
         d="m 342.76448,526.04337 c -0.7,-9.25 2.125,-18.6125 7.7875,-25.95 10.9,1.7875 21.775,5.225 30.4625,12.2875 10.15,8.2125 18.8375,19.2375 21.2375,32.3375 0.45,5.25 -0.5125,10.5125 -0.875,15.7625 -0.4,5.5375 -3.7625,10.1375 -6.4125,14.8 -16.45,0.3625 -32.2,-8.0375 -42.45,-20.6125 -5.8375,-8.3375 -10.225,-18.25 -9.75,-28.625 z"
         id="path4734" />
      <path
         style="fill:#c3d237;fill-opacity:1"
         inkscape:connector-curvature="0"
         d="m -96.72302,508.84337 c 15.0625,-4.5 32.55,-2.6125 45.4125,6.8 -2.0625,4.1875 -3.7,8.775 -7.1875,12.05 -8.625,8.5 -20.925,12.975 -32.95,12.9125 -9.3375,-1.3 -19.1875,-2.475 -26.975,-8.3 1.1875,-11.6125 11.4375,-19.7 21.7,-23.4625 z"
         id="path4736" />
      <path
         style="fill:#c3d237;fill-opacity:1"
         inkscape:connector-curvature="0"
         d="m 131.76448,515.89337 c 9.0375,-3.6 20.7,-3.0875 27.825,4.1875 4.9,4.8 6.1125,12.1375 4.375,18.6125 -7.4625,1.5 -15.6625,2.3375 -22.5,-1.725 -8.0875,-3.15 -12.45,-12.925 -9.7,-21.075 z"
         id="path4738" />
      <path
         style="fill:#6a5621;fill-opacity:1"
         inkscape:connector-curvature="0"
         d="m 237.67698,531.31837 c 3.15,-5.5625 6.775,-10.8875 11.3375,-15.4125 0.125,0.4625 0.3625,1.4 0.475,1.8625 l -1,0.2125 c -3.825,7.8 -6.6875,15.9875 -10.1875,23.9375 -8.5875,19.7625 -14.6,40.5375 -19.2875,61.55 -1.875,12.325 -5.5,25 -2.225,37.4125 2.525,-0.175 5.3625,0.25 7.5,-1.45 8.225,-5.95 14.3125,-14.225 21.0375,-21.725 12.975,-15.7 27.3125,-30.8875 45.5375,-40.5125 4.3625,-2.4625 8.9125,-4.725 13.875,-5.725 -14.0125,16.45 -34.1375,26.2 -47.6875,43.1 -9.775,10.2 -16.875,22.675 -22.0625,35.7375 -1.375,3.6125 -2.65,7.2625 -3.8125,10.95 -4.05,12.4125 -5.425,25.475 -6.3375,38.45 -1.2,14.1625 -0.3875,28.4125 1.5,42.475 1.175,9.5625 4.3125,18.725 7.1,27.9 3.175,9.925 8.8875,19.325 17.825,25.0375 -4.1375,0.7125 -8.4,2.4 -12.5875,1.4625 -7.65,-8.4375 -12.2375,-19.3875 -14.4125,-30.475 -2.1125,-10.4625 -4.45,-20.9 -5.6125,-31.5125 -2.4,2.2 -4.825,4.375 -7.275,6.5375 2.525,25.9125 8.0375,51.8125 18.9,75.6 1.8,3.6 3.675,7.2 4.5125,11.175 -0.6375,0.025 -1.9,0.0625 -2.5375,0.0875 -1.5625,0.8125 -3.1875,1.5125 -4.775,2.275 -0.95,0.0125 -2.875,0.05 -3.825,0.0625 -3.525,-12.65 -6.5125,-25.45 -10.625,-37.925 -3.9375,-13.525 -5.875,-27.4875 -8.125,-41.35 -4.1875,-22.7125 -5.85,-45.7875 -6.65,-68.8375 -0.175,-9.1875 -0.35,-18.4 0.875,-27.525 0.6375,-20.325 4.275,-40.425 9.4125,-60.05 6.975,-22.2 16.0875,-43.975 29.1375,-63.325 z"
         id="path4740" />
      <path
         style="fill:#c3d237;fill-opacity:1"
         inkscape:connector-curvature="0"
         d="m 433.56448,527.46837 c 18.1125,-11.7625 47.2625,-2.5875 53.2125,18.7875 -10.0125,4.7875 -21.7625,5.4125 -32.2125,1.6625 -9.6875,-2.875 -18.25,-10.6125 -21,-20.45 z"
         id="path4742" />
      <path
         style="fill:#ddef45;fill-opacity:1"
         inkscape:connector-curvature="0"
         d="m 292.83948,543.93087 c 5.2375,-8.025 12.6625,-14.9625 21.7875,-18.2375 1.6125,3.2125 3.5625,6.6375 2.9,10.3875 -1.725,12.8125 -11.3,23.275 -22.4375,29.05 -2.7125,1.825 -5.3625,-1.025 -6.05,-3.525 -2.1125,-6.0625 0.775,-12.45 3.8,-17.675 z"
         id="path4744" />
      <path
         style="fill:#5d512e"
         inkscape:connector-curvature="0"
         d="m 176.56448,533.10587 c 6.2625,-1.925 14.6125,-0.05 17.075,6.675 2.9875,10.8375 -4.8125,22.275 -15.1375,25.5625 -8.9,3.4875 -19.375,-5.0375 -18.575,-14.3875 0,-9.175 8.2125,-16.05 16.6375,-17.85 z"
         id="path4746" />
      <path
         style="fill:#c3d237;fill-opacity:1"
         inkscape:connector-curvature="0"
         d="m -52.14802,535.03087 c 4.775,-1.35 9.7875,-2.275 14.7625,-1.775 2.225,4.3875 1.6625,9.75 1.55,14.5625 -1.8375,15.2 -10.7375,29.1875 -22.775,38.4375 -8.9375,4.425 -18.075,9.8375 -28.4625,8.975 -3.6375,-8.2875 -3.375,-17.8625 -0.1,-26.225 5.375,-16.125 19.275,-28.35 35.025,-33.975 z"
         id="path4748" />
      <path
         style="fill:#ddef45;fill-opacity:1"
         inkscape:connector-curvature="0"
         d="m -13.26052,541.53087 c 5.875,-4.4875 13,-6.9875 20.2625,-8.05 7.375,15.5625 -0.575,33.825 -12.25,44.925 -7.425,5.2625 -15.3375,10.975 -24.725,11.65 -4.1875,-5.3625 -5.2,-12.625 -3.7625,-19.1625 1.975,-12.275 10.5125,-22.45 20.475,-29.3625 z"
         id="path4750" />
      <path
         style="fill:#ddef45;fill-opacity:1"
         inkscape:connector-curvature="0"
         d="m 56.30198,544.91837 c 5.0375,-4.3125 12.1,-5.1625 18.4625,-4.2375 9.075,1.475 17.5625,6.1375 23.8875,12.7875 5.6125,6.75 10.2625,14.4375 12.3375,23.05 -7.225,7.7 -19.3625,6.95 -28.225,2.75 -13.2625,-6.7625 -23.25,-19.85 -26.4625,-34.35 z"
         id="path4752" />
      <path
         style="fill:#ddef45;fill-opacity:1"
         inkscape:connector-curvature="0"
         d="m 406.28948,545.64337 c 12.775,-7.7875 29.075,-3.525 40.6375,4.5375 5.9125,3.6375 9.6375,9.625 13.5375,15.175 2.7125,3.75 3.975,8.2625 5.4125,12.6125 -7.5625,6.9 -18.8875,6.375 -28.025,3.4375 -15.3875,-5.9875 -27.55,-19.725 -31.5625,-35.7625 z"
         id="path4754" />
      <path
         style="fill:#ddef45;fill-opacity:1"
         inkscape:connector-curvature="0"
         d="m 326.86448,592.76837 c -8.175,-13.7875 -6.8625,-31.875 1.7,-45.175 21.6125,0.9625 39.8,23.4625 35.1,44.7875 -0.4625,6.125 -3.1875,11.6625 -6.35,16.8125 -12.2625,0.8625 -24.075,-6.175 -30.45,-16.425 z"
         id="path4756" />
      <path
         style="fill:#6a5621;fill-opacity:1"
         inkscape:connector-curvature="0"
         d="m 106.11448,549.49337 c 15.3625,22.6875 38.625,39.2625 51.35,63.8375 4.625,10.3875 9.1,21.125 10.275,32.55 2.9625,16.0875 3.4375,32.625 1.7,48.8875 -1.7,24.95 -6.55,49.575 -12.75,73.775 -4.1,15.55 -8,31.225 -14.3375,46.0625 -2.125,4.9 -3.925,10.125 -7.4875,14.225 -2.75,-0.4625 -5.45,-1.0375 -8.1625,-1.5125 -0.1125,-0.625 -0.325,-1.9 -0.425,-2.525 9.9875,-13.4625 16.425,-29.2625 20.15,-45.5375 2.4375,-9.75 4.6375,-19.6125 5.6,-29.625 0.425,-2.2375 -2.2125,-2.875 -3.575,-3.925 -2.9625,18.3875 -6.0625,38.25 -18.725,52.8 -2.9125,3.925 -8.3375,1.6 -12.375,1.5375 12.925,-14.2125 18.2125,-33.225 22.7375,-51.425 2.85,-14.75 5.3,-29.85 3.5,-44.8875 -2.125,-10.45 -6.1125,-20.55 -12.1875,-29.35 -4.725,-8.625 -12.0875,-15.275 -19.175,-21.9125 -12.3625,-9.0625 -24.8375,-18.0125 -36.5875,-27.8625 -4.3,-3.5375 -8.3875,-7.3 -12.2875,-11.2625 -5.35,-5.85 -11,-11.775 -14.0625,-19.2125 -2.8125,-6.4 -6.4625,-12.525 -8,-19.4125 3.325,3.8375 5.9,8.2125 8.85,12.325 0.2625,0.3375 0.7875,1.0125 1.05,1.35 6.5875,7.9125 13.4625,15.7 21.6875,21.9625 11.8625,9.0125 24.0375,17.6125 35.9375,26.5875 6.8375,4.875 13.375,10.2375 20.6625,14.4625 2.7125,1.825 6.05,1.625 9.175,1.475 2.3875,-7.9125 2.075,-16.2125 2.65,-24.3625 -0.6375,-14.8375 -5.525,-29.35 -13.3625,-41.925 -6.2625,-10.75 -14,-20.6125 -19.75,-31.65 -0.6,-1.8625 -1.4625,-3.6125 -2.075,-5.45 z"
         id="path4758" />
      <path
         style="fill:#cedc4e"
         inkscape:connector-curvature="0"
         d="m 252.88948,567.69337 c 4.4375,-12.625 18.7125,-19 31.3875,-18.75 2.725,7.3375 1.1875,15.6375 -3.5125,21.8125 -5.8875,8.8 -16.975,12.5875 -27.1875,12.125 -1.7625,-4.8625 -2.7875,-10.2375 -0.6875,-15.1875 z"
         id="path4760" />
      <path
         style="fill:#ddef45;fill-opacity:1"
         inkscape:connector-curvature="0"
         d="m 47.80198,573.83087 c 7.475,-5.025 19.05,-2.1 23.275,5.9 2.375,3.7375 2.2,8.2875 2.2625,12.5375 -7.375,2.975 -16.425,1.875 -22.15,-3.875 -0.2625,-0.3375 -0.7875,-1.0125 -1.05,-1.35 -2.325,-3.8375 -4,-8.825 -2.3375,-13.2125 z"
         id="path4762" />
      <path
         style="fill:#ddef45;fill-opacity:1"
         inkscape:connector-curvature="0"
         d="m 305.77698,608.93087 c -5.5,-8.7875 -7.3125,-19.9625 -4.325,-29.9375 9.35,0.7125 17.5125,6.5875 22.1625,14.5625 5.2375,7.8875 5.2125,17.8125 4.1625,26.875 -9.0375,1.725 -17.4,-4.15 -22,-11.5 z"
         id="path4764" />
      <path
         style="fill:#c3d237;fill-opacity:1"
         inkscape:connector-curvature="0"
         d="m -11.77302,594.45587 c 13.6625,-10.5625 33.0625,-12.6875 48.775,-5.65 4.8125,2.2875 8.675,6.05 12.425,9.75 -5.625,18.4 -20.9,32.9625 -38.925,39.175 -6.4125,1.975 -13.425,4.0375 -20.025,1.6625 -6.6125,-2.3125 -14.3125,-2.9 -19.45,-8.1625 -1.5,-1.5875 -3.6375,-2.925 -4.2,-5.125 1.975,-13.075 11.05,-23.975 21.4,-31.65 z"
         id="path4766" />
      <path
         style="fill:#c3d237;fill-opacity:1"
         inkscape:connector-curvature="0"
         d="m 368.82698,601.30587 c 8.9125,-8.55 19.8125,-15.4625 32.2,-17.425 4.1375,5.7125 7.4125,12.325 7.125,19.575 -0.15,11.9125 -5.6375,23.5875 -14.325,31.675 -8.3625,6.35 -17.4875,12.0875 -27.9875,13.9875 -5.85,-5.175 -9.6,-12.6375 -9.1625,-20.5625 -0.375,-10.4375 5.3625,-19.8 12.15,-27.25 z"
         id="path4768" />
      <path
         style="fill:#cedc4e"
         inkscape:connector-curvature="0"
         d="m 83.98948,590.03087 c 10.1375,-4.7375 24.6,-2.975 30.675,7.3 3.0125,4.4875 2.9125,10.075 1.8125,15.175 -7.7875,1.6875 -16.3875,2.25 -23.425,-2.1875 -7.575,-3.3125 -11.075,-12.525 -9.0625,-20.2875 z"
         id="path4770" />
      <path
         style="fill:#ddef45;fill-opacity:1"
         inkscape:connector-curvature="0"
         d="m -63.54802,590.39337 c 8.375,-3.875 19.1125,-3.625 26.25,2.6625 5.3375,4.4125 7.1375,11.625 6.3625,18.3 -9.425,3.5 -21.0625,2.3125 -28.3,-5.1125 -4.1625,-4.1125 -4.6375,-10.3375 -4.3125,-15.85 z"
         id="path4772" />
      <path
         style="fill:#c3d237;fill-opacity:1"
         inkscape:connector-curvature="0"
         d="m 431.40198,592.84337 c 12.8125,-1.2125 26.5625,0.5375 37.4125,7.925 6.9,6.4875 15.5125,12.375 17.5,22.3125 -8.975,8.8 -22.1,11.1875 -34.225,10 -12.9375,-1.7875 -24.925,-8.5125 -33.5875,-18.2125 -3.4875,-3.9625 -6.275,-8.55 -7.425,-13.7375 6.1625,-4.05 12.8875,-7.4375 20.325,-8.2875 z"
         id="path4774" />
      <path
         style="fill:#5d512e"
         inkscape:connector-curvature="0"
         d="m 228.97698,601.33087 c 3.4125,-1.85 8.3875,-1.225 10.675,2.15 3.8375,5.2125 2.1875,12.3875 -0.475,17.7625 -2.4,5.2875 -6.9,10.55 -13.125,10.825 -5.7375,-0.5875 -8.175,-7.3 -8.0375,-12.3125 0.6,-7.3 4.2875,-14.875 10.9625,-18.425 z"
         id="path4776" />
      <path
         style="fill:#c3d237;fill-opacity:1"
         inkscape:connector-curvature="0"
         d="m 279.48948,610.78087 c 10.9625,-3.4875 24.225,0.3125 31.3125,9.45 -1.3125,12.3 -12.6375,21.8 -24.4875,23.55 13.575,0.6625 26.1,8.4125 34.3625,18.9375 4.8125,8.425 9.275,17.4 9.7,27.3 -8.975,5.7625 -20.6375,3.5375 -29.375,-1.5625 -14.6,-8.8875 -24.2375,-25.3375 -25.1875,-42.3625 2.375,-0.5 4.7625,-0.9875 7.1625,-1.4375 -7.975,-1.8 -16.1,-4.7375 -21.5625,-11.125 1.375,-10.1125 8.3375,-19.3875 18.075,-22.75 z"
         id="path4778" />
      <path
         style="fill:#c3d237;fill-opacity:1"
         inkscape:connector-curvature="0"
         d="m 40.50198,625.40587 c 5.6125,-6.6625 14.1875,-9.4125 21.85,-12.9375 l 1,0.875 c 3.9,3.9625 7.9875,7.725 12.2875,11.2625 0.675,5.5375 -1.6375,11.0625 -3.75,16.1 -8.6375,15.1125 -25.1625,26.7875 -42.9875,26.4375 -5.025,-14.7875 1.55,-30.725 11.6,-41.7375 z"
         id="path4780" />
      <path
         style="fill:#5d512e"
         inkscape:connector-curvature="0"
         d="m 121.55198,621.83087 c 5.9125,-3.475 13.8875,-0.4125 16.45,5.8125 2.6625,6.625 2.2,15.925 -4.3125,20.225 -13.9125,4.775 -24.35,-18.575 -12.1375,-26.0375 z"
         id="path4782" />
      <path
         style="fill:#c3d237;fill-opacity:1"
         inkscape:connector-curvature="0"
         d="m 306.01448,634.94337 c 15.2875,-10.175 37.275,-4.9125 48.5875,8.8625 2.275,2.8875 3.3875,6.4625 4.6375,9.875 -10.0875,4.7375 -21.875,5.4 -32.3625,1.5875 -9.6375,-2.8625 -17.9875,-10.625 -20.8625,-20.325 z"
         id="path4784" />
      <path
         style="fill:#ddef45;fill-opacity:1"
         inkscape:connector-curvature="0"
         d="m 74.07698,663.54337 c 1.075,-8.5875 2.925,-17.5375 8.55,-24.4125 11.425,3.4 19.1375,13.925 22.775,24.8125 4.15,14.05 3.2625,30.9875 -6.7375,42.45 -16.0125,-7.5125 -24.3875,-25.825 -24.5875,-42.85 z"
         id="path4786" />
      <path
         style="fill:#ddef45;fill-opacity:1"
         inkscape:connector-curvature="0"
         d="m 234.98948,650.30587 c 13.1,-2.0375 26.2875,3.3375 35.7,12.3375 4.6625,3.9625 7.3,9.575 10.2,14.825 2.3375,4.325 4.15,9.25 3.5125,14.2375 -7.8625,5.55 -18.3625,3.825 -26.65,0.2 -12.6,-6.05 -21.4875,-17.8875 -26.575,-30.65 1.1625,-3.6875 2.4375,-7.3375 3.8125,-10.95 z"
         id="path4788" />
      <path
         d="m 86.11448,873.00587 c 8.3125,-1.625 17.1125,2.4375 21.95,9.25 3.525,4.7375 3.225,11.2625 1.5625,16.675 -0.7875,3.35 -5.1125,2.775 -7.75,2.7625 -7.5,-0.175 -14.1625,-5.2875 -17.0875,-12.0375 -1.5125,-5.4 -1.8,-11.7625 1.325,-16.65 z"
         id="path4790"
         inkscape:connector-curvature="0"
         style="fill:#cedc4e" />
      <text
         xml:space="preserve"
         style="font-style:normal;font-weight:normal;font-size:40px;line-height:125%;font-family:sans-serif;letter-spacing:0px;word-spacing:0px;fill:#4a3f1f;fill-opacity:1;stroke:none;stroke-width:1px;stroke-linecap:butt;stroke-linejoin:miter;stroke-opacity:1"
         x="-404.34042"
         y="817.79474"
         id="text4792"
         sodipodi:linespacing="125%"><tspan
           sodipodi:role="line"
           id="tspan4794"
           x="-404.34042"
           y="817.79474"
           style="font-style:normal;font-variant:normal;font-weight:normal;font-stretch:normal;font-size:87.5px;font-family:Stentiga;-inkscape-font-specification:Stentiga;fill:#4a3f1f;fill-opacity:1">PLANTEAZA</tspan></text>
      <text
         xml:space="preserve"
         style="font-style:normal;font-weight:normal;font-size:40px;line-height:125%;font-family:sans-serif;letter-spacing:0px;word-spacing:0px;fill:#4a3f1f;fill-opacity:1;stroke:none;stroke-width:1px;stroke-linecap:butt;stroke-linejoin:miter;stroke-opacity:1"
         x="277.13443"
         y="819.59546"
         id="text4796"
         sodipodi:linespacing="125%"><tspan
           sodipodi:role="line"
           id="tspan4798"
           x="277.13443"
           y="819.59546"
           style="font-style:normal;font-variant:normal;font-weight:normal;font-stretch:normal;font-size:87.5px;font-family:Stentiga;-inkscape-font-specification:Stentiga;letter-spacing:10px;fill:#4a3f1f;fill-opacity:1">ROMANIA</tspan></text>
      <text
         xml:space="preserve"
         style="font-style:normal;font-weight:normal;font-size:37.5px;line-height:125%;font-family:sans-serif;letter-spacing:0px;word-spacing:0px;fill:#cedc4e;fill-opacity:1;stroke:none;stroke-width:1px;stroke-linecap:butt;stroke-linejoin:miter;stroke-opacity:1"
         x="121.91718"
         y="898.22186"
         id="text4800"
         sodipodi:linespacing="125%"><tspan
           sodipodi:role="line"
           id="tspan4802"
           x="121.91718"
           y="898.22186"
           style="font-style:normal;font-variant:normal;font-weight:normal;font-stretch:normal;font-size:40px;font-family:Stentiga;-inkscape-font-specification:Stentiga;fill:#cedc4e;fill-opacity:1">PENTRU</tspan></text>
    </g>
  </g>
</svg>
