<?xml version="1.0" encoding="UTF-8" standalone="no"?>
<svg
   xmlns:dc="http://purl.org/dc/elements/1.1/"
   xmlns:cc="http://creativecommons.org/ns#"
   xmlns:rdf="http://www.w3.org/1999/02/22-rdf-syntax-ns#"
   xmlns:svg="http://www.w3.org/2000/svg"
   xmlns="http://www.w3.org/2000/svg"
   xmlns:sodipodi="http://sodipodi.sourceforge.net/DTD/sodipodi-0.dtd"
   xmlns:inkscape="http://www.inkscape.org/namespaces/inkscape"
   width="1000pt"
   height="1000pt"
   viewBox="0 0 1000 1000"
   version="1.1"
   id="svg2"
   inkscape:version="0.91 r13725"
   sodipodi:docname="logo_PPR_PL.svg">
  <metadata
     id="metadata234">
    <rdf:RDF>
      <cc:Work
         rdf:about="">
        <dc:format>image/svg+xml</dc:format>
        <dc:type
           rdf:resource="http://purl.org/dc/dcmitype/StillImage" />
        <dc:title />
      </cc:Work>
    </rdf:RDF>
  </metadata>
  <defs
     id="defs232" />
  <sodipodi:namedview
     pagecolor="#ffffff"
     bordercolor="#666666"
     borderopacity="1"
     objecttolerance="10"
     gridtolerance="10"
     guidetolerance="10"
     inkscape:pageopacity="0"
     inkscape:pageshadow="2"
     inkscape:window-width="1536"
     inkscape:window-height="801"
     id="namedview230"
     showgrid="false"
     inkscape:zoom="0.75520001"
     inkscape:cx="608.4829"
     inkscape:cy="518.47803"
     inkscape:window-x="-8"
     inkscape:window-y="-8"
     inkscape:window-maximized="1"
     inkscape:current-layer="svg2" />
  <path
     fill="#cedc4e"
     d=" M 563.04 212.03 C 569.08 209.05 575.96 209.05 582.52 209.62 C 589.78 224.25 586.61 243.36 574.43 254.39 C 570.80 258.08 565.53 259.05 560.84 260.72 C 556.57 262.27 551.99 261.49 547.58 261.30 C 542.74 253.87 541.15 244.64 542.99 235.98 C 544.75 225.17 552.84 215.83 563.04 212.03 Z"
     id="path6" />
  <path
     fill="#cedc4e"
     d=" M 592.02 223.33 C 596.23 220.00 601.60 218.20 606.99 218.84 C 618.70 219.64 628.67 227.48 635.25 236.77 C 637.32 240.19 639.40 243.84 639.91 247.87 C 638.24 249.73 635.58 250.47 633.24 251.16 C 622.69 253.22 611.73 249.13 603.65 242.39 C 598.60 236.89 593.62 230.83 592.02 223.33 Z"
     id="path8" />
  <path
     fill="#cedc4e"
     d=" M 395.54 225.43 C 404.54 223.97 414.06 224.57 422.34 228.64 C 431.64 233.03 440.04 240.22 444.16 249.81 C 445.50 254.03 445.92 258.49 446.59 262.86 C 447.33 267.54 445.86 272.13 444.62 276.58 C 435.87 279.33 426.19 279.14 417.82 275.23 C 398.70 268.17 388.50 244.33 395.54 225.43 Z"
     id="path10" />
  <path
     fill="#cedc4e"
     d=" M 478.27 245.20 C 490.24 242.92 501.48 250.52 508.29 259.76 C 512.04 264.45 513.06 270.48 514.77 276.07 C 515.86 279.61 515.40 283.35 515.24 286.98 C 507.04 289.96 498.15 286.52 491.79 281.18 C 482.13 272.19 476.34 258.41 478.27 245.20 Z"
     id="path12" />
  <path
     fill="#cedc4e"
     d=" M 577.60 260.53 C 587.58 254.14 600.09 250.58 611.85 253.26 C 618.80 256.06 626.37 258.73 630.97 265.05 C 632.57 266.34 631.34 268.40 630.81 269.92 C 626.90 279.16 618.23 285.38 609.22 289.12 C 593.47 294.77 573.80 290.10 563.61 276.43 C 567.24 270.30 571.54 264.46 577.60 260.53 Z"
     id="path14" />
  <path
     fill="#cedc4e"
     d=" M 518.13 287.13 C 517.04 274.66 524.03 262.56 534.00 255.41 C 541.48 258.55 548.34 263.34 553.02 270.04 C 558.20 278.03 560.99 287.80 559.31 297.30 C 558.18 301.38 555.91 305.00 553.89 308.68 C 551.77 312.62 548.02 315.20 544.77 318.12 C 530.55 314.93 518.79 301.86 518.13 287.13 Z"
     id="path16" />
  <path
     fill="#cedc4e"
     d=" M 363.42 259.57 C 379.60 251.63 401.74 263.46 404.04 281.33 C 398.43 283.90 392.32 286.05 386.05 285.04 C 378.62 283.94 370.69 281.17 366.06 274.91 C 363.14 271.35 360.00 267.58 359.61 262.78 C 360.25 261.18 362.03 260.42 363.42 259.57 Z"
     id="path18" />
  <path
     fill="#cedc4e"
     d=" M 457.30 265.33 C 465.27 265.45 472.36 270.85 476.97 277.05 C 482.87 284.59 483.14 295.47 478.99 303.88 C 476.79 309.33 472.57 313.62 467.94 317.10 C 460.97 314.81 454.41 310.84 450.18 304.71 C 445.50 298.31 443.16 289.91 445.00 282.09 C 447.67 275.67 451.02 268.93 457.30 265.33 Z"
     id="path20" />
  <path
     fill="#cedc4e"
     d=" M 319.45 268.14 C 333.18 263.01 348.85 269.14 358.13 279.79 C 361.80 286.09 366.95 292.25 366.74 299.96 C 361.80 303.96 354.98 304.12 349.04 302.76 C 341.92 301.59 335.82 297.25 330.68 292.41 C 324.79 285.65 319.24 277.47 319.45 268.14 Z"
     id="path22" />
  <path
     fill="#cedc4e"
     d=" M 640.09 265.49 C 659.25 267.69 673.24 287.37 672.12 306.06 C 671.74 309.26 670.47 312.26 669.20 315.20 C 655.83 312.01 645.15 301.56 639.84 289.12 C 637.76 284.73 638.04 279.73 637.73 275.00 C 637.46 271.64 638.96 268.55 640.09 265.49 Z"
     id="path24" />
  <path
     fill="#cedc4e"
     d=" M 425.48 326.42 C 419.56 315.54 418.31 301.81 423.37 290.37 C 437.05 292.18 446.31 305.21 448.75 317.98 C 449.29 325.23 449.38 332.84 446.38 339.62 C 437.40 340.14 429.79 333.76 425.48 326.42 Z"
     id="path26" />
  <path
     fill="#cedc4e"
     d=" M 600.25 297.79 C 603.49 293.83 609.10 292.64 613.99 292.25 C 628.76 291.10 644.55 301.14 647.56 316.07 C 639.42 320.27 629.85 321.21 621.10 318.47 C 616.35 316.83 611.32 314.93 608.02 310.95 C 604.72 307.07 600.68 303.19 600.25 297.79 Z"
     id="path28" />
  <path
     fill="#cedc4e"
     d=" M 310.15 293.04 C 323.75 292.65 337.03 301.64 343.15 313.75 C 345.32 318.44 347.20 323.68 346.16 328.91 C 345.62 332.16 345.17 335.43 344.33 338.62 C 343.23 342.02 340.97 344.87 339.05 347.84 C 327.46 348.75 316.00 343.10 308.94 334.02 C 300.24 322.11 300.84 304.41 310.15 293.04 Z"
     id="path30" />
  <path
     fill="#cedc4e"
     d=" M 377.13 293.00 C 392.92 290.36 409.88 298.61 417.21 312.90 C 420.30 317.68 419.68 323.60 419.85 329.02 C 420.08 333.73 418.03 338.07 416.50 342.40 C 405.76 345.28 393.71 342.98 384.96 336.08 C 380.74 332.52 377.36 327.93 375.06 322.92 C 372.17 314.84 371.60 305.77 374.53 297.62 C 375.19 296.01 375.52 293.96 377.13 293.00 Z"
     id="path32" />
  <path
     fill="#cedc4e"
     d=" M 492.94 293.39 C 506.36 294.62 515.34 307.32 518.33 319.50 C 519.24 327.17 519.34 335.27 516.22 342.51 C 507.35 343.06 499.81 336.81 495.46 329.62 C 489.29 318.74 488.37 305.02 492.94 293.39 Z"
     id="path34" />
  <path
     fill="#cedc4e"
     d=" M 560.31 312.15 C 565.21 302.61 574.63 295.68 585.08 293.43 C 590.78 303.66 585.86 316.36 577.94 323.89 C 573.05 327.77 567.61 331.07 561.48 332.54 C 556.48 326.90 557.09 318.51 560.31 312.15 Z"
     id="path36" />
  <path
     fill="#cedc4e"
     d=" M 356.02 340.95 C 351.34 332.04 351.46 320.75 356.45 311.99 C 363.83 313.37 369.07 319.61 371.52 326.38 C 374.61 334.01 373.30 342.77 369.84 350.04 C 363.83 350.22 358.83 345.91 356.02 340.95 Z"
     id="path38" />
  <path
     fill="#cedc4e"
     d=" M 588.73 318.26 C 594.31 317.81 599.44 320.95 603.38 324.62 C 609.01 330.11 612.89 337.40 614.39 345.11 C 615.00 352.35 615.05 359.87 612.18 366.69 C 603.23 367.65 595.54 361.14 591.23 353.89 C 585.35 343.17 583.84 329.63 588.73 318.26 Z"
     id="path40" />
  <path
     fill="#cedc4e"
     d=" M 531.19 321.13 C 535.40 319.62 540.12 320.83 543.76 323.21 C 548.36 326.31 551.70 330.93 554.35 335.73 C 556.89 340.22 557.46 345.42 558.59 350.36 C 559.49 354.13 559.18 358.02 558.90 361.84 C 555.72 363.11 552.05 363.99 548.80 362.46 C 540.63 358.68 535.54 350.40 533.09 342.02 C 530.96 335.32 529.75 328.08 531.19 321.13 Z"
     id="path42" />
  <path
     fill="#cedc4e"
     d=" M 464.27 331.32 C 468.18 326.60 473.78 323.89 479.25 321.41 C 481.52 324.95 483.83 328.68 484.16 333.00 C 485.34 344.64 480.87 357.11 471.61 364.51 C 468.12 368.37 463.70 371.12 458.82 372.85 C 455.02 369.24 452.63 364.28 452.59 358.99 C 451.64 348.51 456.97 338.49 464.27 331.32 Z"
     id="path44" />
  <path
     fill="#cedc4e"
     d=" M 616.99 325.57 C 623.27 321.63 631.23 321.44 638.12 323.82 C 645.22 326.28 651.95 330.61 655.98 337.09 C 659.11 341.05 661.21 345.65 662.62 350.48 C 657.26 355.87 648.91 355.65 642.08 353.78 C 629.70 349.37 620.31 338.15 616.99 325.57 Z"
     id="path46" />
  <path
     fill="#cedc4e"
     d=" M 673.74 343.29 C 669.94 336.63 669.54 328.69 670.76 321.27 C 678.69 320.96 685.36 326.49 689.18 332.99 C 693.15 339.27 693.21 347.10 692.25 354.23 C 684.39 355.49 677.18 349.99 673.74 343.29 Z"
     id="path48" />
  <path
     fill="#cedc4e"
     d=" M 294.35 374.67 C 286.74 363.35 285.19 348.07 290.55 335.50 C 295.27 336.56 300.13 337.86 303.82 341.18 C 310.27 346.74 314.73 354.67 316.29 363.03 C 316.73 370.35 316.97 377.87 314.43 384.87 C 306.25 386.43 298.96 380.86 294.35 374.67 Z"
     id="path50" />
  <path
     fill="#cedc4e"
     d=" M 381.86 345.04 C 395.38 346.32 404.40 359.15 407.30 371.46 C 408.07 378.99 408.29 386.94 405.13 394.00 C 396.36 394.74 388.91 388.61 384.53 381.57 C 378.26 370.61 377.00 356.77 381.86 345.04 Z"
     id="path52" />
  <path
     fill="#cedc4e"
     d=" M 256.65 383.11 C 251.75 371.27 252.04 356.91 258.73 345.79 C 270.86 348.63 278.62 360.33 280.83 371.99 C 281.97 376.82 280.94 381.75 280.47 386.59 C 280.04 390.65 278.92 394.89 276.11 397.98 C 267.13 398.07 260.43 390.49 256.65 383.11 Z"
     id="path54" />
  <path
     fill="#cedc4e"
     d=" M 418.94 345.98 C 428.22 346.44 435.67 353.28 440.04 361.01 C 442.20 365.04 444.14 369.33 444.67 373.91 C 445.08 380.95 445.26 388.26 442.35 394.85 C 433.56 395.64 425.99 389.45 421.67 382.33 C 415.39 371.44 414.40 357.69 418.94 345.98 Z"
     id="path56" />
  <path
     fill="#cedc4e"
     d=" M 328.50 355.55 C 336.50 349.46 346.97 346.22 356.99 347.95 C 358.45 348.70 358.66 350.62 359.33 351.98 C 364.77 365.88 361.06 382.85 350.18 393.11 C 346.57 397.23 340.97 398.26 336.03 399.99 C 331.57 401.66 326.77 400.91 322.15 400.65 C 316.79 392.24 315.26 381.57 317.92 371.97 C 319.58 365.55 323.70 360.01 328.50 355.55 Z"
     id="path58" />
  <path
     fill="#cedc4e"
     d=" M 557.70 377.70 C 561.75 365.55 571.32 355.02 583.57 350.87 C 591.99 362.39 588.65 378.70 580.39 389.35 C 575.25 394.44 570.07 400.00 562.91 402.15 C 556.10 396.09 555.49 385.98 557.70 377.70 Z"
     id="path60" />
  <path
     fill="#cedc4e"
     d=" M 478.25 386.08 C 475.35 372.93 481.70 358.12 493.63 351.66 C 498.29 354.83 502.82 358.37 505.73 363.30 C 510.76 371.50 512.89 381.90 510.16 391.26 C 507.09 397.89 502.99 404.59 496.13 407.85 C 487.13 403.90 480.54 395.58 478.25 386.08 Z"
     id="path62" />
  <path
     fill="#cedc4e"
     d=" M 522.61 352.13 C 532.16 352.69 539.75 359.90 544.11 367.93 C 549.80 377.87 550.03 390.43 546.00 400.99 C 537.20 401.83 529.77 395.61 525.38 388.58 C 519.10 377.65 517.95 363.88 522.61 352.13 Z"
     id="path64" />
  <path
     fill="#cedc4e"
     d=" M 666.45 389.65 C 661.66 377.47 662.78 363.03 669.74 351.88 C 681.59 354.90 688.69 366.64 690.69 378.03 C 692.01 383.69 690.40 389.39 689.59 394.99 C 689.12 398.61 687.18 401.74 685.50 404.90 C 676.54 404.60 670.08 397.15 666.45 389.65 Z"
     id="path66" />
  <path
     fill="#cedc4e"
     d=" M 635.69 382.03 C 636.94 372.45 641.69 362.93 649.58 357.14 C 658.49 363.82 659.16 376.80 655.29 386.43 C 652.47 391.80 649.65 397.39 644.84 401.29 C 637.29 398.43 634.73 389.37 635.69 382.03 Z"
     id="path68" />
  <path
     fill="#cedc4e"
     d=" M 617.44 368.66 C 621.44 367.81 625.47 368.76 629.37 369.71 C 631.41 381.94 625.90 394.67 616.56 402.54 C 608.36 409.81 597.03 413.07 586.19 411.56 C 588.29 410.28 590.34 408.93 592.38 407.54 C 589.33 406.86 586.23 406.36 583.10 406.42 C 583.32 392.76 592.00 380.34 603.17 373.04 C 607.32 370.04 612.57 369.64 617.44 368.66 Z"
     id="path70" />
  <path
     fill="#cedc4e"
     d=" M 717.63 369.67 C 721.10 368.51 724.87 367.64 728.53 368.37 C 733.15 378.95 727.64 390.58 720.65 398.66 C 716.45 404.34 709.72 406.98 703.48 409.72 C 700.48 410.93 697.21 411.10 694.05 411.54 C 691.40 406.46 690.67 400.44 692.65 395.00 C 695.81 382.83 706.49 374.36 717.63 369.67 Z"
     id="path72" />
  <path
     fill="#cedc4e"
     d=" M 369.18 372.60 C 374.48 375.74 378.63 380.53 380.60 386.41 C 383.84 395.65 383.95 406.34 379.24 415.12 C 377.53 420.03 374.68 424.38 370.82 427.87 C 362.49 425.27 358.16 416.81 356.48 408.84 C 354.71 395.67 359.48 381.73 369.18 372.60 Z"
     id="path74" />
  <path
     fill="#cedc4e"
     d=" M 282.39 391.32 C 296.37 387.13 312.27 392.32 321.59 403.42 C 325.74 407.56 326.63 413.57 327.97 419.01 C 328.97 422.81 327.98 426.69 327.41 430.47 C 319.28 433.94 309.81 433.60 301.75 430.09 C 286.93 424.30 278.68 406.53 282.39 391.32 Z"
     id="path76" />
  <path
     fill="#cedc4e"
     d=" M 455.26 422.79 C 448.75 412.78 449.68 398.91 456.80 389.46 C 463.65 390.21 470.41 392.65 475.45 397.48 C 482.02 403.57 486.62 412.88 484.42 421.95 C 484.02 426.63 481.95 430.87 479.37 434.71 C 469.88 435.55 460.60 430.49 455.26 422.79 Z"
     id="path78" />
  <path
     fill="#cedc4e"
     d=" M 718.83 407.84 C 732.30 398.16 751.31 396.27 766.15 403.91 C 765.56 413.24 760.83 421.82 753.96 428.03 C 744.92 436.28 732.52 441.96 720.08 439.92 C 714.57 440.15 709.50 438.07 704.58 435.88 C 703.47 424.68 710.38 414.49 718.83 407.84 Z"
     id="path80" />
  <path
     fill="#5d512e"
     d=" M 441.28 401.11 C 441.72 401.29 442.62 401.63 443.06 401.81 C 447.38 416.24 452.28 430.55 458.70 444.20 C 466.63 459.76 475.46 475.55 489.27 486.70 C 494.09 490.15 500.02 493.13 506.10 492.36 C 512.64 489.86 516.31 483.31 519.69 477.58 C 528.46 462.00 537.25 446.35 547.97 432.01 C 554.10 425.41 559.66 418.06 567.37 413.18 C 571.92 409.61 577.52 407.68 583.10 406.42 C 586.23 406.36 589.33 406.86 592.38 407.54 C 590.34 408.93 588.29 410.28 586.19 411.56 C 572.67 419.84 562.00 431.97 552.63 444.60 C 541.72 460.60 533.02 478.24 527.97 496.98 C 524.76 509.07 522.73 521.43 521.18 533.83 C 519.91 543.46 520.34 553.21 519.46 562.87 C 519.53 582.47 520.14 602.11 522.60 621.57 C 524.73 640.37 527.44 659.15 532.20 677.48 C 534.63 689.31 538.47 700.81 540.83 712.63 C 537.23 712.73 533.65 711.23 531.65 708.17 C 524.96 698.78 522.48 687.23 520.25 676.12 C 518.19 668.67 517.12 661.01 515.54 653.46 C 511.95 653.38 508.37 653.51 504.78 653.59 C 502.61 666.82 500.84 680.47 494.71 692.59 C 492.07 697.33 488.92 702.45 483.59 704.47 C 480.83 705.75 477.74 705.60 474.79 705.64 C 478.07 695.14 482.10 684.85 484.65 674.12 C 493.65 638.03 502.70 601.41 502.69 563.98 C 502.30 546.07 498.63 527.61 488.41 512.58 C 483.68 504.54 477.17 497.83 471.60 490.42 C 463.86 481.20 457.00 471.15 451.82 460.28 C 446.22 448.16 443.45 434.99 441.80 421.81 C 441.57 414.91 440.27 408.00 441.28 401.11 Z"
     id="path82" />
  <path
     fill="#cedc4e"
     d=" M 511.64 404.70 C 518.96 401.51 527.20 399.81 535.10 401.65 C 537.18 407.16 539.88 412.86 538.89 418.91 C 537.21 425.87 533.88 432.61 528.38 437.33 C 524.72 440.78 519.67 441.89 515.01 443.32 C 510.21 444.82 505.01 444.98 500.09 444.00 C 493.92 436.98 492.80 426.31 497.05 418.04 C 500.21 412.13 505.33 407.12 511.64 404.70 Z"
     id="path84" />
  <path
     fill="#cedc4e"
     d=" M 222.32 406.72 C 234.88 399.40 250.81 400.39 263.67 406.40 C 268.55 408.50 271.97 412.69 275.45 416.53 C 277.73 419.01 278.68 422.32 279.87 425.40 C 272.12 431.89 261.35 432.62 251.75 431.20 C 238.80 428.61 226.07 419.90 222.32 406.72 Z"
     id="path86" />
  <path
     fill="#cedc4e"
     d=" M 400.52 437.40 C 393.97 426.75 395.44 412.44 402.93 402.65 C 410.83 403.37 418.65 406.12 424.53 411.59 C 431.56 417.99 436.79 427.84 434.34 437.52 C 433.95 442.77 431.55 447.45 428.53 451.65 C 417.54 452.42 406.34 446.74 400.52 437.40 Z"
     id="path88" />
  <path
     fill="#cedc4e"
     d=" M 340.01 438.06 C 334.89 427.71 333.78 415.10 338.27 404.34 C 346.36 405.48 352.78 411.40 356.52 418.38 C 362.18 428.04 362.07 440.13 358.93 450.60 C 350.56 451.37 343.67 444.97 340.01 438.06 Z"
     id="path90" />
  <path
     fill="#cedc4e"
     d=" M 606.90 419.81 C 613.54 408.83 627.67 404.21 639.90 406.14 C 641.87 407.74 642.36 410.58 643.17 412.90 C 646.06 423.65 640.40 435.44 630.98 440.95 C 624.06 444.06 616.39 445.48 608.83 444.53 C 603.55 437.57 602.46 427.45 606.90 419.81 Z"
     id="path92" />
  <path
     fill="#cedc4e"
     d=" M 656.04 407.21 C 660.85 405.51 666.08 404.71 671.09 406.08 C 681.19 408.59 690.69 415.18 695.21 424.75 C 697.94 429.04 699.67 433.88 699.94 438.99 C 691.72 443.91 681.11 441.65 673.62 436.42 C 664.16 429.69 656.84 419.01 656.04 407.21 Z"
     id="path94" />
  <path
     fill="#cedc4e"
     d=" M 382.09 424.86 C 389.59 427.53 395.06 434.14 397.42 441.61 C 399.24 447.46 400.52 453.70 399.62 459.83 C 398.07 466.86 395.97 473.99 391.28 479.62 C 381.82 477.79 376.27 468.68 373.95 460.04 C 371.57 447.98 373.79 434.30 382.09 424.86 Z"
     id="path96" />
  <path
     fill="#cedc4e"
     d=" M 582.66 432.73 C 587.51 430.45 592.94 430.14 598.21 430.09 C 601.45 443.55 592.81 456.82 581.73 463.74 C 575.19 466.93 568.17 469.68 560.76 469.46 C 558.72 464.41 558.51 458.64 560.61 453.57 C 564.22 443.64 573.15 436.65 582.66 432.73 Z"
     id="path98" />
  <path
     fill="#cedc4e"
     d=" M 637.36 450.01 C 636.80 442.61 639.06 435.12 643.59 429.25 C 652.31 430.68 661.01 433.43 667.96 439.08 C 676.08 445.65 683.03 454.47 684.95 464.95 C 685.31 469.15 684.54 473.36 684.25 477.56 C 683.93 481.99 681.24 485.67 679.12 489.40 C 665.96 489.69 653.36 482.97 645.16 472.91 C 640.49 466.24 636.98 458.31 637.36 450.01 Z"
     id="path100" />
  <path
     fill="#cedc4e"
     d=" M 285.77 436.25 C 297.82 432.65 311.81 434.16 322.10 441.69 C 320.45 445.04 319.14 448.71 316.35 451.33 C 309.45 458.13 299.61 461.71 289.99 461.66 C 282.52 460.62 274.64 459.68 268.41 455.02 C 269.36 445.73 277.56 439.26 285.77 436.25 Z"
     id="path102" />
  <path
     fill="#cedc4e"
     d=" M 468.56 441.89 C 475.79 439.01 485.12 439.42 490.82 445.24 C 494.74 449.08 495.71 454.95 494.32 460.13 C 488.35 461.33 481.79 462.00 476.32 458.75 C 469.85 456.23 466.36 448.41 468.56 441.89 Z"
     id="path104" />
  <path
     fill="#5d512e"
     d=" M 553.29 454.23 C 555.81 449.78 558.71 445.52 562.36 441.90 C 562.46 442.27 562.65 443.02 562.74 443.39 L 561.94 443.56 C 558.88 449.80 556.59 456.35 553.79 462.71 C 546.92 478.52 542.11 495.14 538.36 511.95 C 536.86 521.81 533.96 531.95 536.58 541.88 C 538.60 541.74 540.87 542.08 542.58 540.72 C 549.16 535.96 554.03 529.34 559.41 523.34 C 569.79 510.78 581.26 498.63 595.84 490.93 C 599.33 488.96 602.97 487.15 606.94 486.35 C 595.73 499.51 579.63 507.31 568.79 520.83 C 560.97 528.99 555.29 538.97 551.14 549.42 C 550.04 552.31 549.02 555.23 548.09 558.18 C 544.85 568.11 543.75 578.56 543.02 588.94 C 542.06 600.27 542.71 611.67 544.22 622.92 C 545.16 630.57 547.67 637.90 549.90 645.24 C 552.44 653.18 557.01 660.70 564.16 665.27 C 560.85 665.84 557.44 667.19 554.09 666.44 C 547.97 659.69 544.30 650.93 542.56 642.06 C 540.87 633.69 539.00 625.34 538.07 616.85 C 536.15 618.61 534.21 620.35 532.25 622.08 C 534.27 642.81 538.68 663.53 547.37 682.56 C 548.81 685.44 550.31 688.32 550.98 691.50 C 550.47 691.52 549.46 691.55 548.95 691.57 C 547.70 692.22 546.40 692.78 545.13 693.39 C 544.37 693.40 542.83 693.43 542.07 693.44 C 539.25 683.32 536.86 673.08 533.57 663.10 C 530.42 652.28 528.87 641.11 527.07 630.02 C 523.72 611.85 522.39 593.39 521.75 574.95 C 521.61 567.60 521.47 560.23 522.45 552.93 C 522.96 536.67 525.87 520.59 529.98 504.89 C 535.56 487.13 542.85 469.71 553.29 454.23 Z"
     id="path106" />
  <path
     fill="#cedc4e"
     d=" M 710.00 451.15 C 724.49 441.74 747.81 449.08 752.57 466.18 C 744.56 470.01 735.16 470.51 726.80 467.51 C 719.05 465.21 712.20 459.02 710.00 451.15 Z"
     id="path108" />
  <path
     fill="#cedc4e"
     d=" M 597.42 464.32 C 601.61 457.90 607.55 452.35 614.85 449.73 C 616.14 452.30 617.70 455.04 617.17 458.04 C 615.79 468.29 608.13 476.66 599.22 481.28 C 597.05 482.74 594.93 480.46 594.38 478.46 C 592.69 473.61 595.00 468.50 597.42 464.32 Z"
     id="path110" />
  <path
     fill="#5d512e"
     d=" M 504.40 455.66 C 509.41 454.12 516.09 455.62 518.06 461.00 C 520.45 469.67 514.21 478.82 505.95 481.45 C 498.83 484.24 490.45 477.42 491.09 469.94 C 491.09 462.60 497.66 457.10 504.40 455.66 Z"
     id="path112" />
  <path
     fill="#cedc4e"
     d=" M 321.43 457.20 C 325.25 456.12 329.26 455.38 333.24 455.78 C 335.02 459.29 334.57 463.58 334.48 467.43 C 333.01 479.59 325.89 490.78 316.26 498.18 C 309.11 501.72 301.80 506.05 293.49 505.36 C 290.58 498.73 290.79 491.07 293.41 484.38 C 297.71 471.48 308.83 461.70 321.43 457.20 Z"
     id="path114" />
  <path
     fill="#cedc4e"
     d=" M 352.54 462.40 C 357.24 458.81 362.94 456.81 368.75 455.96 C 374.65 468.41 368.29 483.02 358.95 491.90 C 353.01 496.11 346.68 500.68 339.17 501.22 C 335.82 496.93 335.01 491.12 336.16 485.89 C 337.74 476.07 344.57 467.93 352.54 462.40 Z"
     id="path116" />
  <path
     fill="#cedc4e"
     d=" M 408.19 465.11 C 412.22 461.66 417.87 460.98 422.96 461.72 C 430.22 462.90 437.01 466.63 442.07 471.95 C 446.56 477.35 450.28 483.50 451.94 490.39 C 446.16 496.55 436.45 495.95 429.36 492.59 C 418.75 487.18 410.76 476.71 408.19 465.11 Z"
     id="path118" />
  <path
     fill="#cedc4e"
     d=" M 688.18 465.69 C 698.40 459.46 711.44 462.87 720.69 469.32 C 725.42 472.23 728.40 477.02 731.52 481.46 C 733.69 484.46 734.70 488.07 735.85 491.55 C 729.80 497.07 720.74 496.65 713.43 494.30 C 701.12 489.51 691.39 478.52 688.18 465.69 Z"
     id="path120" />
  <path
     fill="#cedc4e"
     d=" M 624.64 503.39 C 618.10 492.36 619.15 477.89 626.00 467.25 C 643.29 468.02 657.84 486.02 654.08 503.08 C 653.71 507.98 651.53 512.41 649.00 516.53 C 639.19 517.22 629.74 511.59 624.64 503.39 Z"
     id="path122" />
  <path
     fill="#5d512e"
     d=" M 448.04 468.77 C 460.33 486.92 478.94 500.18 489.12 519.84 C 492.82 528.15 496.40 536.74 497.34 545.88 C 499.71 558.75 500.09 571.98 498.70 584.99 C 497.34 604.95 493.46 624.65 488.50 644.01 C 485.22 656.45 482.10 668.99 477.03 680.86 C 475.33 684.78 473.89 688.96 471.04 692.24 C 468.84 691.87 466.68 691.41 464.51 691.03 C 464.42 690.53 464.25 689.51 464.17 689.01 C 472.16 678.24 477.31 665.60 480.29 652.58 C 482.24 644.78 484.00 636.89 484.77 628.88 C 485.11 627.09 483.00 626.58 481.91 625.74 C 479.54 640.45 477.06 656.34 466.93 667.98 C 464.60 671.12 460.26 669.26 457.03 669.21 C 467.37 657.84 471.60 642.63 475.22 628.07 C 477.50 616.27 479.46 604.19 478.02 592.16 C 476.32 583.80 473.13 575.72 468.27 568.68 C 464.49 561.78 458.60 556.46 452.93 551.15 C 443.04 543.90 433.06 536.74 423.66 528.86 C 420.22 526.03 416.95 523.02 413.83 519.85 C 409.55 515.17 405.03 510.43 402.58 504.48 C 400.33 499.36 397.41 494.46 396.18 488.95 C 398.84 492.02 400.90 495.52 403.26 498.81 C 403.47 499.08 403.89 499.62 404.10 499.89 C 409.37 506.22 414.87 512.45 421.45 517.46 C 430.94 524.67 440.68 531.55 450.20 538.73 C 455.67 542.63 460.90 546.92 466.73 550.30 C 468.90 551.76 471.57 551.60 474.07 551.48 C 475.98 545.15 475.73 538.51 476.19 531.99 C 475.68 520.12 471.77 508.51 465.50 498.45 C 460.49 489.85 454.30 481.96 449.70 473.13 C 449.22 471.64 448.53 470.24 448.04 468.77 Z"
     id="path124" />
  <path
     fill="#cedc4e"
     d=" M 565.46 483.33 C 569.01 473.23 580.43 468.13 590.57 468.33 C 592.75 474.20 591.52 480.84 587.76 485.78 C 583.05 492.82 574.18 495.85 566.01 495.48 C 564.60 491.59 563.78 487.29 565.46 483.33 Z"
     id="path126" />
  <path
     fill="#cedc4e"
     d=" M 401.39 488.24 C 407.37 484.22 416.63 486.56 420.01 492.96 C 421.91 495.95 421.77 499.59 421.82 502.99 C 415.92 505.37 408.68 504.49 404.10 499.89 C 403.89 499.62 403.47 499.08 403.26 498.81 C 401.40 495.74 400.06 491.75 401.39 488.24 Z"
     id="path128" />
  <path
     fill="#cedc4e"
     d=" M 607.77 516.32 C 603.37 509.29 601.92 500.35 604.31 492.37 C 611.79 492.94 618.32 497.64 622.04 504.02 C 626.23 510.33 626.21 518.27 625.37 525.52 C 618.14 526.90 611.45 522.20 607.77 516.32 Z"
     id="path130" />
  <path
     fill="#cedc4e"
     d=" M 353.73 504.74 C 364.66 496.29 380.18 494.59 392.75 500.22 C 396.60 502.05 399.69 505.06 402.69 508.02 C 398.19 522.74 385.97 534.39 371.55 539.36 C 366.42 540.94 360.81 542.59 355.53 540.69 C 350.24 538.84 344.08 538.37 339.97 534.16 C 338.77 532.89 337.06 531.82 336.61 530.06 C 338.19 519.60 345.45 510.88 353.73 504.74 Z"
     id="path132" />
  <path
     fill="#cedc4e"
     d=" M 658.21 510.22 C 665.34 503.38 674.06 497.85 683.97 496.28 C 687.28 500.85 689.90 506.14 689.67 511.94 C 689.55 521.47 685.16 530.81 678.21 537.28 C 671.52 542.36 664.22 546.95 655.82 548.47 C 651.14 544.33 648.14 538.36 648.49 532.02 C 648.19 523.67 652.78 516.18 658.21 510.22 Z"
     id="path134" />
  <path
     fill="#cedc4e"
     d=" M 430.34 501.20 C 438.45 497.41 450.02 498.82 454.88 507.04 C 457.29 510.63 457.21 515.10 456.33 519.18 C 450.10 520.53 443.22 520.98 437.59 517.43 C 431.53 514.78 428.73 507.41 430.34 501.20 Z"
     id="path136" />
  <path
     fill="#cedc4e"
     d=" M 312.31 501.49 C 319.01 498.39 327.60 498.59 333.31 503.62 C 337.58 507.15 339.02 512.92 338.40 518.26 C 330.86 521.06 321.55 520.11 315.76 514.17 C 312.43 510.88 312.05 505.90 312.31 501.49 Z"
     id="path138" />
  <path
     fill="#cedc4e"
     d=" M 708.27 503.45 C 718.52 502.48 729.52 503.88 738.20 509.79 C 743.72 514.98 750.61 519.69 752.20 527.64 C 745.02 534.68 734.52 536.59 724.82 535.64 C 714.47 534.21 704.88 528.83 697.95 521.07 C 695.16 517.90 692.93 514.23 692.01 510.08 C 696.94 506.84 702.32 504.13 708.27 503.45 Z"
     id="path140" />
  <path
     fill="#5d512e"
     d=" M 546.33 510.24 C 549.06 508.76 553.04 509.26 554.87 511.96 C 557.94 516.13 556.62 521.87 554.49 526.17 C 552.57 530.40 548.97 534.61 543.99 534.83 C 539.40 534.36 537.45 528.99 537.56 524.98 C 538.04 519.14 540.99 513.08 546.33 510.24 Z"
     id="path142" />
  <path
     fill="#cedc4e"
     d=" M 586.74 517.80 C 595.51 515.01 606.12 518.05 611.79 525.36 C 610.74 535.20 601.68 542.80 592.20 544.20 C 603.06 544.73 613.08 550.93 619.69 559.35 C 623.54 566.09 627.11 573.27 627.45 581.19 C 620.27 585.80 610.94 584.02 603.95 579.94 C 592.27 572.83 584.56 559.67 583.80 546.05 C 585.70 545.65 587.61 545.26 589.53 544.90 C 583.15 543.46 576.65 541.11 572.28 536.00 C 573.38 527.91 578.95 520.49 586.74 517.80 Z"
     id="path144" />
  <path
     fill="#cedc4e"
     d=" M 395.55 529.50 C 400.04 524.17 406.90 521.97 413.03 519.15 L 413.83 519.85 C 416.95 523.02 420.22 526.03 423.66 528.86 C 424.20 533.29 422.35 537.71 420.66 541.74 C 413.75 553.83 400.53 563.17 386.27 562.89 C 382.25 551.06 387.51 538.31 395.55 529.50 Z"
     id="path146" />
  <path
     fill="#5d512e"
     d=" M 460.39 526.64 C 465.12 523.86 471.50 526.31 473.55 531.29 C 475.68 536.59 475.31 544.03 470.10 547.47 C 458.97 551.29 450.62 532.61 460.39 526.64 Z"
     id="path148" />
  <path
     fill="#cedc4e"
     d=" M 607.96 537.13 C 620.19 528.99 637.78 533.20 646.83 544.22 C 648.65 546.53 649.54 549.39 650.54 552.12 C 642.47 555.91 633.04 556.44 624.65 553.39 C 616.94 551.10 610.26 544.89 607.96 537.13 Z"
     id="path150" />
  <path
     fill="#cedc4e"
     d=" M 422.41 560.01 C 423.27 553.14 424.75 545.98 429.25 540.48 C 438.39 543.20 444.56 551.62 447.47 560.33 C 450.79 571.57 450.08 585.12 442.08 594.29 C 429.27 588.28 422.57 573.63 422.41 560.01 Z"
     id="path152" />
  <path
     fill="#cedc4e"
     d=" M 551.14 549.42 C 561.62 547.79 572.17 552.09 579.70 559.29 C 583.43 562.46 585.54 566.95 587.86 571.15 C 589.73 574.61 591.18 578.55 590.67 582.54 C 584.38 586.98 575.98 585.60 569.35 582.70 C 559.27 577.86 552.16 568.39 548.09 558.18 C 549.02 555.23 550.04 552.31 551.14 549.42 Z"
     id="path154" />
  <path
     d="m 432.04,727.58 c 6.65,-1.3 13.69,1.95 17.56,7.4 2.82,3.79 2.58,9.01 1.25,13.34 -0.63,2.68 -4.09,2.22 -6.2,2.21 -6,-0.14 -11.33,-4.23 -13.67,-9.63 -1.21,-4.32 -1.44,-9.41 1.06,-13.32 z"
     id="path218"
     inkscape:connector-curvature="0"
     style="fill:#cedc4e" />
  <text
     xml:space="preserve"
     style="font-style:normal;font-weight:normal;font-size:32px;line-height:125%;font-family:sans-serif;letter-spacing:0px;word-spacing:0px;fill:#5d512e;fill-opacity:1;stroke:none;stroke-width:1px;stroke-linecap:butt;stroke-linejoin:miter;stroke-opacity:1;"
     x="39.676071"
     y="683.41107"
     id="text3445"
     sodipodi:linespacing="125%"><tspan
       sodipodi:role="line"
       id="tspan3447"
       x="39.676071"
       y="683.41107"
       style="font-style:normal;font-variant:normal;font-weight:normal;font-stretch:normal;font-size:70px;font-family:Stentiga;-inkscape-font-specification:Stentiga;fill:#5d512e;fill-opacity:1;">PLANTEAZA</tspan></text>
  <text
     xml:space="preserve"
     style="font-style:normal;font-weight:normal;font-size:32px;line-height:125%;font-family:sans-serif;letter-spacing:0px;word-spacing:0px;fill:#5d512e;fill-opacity:1;stroke:none;stroke-width:1px;stroke-linecap:butt;stroke-linejoin:miter;stroke-opacity:1;"
     x="584.85596"
     y="684.85168"
     id="text3449"
     sodipodi:linespacing="125%"><tspan
       sodipodi:role="line"
       id="tspan3451"
       x="584.85596"
       y="684.85168"
       style="font-style:normal;font-variant:normal;font-weight:normal;font-stretch:normal;font-size:70px;font-family:Stentiga;-inkscape-font-specification:Stentiga;letter-spacing:8px;fill:#5d512e;fill-opacity:1;">ROMANIA</tspan></text>
  <text
     xml:space="preserve"
     style="font-style:normal;font-weight:normal;font-size:30px;line-height:125%;font-family:sans-serif;letter-spacing:0px;word-spacing:0px;fill:#cedc4e;fill-opacity:1;stroke:none;stroke-width:1px;stroke-linecap:butt;stroke-linejoin:miter;stroke-opacity:1"
     x="460.68216"
     y="747.75281"
     id="text4253"
     sodipodi:linespacing="125%"><tspan
       sodipodi:role="line"
       id="tspan4255"
       x="460.68216"
       y="747.75281"
       style="font-style:normal;font-variant:normal;font-weight:normal;font-stretch:normal;font-size:32px;font-family:Stentiga;-inkscape-font-specification:Stentiga;fill:#cedc4e;fill-opacity:1">PENTRU</tspan></text>
</svg>
