<?xml version="1.0" standalone="no"?>
<!DOCTYPE svg PUBLIC "-//W3C//DTD SVG 1.1//EN" "http://www.w3.org/Graphics/SVG/1.1/DTD/svg11.dtd" >
<svg xmlns="http://www.w3.org/2000/svg">
<metadata></metadata>
<defs>
<font id="gobold_highregular" horiz-adv-x="567" >
<font-face units-per-em="2048" ascent="1638" descent="-410" />
<missing-glyph horiz-adv-x="299" />
<glyph horiz-adv-x="0" />
<glyph unicode="&#xd;" horiz-adv-x="508" />
<glyph unicode=" "  horiz-adv-x="299" />
<glyph unicode="&#x09;" horiz-adv-x="299" />
<glyph unicode="&#xa0;" horiz-adv-x="299" />
<glyph unicode="!" horiz-adv-x="323" d="M80 0v163h163v-163h-163zM80 1992h163l-11 -1727h-141z" />
<glyph unicode="&#x22;" horiz-adv-x="524" d="M80 1963h148l-17 -326h-114zM296 1963h148l-17 -326h-114z" />
<glyph unicode="#" horiz-adv-x="757" d="M80 751v77h99l32 323h-88v77h96l73 734h118l-73 -734h123l73 734h118l-73 -734h99v-77h-107l-32 -323h96v-77h-103l-75 -751h-119l75 751h-122l-75 -751h-119l75 751h-91zM297 828h123l32 323h-123z" />
<glyph unicode="$" d="M80 175v470h142v-470q0 -67 62 -67q61 0 61 67v604q0 71 -132 166q-133 94 -133 230v612q0 174 145 201v182h116v-182q146 -27 146 -201v-471h-142v471q0 66 -61 66h-1q-61 0 -61 -66v-609q0 -66 132 -161q133 -94 133 -226v-616q0 -175 -145 -202v-203h-116v203 q-146 28 -146 202z" />
<glyph unicode="%" horiz-adv-x="882" d="M80 1214v659q0 121 120 121q119 0 119 -121v-659q0 -121 -119 -121q-120 0 -120 121zM163 1214q0 -39 37 -39q36 0 36 39v659q0 39 -36 39h-1q-36 0 -36 -39v-659zM209 0l362 1962h87l-361 -1962h-88zM563 99v659q0 121 120 121q119 0 119 -121v-659q0 -121 -119 -121 q-120 0 -120 121zM646 99q0 -39 37 -39q36 0 36 39v659q0 39 -36 39h-1q-36 0 -36 -39v-659z" />
<glyph unicode="&#x26;" horiz-adv-x="681" d="M80 175v675q0 96 78 136q-78 40 -78 137v667q0 206 204 206q203 0 203 -206v-293h-141v293q0 66 -62 67h-1q-61 -1 -61 -67v-666q0 -50 18 -60q10 -6 30 -6h76v231h141v-231h114v-140h-114v-743q0 -206 -203 -206q-204 0 -204 206zM222 175q0 -66 61 -66h1q62 0 62 66 v743h-65q-25 0 -37 -5q-22 -10 -22 -63v-675z" />
<glyph unicode="'" horiz-adv-x="308" d="M80 1963h148l-17 -326h-114z" />
<glyph unicode="(" horiz-adv-x="357" d="M80 56v1850q0 203 197 206v-116q-55 -2 -55 -67v-1897q0 -65 55 -66v-117q-197 3 -197 207z" />
<glyph unicode=")" horiz-adv-x="357" d="M80 -34q56 1 56 66v1897q0 65 -56 67v116q197 -3 197 -206v-1850q0 -204 -197 -207v117z" />
<glyph unicode="*" horiz-adv-x="546" d="M80 1846q0 14 6 31q15 48 49 48q15 0 34 -9q30 -16 89 -80q-44 80 -48 113q-1 6 -1 12q0 52 63 52h2q63 0 63 -49q0 -8 -2 -17q-6 -35 -48 -110q63 67 93 81q17 8 31 8q33 0 49 -48q6 -18 6 -32q0 -41 -50 -48q-8 -1 -18 -1q-35 0 -101 13q83 -39 106 -64q19 -20 19 -39 q0 -26 -32 -49q-25 -19 -45 -19q-28 0 -45 36q-16 31 -26 117q-11 -91 -28 -120q-17 -32 -44 -32q-19 0 -44 17q-33 24 -33 49q0 20 22 42q24 24 103 60q-65 -13 -100 -13q-14 0 -23 2q-47 9 -47 49z" />
<glyph unicode="+" horiz-adv-x="564" d="M80 923v117h144v143h116v-143h144v-117h-144v-143h-116v143h-144z" />
<glyph unicode="," horiz-adv-x="336" d="M80 0v163h176v-144l-54 -182h-92l29 163h-59z" />
<glyph unicode="-" horiz-adv-x="430" d="M80 943v77h270v-77h-270z" />
<glyph unicode="." horiz-adv-x="323" d="M80 0v163h163v-163h-163z" />
<glyph unicode="/" horiz-adv-x="354" d="M20 -1l196 1963h118l-195 -1963h-119z" />
<glyph unicode="0" d="M80 187v1587q0 206 203 206q204 0 204 -206v-1587q0 -206 -204 -207q-203 0 -203 207zM222 187q0 -67 61 -67q62 0 62 67v1587q0 66 -61 66h-1q-61 0 -61 -66v-1587z" />
<glyph unicode="1" d="M100 0v140h133v1683h-133v139h274v-1822h139v-140h-413z" />
<glyph unicode="2" d="M80 0v618q0 136 133 230q132 95 132 166v761q0 67 -61 67q-62 0 -62 -67v-459h-142v459q0 206 204 207q203 0 203 -207v-773q0 -132 -133 -226q-132 -95 -132 -161v-475h265v-140h-407z" />
<glyph unicode="3" d="M80 186v460h142v-460q0 -66 61 -66h1q61 0 61 66v662q0 53 -22 63q-12 5 -37 5h-72v140h83q20 0 30 6q18 10 18 60v653q0 66 -61 67h-1q-61 0 -61 -67v-459h-142v459q0 206 203 206q204 0 204 -206v-654q0 -97 -78 -137q78 -40 78 -136v-662q0 -206 -204 -206 q-203 0 -203 206z" />
<glyph unicode="4" d="M50 411v124l248 1428h181v-1413h54v-139h-54v-411h-142v411h-287zM190 550h147v1029z" />
<glyph unicode="5" d="M80 186v460h142v-460q0 -66 61 -66h1q61 0 61 66v852q0 52 -22 61q-12 6 -38 6q-7 0 -14 -1q-43 -2 -48 -38l-1 -40h-142l78 935h329v-140h-211l-49 -622q36 42 98 42q9 0 18 -1q74 -7 112 -60q32 -43 32 -142v-852q0 -206 -204 -206q-203 0 -203 206z" />
<glyph unicode="6" d="M80 186v1588q0 207 203 207q204 0 204 -207v-458h-142v458q0 67 -61 67h-1q-61 0 -61 -67v-668q39 35 97 35q11 0 22 -1q68 -7 106 -48q40 -43 40 -153v-753q0 -206 -204 -206q-203 0 -203 206zM222 186q0 -66 61 -66q62 0 62 66v753q0 53 -22 62q-12 5 -38 5h-14 q-49 -2 -49 -67v-753z" />
<glyph unicode="7" d="M70 1823v139h419v-100l-198 -1862h-145l189 1823h-265z" />
<glyph unicode="8" d="M80 186v664q0 96 78 136q-78 40 -78 137v652q0 206 204 206q203 0 203 -206v-652q0 -97 -77 -137q77 -40 77 -136v-664q0 -206 -203 -206q-204 0 -204 206zM222 186q0 -66 61 -66h1q62 0 62 66v664q0 53 -23 63q-12 5 -37 5h-5q-25 0 -37 -5q-22 -10 -22 -63v-664z M222 1124q0 -50 18 -60q10 -6 30 -6h27q20 0 30 6q19 10 19 60v651q0 66 -62 67h-1q-61 -1 -61 -67v-651z" />
<glyph unicode="9" d="M80 187v458h142v-458q0 -67 61 -67h1q61 0 61 67v668q-39 -35 -97 -35q-11 0 -22 1q-68 7 -106 48q-40 43 -40 153v753q0 206 204 206q203 0 203 -206v-1588q0 -207 -203 -207q-204 0 -204 207zM222 1022q0 -53 22 -62q12 -5 38 -5h14q49 2 49 67v753q0 66 -61 66 q-62 0 -62 -66v-753z" />
<glyph unicode=":" horiz-adv-x="323" d="M80 0v163h163v-163h-163zM80 1069v163h163v-163h-163z" />
<glyph unicode=";" horiz-adv-x="336" d="M80 0v163h176v-144l-54 -182h-92l29 163h-59zM80 1069v163h163v-163h-163z" />
<glyph unicode="&#x3c;" horiz-adv-x="564" d="M80 907v145l404 226v-137l-294 -160l294 -156v-137z" />
<glyph unicode="=" horiz-adv-x="564" d="M80 807v116h404v-116h-404zM80 1039v116h404v-116h-404z" />
<glyph unicode="&#x3e;" horiz-adv-x="564" d="M80 687v137l294 156l-294 160v137l404 -226v-145z" />
<glyph unicode="?" d="M80 1314v476q0 206 204 206q203 0 203 -206v-933q0 -124 -100 -223q-99 -99 -99 -173v-187h-142v199q0 123 100 221q99 99 99 167v929q0 66 -61 66h-1q-61 0 -61 -66v-476h-142zM138 0v163h163v-163h-163z" />
<glyph unicode="@" horiz-adv-x="772" d="M80 473v990q0 304 306 304t305 -297v-356q0 -136 -133 -136h-55v-499q0 -136 -134 -136q-133 0 -133 136v455q0 136 133 136h41v394q0 43 -40 43h-1q-40 0 -40 -43v-35h-93v35q0 135 133 135q134 0 134 -135v-394h55q40 0 40 44v356q0 206 -212 206t-212 -213v-990 q0 -206 212 -206t212 212v21h94v-21q0 -304 -306 -304t-306 298zM321 479q0 -44 40 -44q41 0 41 44v499h-41q-40 0 -40 -44v-455z" />
<glyph unicode="A" horiz-adv-x="546" d="M30 0l46 694l100 1268h194l100 -1266l46 -696h-143l-31 494h-138l-31 -494h-143zM212 634h122l-61 977z" />
<glyph unicode="B" horiz-adv-x="557" d="M80 0v1962h218q189 0 189 -206v-638q0 -96 -78 -136q78 -40 78 -137v-639q0 -205 -198 -206h-209zM222 140h62q61 0 61 66v639q0 47 -38 62q-11 5 -41 5h-44v-772zM222 1052h44q30 0 41 4q38 15 38 62v638q0 67 -61 67h-62v-771z" />
<glyph unicode="C" horiz-adv-x="557" d="M80 187v1588q0 206 203 206q204 0 204 -206v-459h-142v459q0 66 -61 66h-1q-61 0 -61 -66v-1588q0 -67 61 -67q62 0 62 67v458h142v-458q0 -206 -204 -207q-203 0 -203 207z" />
<glyph unicode="D" horiz-adv-x="557" d="M80 0v1962h218q189 0 189 -206v-1550q0 -205 -198 -206h-209zM222 140h62q61 0 61 66v1550q0 67 -61 67h-62v-1683z" />
<glyph unicode="E" horiz-adv-x="487" d="M80 0v1962h367v-139h-225v-771h194v-140h-194v-772h225v-140h-367z" />
<glyph unicode="F" horiz-adv-x="487" d="M80 0v1962h367v-139h-225v-771h194v-140h-194v-912h-142z" />
<glyph unicode="G" horiz-adv-x="557" d="M80 187v1589q0 206 203 206q204 0 204 -206v-460h-142v460q0 66 -61 66h-1q-61 0 -61 -66v-1589q0 -67 61 -67q62 0 62 67v725h-63v140h205v-865q0 -206 -204 -207q-203 0 -203 207z" />
<glyph unicode="H" d="M80 0v1962h142v-910h123v910h142v-1962h-142v912h-123v-912h-142z" />
<glyph unicode="I" horiz-adv-x="312" d="M85 0v1962h142v-1962h-142z" />
<glyph unicode="J" horiz-adv-x="547" d="M60 187v459h142v-459q0 -67 62 -67q61 0 61 67v1775h142v-1775q0 -207 -203 -207q-204 1 -204 207z" />
<glyph unicode="K" horiz-adv-x="554" d="M80 0v1962h142v-873l150 873h152l-187 -981l187 -981h-152l-150 872v-872h-142z" />
<glyph unicode="L" horiz-adv-x="477" d="M80 0v1962h142v-1822h225v-140h-367z" />
<glyph unicode="M" horiz-adv-x="776" d="M80 0v1962h193l115 -1653l115 1653h193v-1962h-137v1532l-121 -1532h-100l-121 1532v-1532h-137z" />
<glyph unicode="N" d="M80 0v1962h101l170 -1200v1200h136v-1962h-100l-176 1201v-1201h-131z" />
<glyph unicode="O" horiz-adv-x="547" d="M70 187v1588q0 206 203 206q204 0 204 -206v-1588q0 -206 -204 -207q-203 0 -203 207zM212 187q0 -67 61 -67q62 0 62 67v1588q0 66 -61 66h-1q-61 0 -61 -66v-1588z" />
<glyph unicode="P" horiz-adv-x="540" d="M80 0v1962h206q189 0 189 -206v-637q0 -152 -136 -196q-32 -10 -94 -10h-23v-913h-142zM222 1053h32q30 0 41 4q38 15 38 62v637q0 67 -61 67h-50v-770z" />
<glyph unicode="Q" d="M80 175v1601q0 206 203 206q204 0 204 -206v-1601q0 -180 -155 -203q3 -32 155 -33v-118q-126 0 -173 25q-60 31 -62 123q-172 15 -172 206zM222 175q0 -67 61 -67q62 0 62 67v1601q0 66 -61 66h-1q-61 0 -61 -66v-1601z" />
<glyph unicode="R" horiz-adv-x="542" d="M80 0v1962h206q189 0 189 -206v-637q0 -128 -96 -179l143 -940h-155l-123 913h-22v-913h-142zM222 1053h32q30 0 41 4q38 15 38 62v637q0 67 -61 67h-50v-770z" />
<glyph unicode="S" horiz-adv-x="547" d="M70 187v458h142v-458q0 -67 62 -67q61 0 61 67v592q0 71 -132 166q-133 94 -133 230v601q0 206 203 206q204 0 204 -206v-460h-142v460q0 66 -61 66h-1q-61 0 -61 -66v-598q0 -66 132 -161q133 -94 133 -226v-604q0 -207 -203 -207q-204 1 -204 207z" />
<glyph unicode="T" horiz-adv-x="467" d="M30 1823v139h407v-139h-133v-1823h-141v1823h-133z" />
<glyph unicode="U" d="M80 187v1775h142v-1775q0 -67 61 -67q62 0 62 67v1775h142v-1775q0 -206 -204 -207q-203 0 -203 207z" />
<glyph unicode="V" horiz-adv-x="546" d="M30 1962h143l100 -1611l100 1611h143l-46 -696l-100 -1266h-194l-100 1268z" />
<glyph unicode="W" horiz-adv-x="886" d="M30 1962h143l100 -1611l99 1611h142l99 -1611l100 1611h143l-46 -696l-100 -1266h-194l-73 1189l-73 -1189h-194l-100 1268z" />
<glyph unicode="X" horiz-adv-x="529" d="M30 0l163 982l-163 980h143l92 -660l91 660h143l-163 -980l163 -982h-143l-91 684l-92 -684h-143z" />
<glyph unicode="Y" horiz-adv-x="553" d="M30 1962h150l97 -765l96 765h150l-171 -1113l-4 -24v-825h-142v825l-4 24z" />
<glyph unicode="Z" horiz-adv-x="440" d="M40 0v85l192 1738h-185v139h345v-85l-192 -1737h200v-140h-360z" />
<glyph unicode="[" horiz-adv-x="354" d="M80 -149v2261h194v-116h-77v-2028h77v-117h-194z" />
<glyph unicode="\" horiz-adv-x="748" d="M217 1962h119l195 -1962h-118z" />
<glyph unicode="]" horiz-adv-x="354" d="M80 -149v2261h194v-116h-77v-2028h77v-117h-194z" />
<glyph unicode="^" horiz-adv-x="639" d="M80 1576l176 403h127l176 -403h-127l-113 258l-112 -258h-127z" />
<glyph unicode="_" horiz-adv-x="516" d="M0 -107h516v-105h-516v105z" />
<glyph unicode="`" horiz-adv-x="341" d="M79 2028h111l71 -127h-78z" />
<glyph unicode="a" horiz-adv-x="546" d="M30 0l46 613l100 1121h194l100 -1119l46 -615h-143l-31 437h-138l-31 -437h-143zM212 560h122l-61 864z" />
<glyph unicode="b" horiz-adv-x="557" d="M80 0v1734h218q189 0 189 -182v-564q0 -85 -78 -120q78 -35 78 -121v-565q0 -181 -198 -182h-209zM222 124h62q61 0 61 58v565q0 42 -38 55q-11 4 -41 4h-44v-682zM222 930h44q30 0 41 4q38 13 38 54v564q0 60 -61 60h-62v-682z" />
<glyph unicode="c" horiz-adv-x="557" d="M80 163v1404q0 182 203 182q204 0 204 -182v-406h-142v406q0 58 -61 58h-1q-61 0 -61 -58v-1404q0 -59 61 -59q62 0 62 59v405h142v-405q0 -182 -204 -183q-203 0 -203 183z" />
<glyph unicode="d" horiz-adv-x="557" d="M80 0v1734h218q189 0 189 -182v-1370q0 -181 -198 -182h-209zM222 124h62q61 0 61 58v1370q0 60 -61 60h-62v-1488z" />
<glyph unicode="e" horiz-adv-x="487" d="M80 0v1734h367v-122h-225v-682h194v-124h-194v-682h225v-124h-367z" />
<glyph unicode="f" horiz-adv-x="487" d="M80 0v1734h367v-122h-225v-682h194v-124h-194v-806h-142z" />
<glyph unicode="g" horiz-adv-x="557" d="M80 163v1405q0 182 203 182q204 0 204 -182v-407h-142v407q0 58 -61 58h-1q-61 0 -61 -58v-1405q0 -59 61 -59q62 0 62 59v641h-63v124h205v-765q0 -182 -204 -183q-203 0 -203 183z" />
<glyph unicode="h" d="M80 0v1734h142v-804h123v804h142v-1734h-142v806h-123v-806h-142z" />
<glyph unicode="i" horiz-adv-x="312" d="M85 0v1734h142v-1734h-142z" />
<glyph unicode="j" horiz-adv-x="547" d="M60 163v406h142v-406q0 -59 62 -59q61 0 61 59v1569h142v-1569q0 -183 -203 -183q-204 1 -204 183z" />
<glyph unicode="k" horiz-adv-x="554" d="M80 0v1734h142v-771l150 771h152l-187 -867l187 -867h-152l-150 771v-771h-142z" />
<glyph unicode="l" horiz-adv-x="477" d="M80 0v1734h142v-1610h225v-124h-367z" />
<glyph unicode="m" horiz-adv-x="776" d="M80 0v1734h193l115 -1461l115 1461h193v-1734h-137v1354l-121 -1354h-100l-121 1354v-1354h-137z" />
<glyph unicode="n" d="M80 0v1734h101l170 -1060v1060h136v-1734h-100l-176 1062v-1062h-131z" />
<glyph unicode="o" horiz-adv-x="547" d="M70 163v1404q0 182 203 182q204 0 204 -182v-1404q0 -182 -204 -183q-203 0 -203 183zM212 163q0 -59 61 -59q62 0 62 59v1404q0 58 -61 58h-1q-61 0 -61 -58v-1404z" />
<glyph unicode="p" horiz-adv-x="540" d="M80 0v1734h206q189 0 189 -182v-563q0 -134 -136 -173q-32 -9 -94 -9h-23v-807h-142zM222 931h32q30 0 41 3q38 14 38 55v563q0 60 -61 60h-50v-681z" />
<glyph unicode="q" d="M80 134v1415q0 182 203 182q204 0 204 -182v-1415q0 -159 -155 -180q3 -28 155 -29v-104q-126 0 -173 22q-60 28 -62 109q-172 13 -172 182zM222 134q0 -59 61 -59q62 0 62 59v1415q0 59 -61 59h-1q-61 0 -61 -59v-1415z" />
<glyph unicode="r" horiz-adv-x="542" d="M80 0v1734h206q189 0 189 -182v-563q0 -113 -96 -158l143 -831h-155l-123 807h-22v-807h-142zM222 931h32q30 0 41 3q38 14 38 55v563q0 60 -61 60h-50v-681z" />
<glyph unicode="s" horiz-adv-x="547" d="M70 163v405h142v-405q0 -59 62 -59q61 0 61 59v523q0 63 -132 147q-133 83 -133 203v532q0 182 203 182q204 0 204 -182v-407h-142v407q0 58 -61 58h-1q-61 0 -61 -58v-529q0 -58 132 -142q133 -83 133 -200v-534q0 -183 -203 -183q-204 1 -204 183z" />
<glyph unicode="t" horiz-adv-x="467" d="M30 1612v122h407v-122h-133v-1612h-141v1612h-133z" />
<glyph unicode="u" d="M80 163v1569h142v-1569q0 -59 61 -59q62 0 62 59v1569h142v-1569q0 -182 -204 -183q-203 0 -203 183z" />
<glyph unicode="v" horiz-adv-x="546" d="M30 1734h143l100 -1424l100 1424h143l-46 -615l-100 -1119h-194l-100 1121z" />
<glyph unicode="w" horiz-adv-x="886" d="M30 1734h143l100 -1424l99 1424h142l99 -1424l100 1424h143l-46 -615l-100 -1119h-194l-73 1051l-73 -1051h-194l-100 1121z" />
<glyph unicode="x" horiz-adv-x="529" d="M30 0l163 868l-163 866h143l92 -583l91 583h143l-163 -866l163 -868h-143l-91 605l-92 -605h-143z" />
<glyph unicode="y" horiz-adv-x="553" d="M30 1734h150l97 -676l96 676h150l-171 -983l-4 -22v-729h-142v729l-4 22z" />
<glyph unicode="z" horiz-adv-x="440" d="M40 0v75l192 1537h-185v122h345v-75l-192 -1535h200v-124h-360z" />
<glyph unicode="{" horiz-adv-x="545" d="M136 923v117q56 1 56 66v794q0 203 197 206v-116q-56 -2 -56 -67v-793q0 -100 -39 -148q39 -49 39 -149v-799q0 -65 56 -66v-117q-197 3 -197 207v799q0 65 -56 66z" />
<glyph unicode="|" horiz-adv-x="512" d="M198 -340v2386h116v-2386h-116z" />
<glyph unicode="}" horiz-adv-x="545" d="M136 -32q56 1 56 66v799q0 100 39 149q-39 48 -39 148v793q0 65 -56 67v116q197 -3 197 -206v-794q0 -65 56 -66v-117q-56 -1 -56 -66v-799q0 -204 -197 -207v117z" />
<glyph unicode="~" horiz-adv-x="610" d="M80 966l27 41q50 77 116 77h5q44 -2 112 -53q34 -25 56 -25q16 0 25 12l31 39l78 -62l-31 -39q-45 -57 -102 -57h-6q-44 2 -111 52q-39 30 -48 32h-4q-17 0 -37 -30l-27 -42z" />
<glyph unicode="&#xa1;" horiz-adv-x="565" d="M120 -263l11 1727h141l11 -1727h-163zM120 1566v163h163v-163h-163z" />
<glyph unicode="&#xa2;" horiz-adv-x="543" d="M80 175v1492q0 162 133 189v176h116v-176q134 -27 134 -189v-431h-134v431q0 62 -57 62h-1q-58 0 -58 -62v-1492q0 -63 58 -63t58 63v430h134v-430q0 -162 -134 -189v-140h-116v139q-133 27 -133 190z" />
<glyph unicode="&#xa3;" horiz-adv-x="633" d="M60 0v140h35q62 0 62 67v789h-97v79h97v718q0 206 203 206t203 -206v-132h-141v132q0 66 -62 66h-1q-61 0 -61 -66v-718h166v-79h-166v-720q0 -88 -31 -136h257v-140h-464z" />
<glyph unicode="&#xa4;" horiz-adv-x="729" d="M80 773l85 84q-3 24 -3 53v134q0 24 2 44l-84 84l86 85l50 -50q48 43 149 43t149 -43l50 50l85 -85l-83 -84q2 -20 2 -44v-134q0 -28 -3 -53l84 -84l-85 -85l-55 55q-48 -39 -144 -39t-144 39l-55 -55zM303 910q0 -66 62 -66t62 66v134q0 66 -62 66h-1q-61 0 -61 -66 v-134z" />
<glyph unicode="&#xa5;" horiz-adv-x="553" d="M30 1962h150l97 -765l96 765h150l-151 -983h106v-79h-118l-8 -51l-4 -24v-5h130v-79h-130v-741h-142v741h-131v79h131v5l-4 24l-8 51h-119v79h107z" />
<glyph unicode="&#xa6;" horiz-adv-x="512" d="M198 0v800h116v-800h-116zM198 1042v802h116v-802h-116z" />
<glyph unicode="&#xa7;" horiz-adv-x="547" d="M70 122h142v-246q0 -67 62 -67q61 0 61 67v348q0 71 -132 166q-133 94 -133 230v318h1q11 181 201 182q-29 27 -69 56q-133 94 -133 230v380q0 206 203 206q204 0 204 -206v-203h-142v203q0 66 -61 66h-1q-61 0 -61 -66v-377q0 -66 132 -161q133 -94 133 -226v-342 q0 -180 -153 -203q10 -8 20 -15q133 -94 133 -226v-360q0 -207 -203 -207q-204 1 -204 207v246zM212 646q0 -67 62 -67q61 0 61 67v234q0 66 -61 66h-1q-61 0 -61 -66v-234z" />
<glyph unicode="&#xa8;" horiz-adv-x="480" d="M80 1900v121h121v-121h-121zM278 1900v121h122v-121h-122z" />
<glyph unicode="&#xa9;" horiz-adv-x="874" d="M70 330v1296q0 365 367 365t367 -357v-1297q0 -364 -367 -364t-367 357zM182 330q0 -247 255 -247t255 254v1297q0 247 -255 247t-255 -255v-1296zM276 335v1294q0 165 162 165t162 -165v-315h-113v315q0 53 -49 54q-49 0 -49 -54v-1294q0 -54 49 -54t49 54v375h113v-375 q0 -165 -162 -165t-162 165z" />
<glyph unicode="&#xaa;" horiz-adv-x="362" d="M30 855l29 392l62 715h120l62 -714l29 -393h-89l-19 279h-86l-19 -279h-89zM52 645v90h258v-90h-258zM143 1213h76l-38 551z" />
<glyph unicode="&#xab;" horiz-adv-x="723" d="M100 1000l278 253v-165l-112 -95l112 -92v-160zM345 1000l278 253v-165l-112 -95l112 -92v-160z" />
<glyph unicode="&#xac;" horiz-adv-x="564" d="M80 852v116h404v-260h-116v144h-288z" />
<glyph unicode="&#xad;" horiz-adv-x="430" d="M80 943v77h270v-77h-270z" />
<glyph unicode="&#xae;" horiz-adv-x="772" d="M80 268v1423q0 304 306 304t306 -297v-1424q0 -304 -306 -304t-306 298zM174 268q0 -206 212 -206t212 212v1424q0 206 -212 206t-212 -213v-1423zM249 145v1676l139 -1h6q126 0 126 -137v-589q0 -64 -52 -91q52 -26 52 -91v-767h-94v767q0 31 -26 42q-7 3 -27 3h-30 v-812h-94zM343 1050h30q20 0 27 3q26 10 26 41v589q0 45 -41 45h-42v-678z" />
<glyph unicode="&#xaf;" horiz-adv-x="764" d="M80 1805v105h604v-105h-604z" />
<glyph unicode="&#xb0;" horiz-adv-x="469" d="M80 1741q0 154 154 154q155 0 155 -154q0 -155 -155 -155q-154 0 -154 155zM172 1741q0 -63 62 -63q63 0 63 63q0 62 -63 62q-62 0 -62 -62z" />
<glyph unicode="&#xb1;" horiz-adv-x="564" d="M80 0v117h403v-117h-403zM80 354v117h144v143h116v-143h144v-117h-144v-143h-116v143h-144z" />
<glyph unicode="&#xb2;" horiz-adv-x="397" d="M80 980v285q0 77 77 132t78 94v383q0 39 -36 39t-36 -39v-214h-83v214q0 120 119 120q118 0 118 -120v-385q0 -79 -77 -135q-77 -55 -77 -96v-197h154v-81h-237z" />
<glyph unicode="&#xb3;" horiz-adv-x="400" d="M80 1103v238h83v-239q0 -40 37 -40t37 40v312q0 31 -13 37q-7 3 -22 3h-28v82h35q11 0 17 4q11 6 11 35v308q0 32 -13 38q-7 3 -23 3q-4 0 -8 -1q-30 -1 -30 -40v-227h-83v228q0 84 49 109q34 17 69 17q33 0 68 -15q54 -23 54 -111v-309q0 -57 -46 -81q46 -23 46 -80 v-311q0 -76 -39 -103q-25 -18 -77 -19h-7q-46 0 -71 15q-46 26 -46 107z" />
<glyph unicode="&#xb4;" horiz-adv-x="332" d="M80 1899l71 127h111l-103 -127h-79z" />
<glyph unicode="&#xb5;" d="M80 -193v1922h142v-1569q0 -66 61 -66q62 0 62 67v1568h142v-1568q0 -187 -160 -204q-9 -1 -18 -1q-47 0 -87 26v-175h-142z" />
<glyph unicode="&#xb6;" horiz-adv-x="630" d="M80 1305v508q0 100 36 128q27 22 122 22h312v-1963h-100v1862h-112v-1862h-100v1161q-97 0 -123 19q-35 26 -35 125z" />
<glyph unicode="&#xb7;" horiz-adv-x="508" d="M112 717v139h139v-139h-139z" />
<glyph unicode="&#xb8;" horiz-adv-x="298" d="M80 -112h59v-15q0 -7 10 -7t10 7v50q0 8 -9 9h-1q-8 0 -12 -9h-56l15 78h61l-16 -43q19 10 35 10q15 0 28 -10q14 -10 14 -35v-50q0 -42 -51 -46q-8 -1 -17 -1h-10q-60 2 -60 47v15z" />
<glyph unicode="&#xb9;" horiz-adv-x="395" d="M80 980v81h77v821h-77v80h158v-901h77v-81h-235z" />
<glyph unicode="&#xba;" horiz-adv-x="398" d="M70 623v78h258v-78h-258zM73 950v896q0 116 126 116t126 -116v-896q0 -116 -126 -117q-126 0 -126 117zM161 950q0 -38 38 -38t38 38v896q0 37 -38 37t-38 -37v-896z" />
<glyph unicode="&#xbb;" horiz-adv-x="723" d="M100 741v160l112 92l-112 95v165l278 -253zM345 741v160l112 92l-112 95v165l278 -253z" />
<glyph unicode="&#xbc;" horiz-adv-x="847" d="M80 980v81h77v821h-77v80h158v-901h77v-81h-235zM237 0l362 1962h87l-361 -1962h-88zM490 226v71l142 685h104v-676h31v-80h-31v-226h-81v226h-165zM570 306h85v430z" />
<glyph unicode="&#xbd;" horiz-adv-x="965" d="M80 980v81h77v821h-77v80h158v-901h77v-81h-235zM237 0l362 1962h87l-361 -1962h-88zM648 0v285q0 77 77 133q77 55 78 93v383q0 39 -36 39t-36 -39v-213h-83v213q0 121 119 121q118 0 118 -121v-385q0 -79 -77 -134t-77 -97v-196h154v-82h-237z" />
<glyph unicode="&#xbe;" horiz-adv-x="847" d="M80 1103v238h83v-239q0 -40 37 -40t37 40v312q0 31 -13 37q-7 3 -22 3h-28v82h35q11 0 17 4q11 6 11 35v308q0 32 -13 38q-7 3 -23 3q-4 0 -8 -1q-30 -1 -30 -40v-227h-83v228q0 84 49 109q34 17 69 17q33 0 68 -15q54 -23 54 -111v-309q0 -57 -46 -81q46 -23 46 -80 v-311q0 -76 -39 -103q-25 -18 -77 -19h-7q-46 0 -71 15q-46 26 -46 107zM237 0l362 1962h87l-361 -1962h-88zM490 226v71l142 685h104v-676h31v-80h-31v-226h-81v226h-165zM570 306h85v430z" />
<glyph unicode="&#xbf;" d="M80 74v933q0 124 100 223q99 99 99 173v187h142v-199q0 -123 -100 -221q-99 -99 -99 -167v-929q0 -66 61 -66h1q61 0 61 66v476h142v-476q0 -206 -204 -206q-203 0 -203 206zM266 1701v163h163v-163h-163z" />
<glyph unicode="&#xc0;" horiz-adv-x="546" d="M30 0l46 694l100 1268h194l100 -1266l46 -696h-143l-31 494h-138l-31 -494h-143zM152 2146h111l71 -127h-78zM212 634h122l-61 977z" />
<glyph unicode="&#xc1;" horiz-adv-x="546" d="M30 0l46 694l100 1268h194l100 -1266l46 -696h-143l-31 494h-138l-31 -494h-143zM212 634h122l-61 977zM212 2017l71 127h111l-103 -127h-79z" />
<glyph unicode="&#xc2;" horiz-adv-x="546" d="M30 0l46 694l100 1268h194l100 -1266l46 -696h-143l-31 494h-138l-31 -494h-143zM99 2019l107 126h132l109 -126h-107l-68 47l-67 -47h-106zM212 634h122l-61 977z" />
<glyph unicode="&#xc3;" horiz-adv-x="546" d="M30 0l46 694l100 1268h194l100 -1266l46 -696h-143l-31 494h-138l-31 -494h-143zM101 2045l18 35q33 68 87 71h3q34 0 87 -33q25 -16 42 -16q14 0 21 11l21 34l65 -43l-21 -34q-32 -51 -79 -54h-3q-34 0 -86 33q-33 21 -39 22h-2q-14 0 -28 -27l-17 -36zM212 634h122 l-61 977z" />
<glyph unicode="&#xc4;" horiz-adv-x="546" d="M30 0l46 694l100 1268h194l100 -1266l46 -696h-143l-31 494h-138l-31 -494h-143zM113 2018v121h121v-121h-121zM212 634h122l-61 977zM311 2018v121h122v-121h-122z" />
<glyph unicode="&#xc5;" horiz-adv-x="546" d="M30 0l46 694l100 1268h194l100 -1266l46 -696h-143l-31 494h-138l-31 -494h-143zM174 2119q0 99 99 99q100 0 100 -99q0 -100 -100 -100q-99 0 -99 100zM212 634h122l-61 977zM233 2119q0 -41 40 -41q41 0 41 41q0 40 -41 40q-40 0 -40 -40z" />
<glyph unicode="&#xc6;" horiz-adv-x="685" d="M30 0l46 694l100 1268h469v-139h-225v-771h194v-140h-194v-772h225v-140h-367v494h-74l-31 -494h-143zM212 634h66v897l-5 80z" />
<glyph unicode="&#xc7;" horiz-adv-x="557" d="M80 175v1612q0 206 203 206q204 0 204 -206v-471h-142v471q0 66 -61 66h-1q-61 0 -61 -66v-1612q0 -67 61 -67q62 0 62 67v470h142v-470q0 -205 -202 -207l-9 -25q19 10 35 10q15 0 28 -10q14 -10 14 -35v-50q0 -42 -51 -46q-8 -1 -17 -1h-10q-60 2 -60 47v15h59v-15 q0 -7 10 -7t10 7v50q0 8 -9 9h-1q-8 0 -12 -9h-56l12 64q-148 26 -148 203z" />
<glyph unicode="&#xc8;" horiz-adv-x="487" d="M80 0v1962h367v-139h-225v-771h194v-140h-194v-772h225v-140h-367zM142 2146h111l71 -127h-78z" />
<glyph unicode="&#xc9;" horiz-adv-x="487" d="M80 0v1962h367v-139h-225v-771h194v-140h-194v-772h225v-140h-367zM203 2017l71 127h111l-103 -127h-79z" />
<glyph unicode="&#xca;" horiz-adv-x="487" d="M80 0v1962h367v-139h-225v-771h194v-140h-194v-772h225v-140h-367zM90 2019l107 126h132l109 -126h-107l-68 47l-67 -47h-106z" />
<glyph unicode="&#xcb;" horiz-adv-x="487" d="M80 0v1962h367v-139h-225v-771h194v-140h-194v-772h225v-140h-367zM104 2018v121h121v-121h-121zM302 2018v121h122v-121h-122z" />
<glyph unicode="&#xcc;" horiz-adv-x="312" d="M35 2146h111l71 -127h-78zM85 0v1962h142v-1962h-142z" />
<glyph unicode="&#xcd;" horiz-adv-x="312" d="M85 0v1962h142v-1962h-142zM95 2017l71 127h111l-103 -127h-79z" />
<glyph unicode="&#xce;" horiz-adv-x="312" d="M-18 2019l107 126h132l109 -126h-107l-68 47l-67 -47h-106zM85 0v1962h142v-1962h-142z" />
<glyph unicode="&#xcf;" horiz-adv-x="312" d="M-4 2018v121h121v-121h-121zM85 0v1962h142v-1962h-142zM194 2018v121h122v-121h-122z" />
<glyph unicode="&#xd0;" horiz-adv-x="557" d="M2 929v105h78v928h218q189 0 189 -206v-1550q0 -205 -198 -206h-209v929h-78zM222 140h62q61 0 61 66v1550q0 67 -61 67h-62v-789h57v-105h-57v-789z" />
<glyph unicode="&#xd1;" d="M80 0v1962h101l170 -1200v1200h136v-1962h-100l-176 1201v-1201h-131zM112 2045l18 35q33 68 87 71h3q34 0 87 -33q25 -16 42 -16q14 0 21 11l21 34l65 -43l-21 -34q-32 -51 -79 -54h-3q-34 0 -86 33q-33 21 -39 22h-2q-14 0 -28 -27l-17 -36z" />
<glyph unicode="&#xd2;" horiz-adv-x="547" d="M70 187v1588q0 206 203 206q204 0 204 -206v-1588q0 -206 -204 -207q-203 0 -203 207zM152 2146h111l71 -127h-78zM212 187q0 -67 61 -67q62 0 62 67v1588q0 66 -61 66h-1q-61 0 -61 -66v-1588z" />
<glyph unicode="&#xd3;" horiz-adv-x="547" d="M70 187v1588q0 206 203 206q204 0 204 -206v-1588q0 -206 -204 -207q-203 0 -203 207zM212 187q0 -67 61 -67q62 0 62 67v1588q0 66 -61 66h-1q-61 0 -61 -66v-1588zM213 2017l71 127h111l-103 -127h-79z" />
<glyph unicode="&#xd4;" horiz-adv-x="547" d="M70 187v1588q0 206 203 206q204 0 204 -206v-1588q0 -206 -204 -207q-203 0 -203 207zM100 2019l107 126h132l109 -126h-107l-68 47l-67 -47h-106zM212 187q0 -67 61 -67q62 0 62 67v1588q0 66 -61 66h-1q-61 0 -61 -66v-1588z" />
<glyph unicode="&#xd5;" horiz-adv-x="547" d="M70 187v1588q0 206 203 206q204 0 204 -206v-1588q0 -206 -204 -207q-203 0 -203 207zM102 2045l18 35q33 68 87 71h3q34 0 87 -33q25 -16 42 -16q14 0 21 11l21 34l65 -43l-21 -34q-32 -51 -79 -54h-3q-34 0 -86 33q-33 21 -39 22h-2q-14 0 -28 -27l-17 -36zM212 187 q0 -67 61 -67q62 0 62 67v1588q0 66 -61 66h-1q-61 0 -61 -66v-1588z" />
<glyph unicode="&#xd6;" horiz-adv-x="547" d="M70 187v1588q0 206 203 206q204 0 204 -206v-1588q0 -206 -204 -207q-203 0 -203 207zM114 2018v121h121v-121h-121zM212 187q0 -67 61 -67q62 0 62 67v1588q0 66 -61 66h-1q-61 0 -61 -66v-1588zM312 2018v121h122v-121h-122z" />
<glyph unicode="&#xd7;" horiz-adv-x="528" d="M80 792l102 102l-101 101l82 82l101 -101l102 102l82 -83l-101 -102l101 -101l-82 -82l-101 101l-102 -102z" />
<glyph unicode="&#xd8;" horiz-adv-x="547" d="M70 187v1588q0 206 203 206q204 0 204 -206v-1588q0 -206 -204 -207q-203 0 -203 207zM212 947l97 886q-14 8 -35 8h-1q-61 0 -61 -66v-828zM241 126q13 -6 32 -6q62 0 62 67v801z" />
<glyph unicode="&#xd9;" d="M80 187v1775h142v-1775q0 -67 61 -67q62 0 62 67v1775h142v-1775q0 -206 -204 -207q-203 0 -203 207zM162 2146h111l71 -127h-78z" />
<glyph unicode="&#xda;" d="M80 187v1775h142v-1775q0 -67 61 -67q62 0 62 67v1775h142v-1775q0 -206 -204 -207q-203 0 -203 207zM223 2017l71 127h111l-103 -127h-79z" />
<glyph unicode="&#xdb;" d="M80 187v1775h142v-1775q0 -67 61 -67q62 0 62 67v1775h142v-1775q0 -206 -204 -207q-203 0 -203 207zM110 2019l107 126h132l109 -126h-107l-68 47l-67 -47h-106z" />
<glyph unicode="&#xdc;" d="M80 187v1775h142v-1775q0 -67 61 -67q62 0 62 67v1775h142v-1775q0 -206 -204 -207q-203 0 -203 207zM124 2018v121h121v-121h-121zM322 2018v121h122v-121h-122z" />
<glyph unicode="&#xdd;" horiz-adv-x="553" d="M30 1962h150l97 -765l96 765h150l-171 -1113l-4 -24v-825h-142v825l-4 24zM216 2017l71 127h111l-103 -127h-79z" />
<glyph unicode="&#xde;" horiz-adv-x="540" d="M80 -200v2162h142v-200h64q189 0 189 -206v-637q0 -152 -136 -196q-32 -10 -94 -10h-23v-913h-142zM222 853h32q30 0 41 4q38 15 38 62v637q0 67 -61 67h-50v-770z" />
<glyph unicode="&#xdf;" d="M80 -1v1789q0 206 203 206q204 0 204 -206v-723q0 -97 -78 -137q78 -39 78 -136v-693q0 -206 -189 -206h-14v139q61 0 61 67v693q0 47 -38 62q-12 5 -41 5h-44v-860h-142zM222 998h44q29 0 41 5q38 15 38 62v723q0 66 -61 66h-1q-61 0 -61 -66v-790z" />
<glyph unicode="&#xe0;" horiz-adv-x="517" d="M30 0l46 613l100 1121h194l100 -1119l46 -615h-143l-31 437h-138l-31 -437h-143zM137 2028h111l71 -127h-78zM212 560h122l-61 864z" />
<glyph unicode="&#xe1;" horiz-adv-x="517" d="M30 0l46 613l100 1121h194l100 -1119l46 -615h-143l-31 437h-138l-31 -437h-143zM198 1899l71 127h111l-103 -127h-79zM212 560h122l-61 864z" />
<glyph unicode="&#xe2;" horiz-adv-x="517" d="M30 0l46 613l100 1121h194l100 -1119l46 -615h-143l-31 437h-138l-31 -437h-143zM84 1901l107 126h132l109 -126h-107l-68 47l-67 -47h-106zM212 560h122l-61 864z" />
<glyph unicode="&#xe3;" horiz-adv-x="517" d="M30 0l46 613l100 1121h194l100 -1119l46 -615h-143l-31 437h-138l-31 -437h-143zM86 1927l18 35q33 68 87 71h3q34 0 87 -33q25 -16 42 -16q14 0 21 11l21 34l65 -43l-21 -34q-32 -51 -79 -54h-3q-34 0 -86 33q-33 21 -39 22h-2q-14 0 -28 -27l-17 -36zM212 560h122 l-61 864z" />
<glyph unicode="&#xe4;" horiz-adv-x="517" d="M30 0l46 613l100 1121h194l100 -1119l46 -615h-143l-31 437h-138l-31 -437h-143zM98 1900v121h121v-121h-121zM212 560h122l-61 864zM296 1900v121h122v-121h-122z" />
<glyph unicode="&#xe5;" horiz-adv-x="517" d="M30 0l46 613l100 1121h194l100 -1119l46 -615h-143l-31 437h-138l-31 -437h-143zM159 2001q0 99 99 99q100 0 100 -99q0 -100 -100 -100q-99 0 -99 100zM212 560h122l-61 864zM218 2001q0 -41 40 -41q41 0 41 41q0 40 -41 40q-40 0 -40 -40z" />
<glyph unicode="&#xe6;" horiz-adv-x="641" d="M30 0l43 652l94 1192h434v-130h-211v-725h182v-132h-182v-725h211v-132h-345v464h-62l-30 -464h-134zM201 596h55v886z" />
<glyph unicode="&#xe7;" horiz-adv-x="533" d="M80 175v1492q0 194 191 194q192 0 192 -194v-431h-134v431q0 62 -57 62h-1q-58 0 -58 -62v-1492q0 -63 58 -63t58 63v430h134v-430q0 -194 -192 -195l-8 -22q19 10 35 10q15 0 28 -10q14 -10 14 -35v-50q0 -42 -51 -46q-8 -1 -17 -1h-10q-60 2 -60 47v15h59v-15 q0 -7 10 -7t10 7v50q0 8 -9 9h-1q-8 0 -12 -9h-56l12 62q-135 26 -135 190z" />
<glyph unicode="&#xe8;" horiz-adv-x="465" d="M80 0v1734h367v-122h-225v-682h194v-124h-194v-682h225v-124h-367zM131 2028h111l71 -127h-78z" />
<glyph unicode="&#xe9;" horiz-adv-x="465" d="M80 0v1734h367v-122h-225v-682h194v-124h-194v-682h225v-124h-367zM192 1899l71 127h111l-103 -127h-79z" />
<glyph unicode="&#xea;" horiz-adv-x="465" d="M78 1901l107 126h132l109 -126h-107l-68 47l-67 -47h-106zM80 0v1734h367v-122h-225v-682h194v-124h-194v-682h225v-124h-367z" />
<glyph unicode="&#xeb;" horiz-adv-x="465" d="M80 0v1734h367v-122h-225v-682h194v-124h-194v-682h225v-124h-367zM92 1900v121h121v-121h-121zM290 1900v121h122v-121h-122z" />
<glyph unicode="&#xec;" horiz-adv-x="305" d="M30 2028h111l71 -127h-78zM85 0v1734h142v-1734h-142z" />
<glyph unicode="&#xed;" horiz-adv-x="305" d="M85 0v1734h142v-1734h-142zM91 1899l71 127h111l-103 -127h-79z" />
<glyph unicode="&#xee;" horiz-adv-x="305" d="M-22 1901l107 126h132l109 -126h-107l-68 47l-67 -47h-106zM85 0v1734h142v-1734h-142z" />
<glyph unicode="&#xef;" horiz-adv-x="305" d="M-8 1900v121h121v-121h-121zM85 0v1734h142v-1734h-142zM190 1900v121h122v-121h-122z" />
<glyph unicode="&#xf0;" horiz-adv-x="1053" d="M323 174v708q0 196 176 196q52 0 89 -30v400q0 241 -48 317l-107 -91l-69 82l100 84q-31 19 -88 41l35 111q101 -30 154 -67l84 70l68 -82l-74 -62q87 -116 87 -479v-1198q0 -206 -203 -206q-204 0 -204 206zM465 174q0 -66 62 -66q61 0 61 66v708q0 64 -49 66 q-8 1 -14 1q-27 0 -38 -5q-22 -10 -22 -62v-708z" />
<glyph unicode="&#xf1;" horiz-adv-x="543" d="M80 0v1734h101l170 -1060v1060h136v-1734h-100l-176 1062v-1062h-131zM99 1927l18 35q33 68 87 71h3q34 0 87 -33q25 -16 42 -16q14 0 21 11l21 34l65 -43l-21 -34q-32 -51 -79 -54h-3q-34 0 -86 33q-33 21 -39 22h-2q-14 0 -28 -27l-17 -36z" />
<glyph unicode="&#xf2;" horiz-adv-x="523" d="M70 163v1404q0 182 203 182q204 0 204 -182v-1404q0 -182 -204 -183q-203 0 -203 183zM140 2028h111l71 -127h-78zM212 163q0 -59 61 -59q62 0 62 59v1404q0 58 -61 58h-1q-61 0 -61 -58v-1404z" />
<glyph unicode="&#xf3;" horiz-adv-x="523" d="M70 163v1404q0 182 203 182q204 0 204 -182v-1404q0 -182 -204 -183q-203 0 -203 183zM201 1899l71 127h111l-103 -127h-79zM212 163q0 -59 61 -59q62 0 62 59v1404q0 58 -61 58h-1q-61 0 -61 -58v-1404z" />
<glyph unicode="&#xf4;" horiz-adv-x="523" d="M70 163v1404q0 182 203 182q204 0 204 -182v-1404q0 -182 -204 -183q-203 0 -203 183zM87 1901l107 126h132l109 -126h-107l-68 47l-67 -47h-106zM212 163q0 -59 61 -59q62 0 62 59v1404q0 58 -61 58h-1q-61 0 -61 -58v-1404z" />
<glyph unicode="&#xf5;" horiz-adv-x="523" d="M70 163v1404q0 182 203 182q204 0 204 -182v-1404q0 -182 -204 -183q-203 0 -203 183zM89 1927l18 35q33 68 87 71h3q34 0 87 -33q25 -16 42 -16q14 0 21 11l21 34l65 -43l-21 -34q-32 -51 -79 -54h-3q-34 0 -86 33q-33 21 -39 22h-2q-14 0 -28 -27l-17 -36zM212 163 q0 -59 61 -59q62 0 62 59v1404q0 58 -61 58h-1q-61 0 -61 -58v-1404z" />
<glyph unicode="&#xf6;" horiz-adv-x="523" d="M70 163v1404q0 182 203 182q204 0 204 -182v-1404q0 -182 -204 -183q-203 0 -203 183zM101 1900v121h121v-121h-121zM212 163q0 -59 61 -59q62 0 62 59v1404q0 58 -61 58h-1q-61 0 -61 -58v-1404zM299 1900v121h122v-121h-122z" />
<glyph unicode="&#xf7;" horiz-adv-x="563" d="M80 925v117h403v-117h-403zM200 368v163h163v-163h-163zM200 1437v163h163v-163h-163z" />
<glyph unicode="&#xf8;" horiz-adv-x="523" d="M70 175v1492q0 194 191 194q192 0 192 -194v-1492q0 -194 -192 -195q-191 0 -191 195zM203 934l92 787q-13 8 -33 8h-1q-58 0 -58 -62v-733zM227 120q13 -8 34 -8q58 0 58 63v737z" />
<glyph unicode="&#xf9;" horiz-adv-x="543" d="M80 163v1569h142v-1569q0 -59 61 -59q62 0 62 59v1569h142v-1569q0 -182 -204 -183q-203 0 -203 183zM150 2028h111l71 -127h-78z" />
<glyph unicode="&#xfa;" horiz-adv-x="543" d="M80 163v1569h142v-1569q0 -59 61 -59q62 0 62 59v1569h142v-1569q0 -182 -204 -183q-203 0 -203 183zM211 1899l71 127h111l-103 -127h-79z" />
<glyph unicode="&#xfb;" horiz-adv-x="543" d="M80 163v1569h142v-1569q0 -59 61 -59q62 0 62 59v1569h142v-1569q0 -182 -204 -183q-203 0 -203 183zM97 1901l107 126h132l109 -126h-107l-68 47l-67 -47h-106z" />
<glyph unicode="&#xfc;" horiz-adv-x="543" d="M80 163v1569h142v-1569q0 -59 61 -59q62 0 62 59v1569h142v-1569q0 -182 -204 -183q-203 0 -203 183zM111 1900v121h121v-121h-121zM309 1900v121h122v-121h-122z" />
<glyph unicode="&#xfd;" horiz-adv-x="523" d="M30 1734h150l97 -676l96 676h150l-171 -983l-4 -22v-729h-142v729l-4 22zM201 1899l71 127h111l-103 -127h-79z" />
<glyph unicode="&#xfe;" horiz-adv-x="516" d="M80 0v1844h194q177 0 177 -193v-599q0 -143 -128 -184q-30 -10 -88 -10h-22v-726h212v-132h-345zM213 990h31q28 0 38 4q36 14 36 58v599q0 63 -58 63h-47v-724z" />
<glyph unicode="&#xff;" horiz-adv-x="523" d="M30 1734h150l97 -676l96 676h150l-171 -983l-4 -22v-729h-142v729l-4 22zM102 1900v121h121v-121h-121zM300 1900v121h122v-121h-122z" />
<glyph unicode="&#x152;" horiz-adv-x="752" d="M70 187v1588q0 206 203 206q62 0 105 -19h324v-139h-225v-771h194v-140h-194v-772h225v-140h-323q-43 -20 -106 -20q-203 0 -203 207zM212 187q0 -67 61 -67q62 0 62 67v1588q0 66 -61 66h-1q-61 0 -61 -66v-1588z" />
<glyph unicode="&#x153;" horiz-adv-x="715" d="M70 175v1492q0 194 191 194q57 0 97 -17h307v-130h-212v-725h183v-132h-183v-725h212v-132h-302q-41 -20 -102 -20q-191 0 -191 195zM203 175q0 -63 58 -63t58 63v1492q0 62 -57 62h-1q-58 0 -58 -62v-1492z" />
<glyph unicode="&#x2c6;" horiz-adv-x="508" d="M80 1901l107 126h132l109 -126h-107l-68 47l-67 -47h-106z" />
<glyph unicode="&#x2dc;" horiz-adv-x="947" d="M302 1927l18 35q33 68 87 71h3q34 0 87 -33q25 -16 42 -16q14 0 21 11l21 34l65 -43l-21 -34q-32 -51 -79 -54h-3q-34 0 -86 33q-33 21 -39 22h-2q-14 0 -28 -27l-17 -36z" />
<glyph unicode="&#x2000;" horiz-adv-x="1109" />
<glyph unicode="&#x2001;" horiz-adv-x="2218" />
<glyph unicode="&#x2002;" horiz-adv-x="1109" />
<glyph unicode="&#x2003;" horiz-adv-x="2218" />
<glyph unicode="&#x2004;" horiz-adv-x="739" />
<glyph unicode="&#x2005;" horiz-adv-x="554" />
<glyph unicode="&#x2006;" horiz-adv-x="369" />
<glyph unicode="&#x2007;" horiz-adv-x="369" />
<glyph unicode="&#x2008;" horiz-adv-x="277" />
<glyph unicode="&#x2009;" horiz-adv-x="443" />
<glyph unicode="&#x200a;" horiz-adv-x="123" />
<glyph unicode="&#x2010;" horiz-adv-x="430" d="M80 943v77h270v-77h-270z" />
<glyph unicode="&#x2011;" horiz-adv-x="430" d="M80 943v77h270v-77h-270z" />
<glyph unicode="&#x2012;" horiz-adv-x="430" d="M80 943v77h270v-77h-270z" />
<glyph unicode="&#x2013;" horiz-adv-x="530" d="M0 899v117h530v-117h-530z" />
<glyph unicode="&#x2014;" horiz-adv-x="977" d="M0 899v117h977v-117h-977z" />
<glyph unicode="&#x2018;" horiz-adv-x="335" d="M80 1637v144l54 182h92l-29 -163h58v-163h-175z" />
<glyph unicode="&#x2019;" horiz-adv-x="335" d="M80 1801v162h175v-144l-53 -182h-92l29 164h-59z" />
<glyph unicode="&#x201a;" horiz-adv-x="336" d="M80 0v162h176v-143l-54 -183h-92l29 164h-59z" />
<glyph unicode="&#x201c;" horiz-adv-x="580" d="M80 1637v144l54 182h92l-29 -163h58v-163h-175zM325 1637v144l54 182h92l-29 -163h58v-163h-175z" />
<glyph unicode="&#x201d;" horiz-adv-x="580" d="M80 1801v162h175v-144l-53 -182h-92l29 164h-59zM325 1801v162h175v-144l-53 -182h-92l29 164h-59z" />
<glyph unicode="&#x201e;" horiz-adv-x="580" d="M80 1v162h175v-144l-53 -182h-92l29 164h-59zM325 1v162h175v-144l-53 -182h-92l29 164h-59z" />
<glyph unicode="&#x2022;" horiz-adv-x="524" d="M80 983q0 76 53 129q54 53 129 53t129 -53q53 -53 53 -129q0 -75 -53 -128q-54 -53 -129 -53t-129 53q-53 53 -53 128z" />
<glyph unicode="&#x2026;" horiz-adv-x="2048" d="M120 0v163h163v-163h-163zM803 0v163h163v-163h-163zM1486 0v163h163v-163h-163z" />
<glyph unicode="&#x202f;" horiz-adv-x="443" />
<glyph unicode="&#x2039;" horiz-adv-x="478" d="M100 1000l278 253v-165l-112 -95l112 -92v-160z" />
<glyph unicode="&#x203a;" horiz-adv-x="478" d="M100 741v160l112 92l-112 95v165l278 -253z" />
<glyph unicode="&#x205f;" horiz-adv-x="554" />
<glyph unicode="&#x20ac;" horiz-adv-x="537" d="M50 876v105h85v105h-85v105h85v584q0 206 173 206t173 -206v-459h-121v459q0 66 -52 66t-52 -66v-584h172v-105h-172v-105h172v-105h-172v-689q0 -67 52 -67t52 67v458h121v-458q0 -206 -173 -207q-173 0 -173 207v689h-85z" />
<glyph unicode="&#x2122;" horiz-adv-x="1108" d="M60 1617v112h366v-112h-119v-673h-128v673h-119zM479 945v785h127l150 -538l148 538h128v-785h-122v440l-109 -440h-87l-112 440v-440h-123z" />
<glyph unicode="&#x25fc;" horiz-adv-x="1735" d="M0 0v1735h1735v-1735h-1735z" />
</font>
</defs>
</svg>
